<svg width="40" height="40" fill="none" xmlns="http://www.w3.org/2000/svg"><path d="M19.998.021a19.94 19.94 0 0 0-13.51 5.274A20.113 20.113 0 0 0 .075 18.352a20.143 20.143 0 0 0 4.06 13.978 19.976 19.976 0 0 0 12.396 7.547V25.561h-5.027v-5.864h5.027v-4.328c0-4.998 3.037-7.717 7.474-7.717 1.496-.005 2.992.07 4.48.224v5.221h-3.058c-2.413 0-2.872 1.155-2.872 2.85v3.728h5.78l-.754 5.857h-5.062V40a19.966 19.966 0 0 0 12.895-7.123 20.139 20.139 0 0 0 4.547-14.059 20.116 20.116 0 0 0-6.266-13.375A19.941 19.941 0 0 0 20.013 0l-.015.021Z" fill="#12100B"/></svg>