<svg width="256" height="201" fill="none" xmlns="http://www.w3.org/2000/svg"><g clip-path="url(#a)" fill="#1A1A1A"><path d="m22.877 77.25 20.027-27.431 23.874 27.43h8.212L46.656 44.74 76.392 3.81H54.985L34.988 31.345 10.98 3.81H2.873L31.28 36.46 1.469 77.25h21.408Zm21.504 34.991h-.052V99.969h-6.084v12.272h-.052a38.25 38.25 0 0 0-37.72 38.244 38.246 38.246 0 0 0 11.016 26.856 38.256 38.256 0 0 0 26.704 11.388h.052v12.279h6.084v-12.279h.052a38.256 38.256 0 0 0 26.704-11.388 38.246 38.246 0 0 0-26.704-65.1Zm-6.136 58.087c-21.29-.406-35.52-9.133-35.52-19.685 0-10.854 14.91-19.589 35.52-20.002v39.687Zm6.084 0v-39.687c20.426.421 35.52 9.141 35.52 19.685 0 10.839-15.862 19.567-35.52 20.002Zm82.788-56.516-19.672 53.761c-3.744 9.769-5.546 11.851-9.4 12.841.059-.421.118-.864.118-.997 0-5.043-3.752-9.562-9.18-9.562a9.41 9.41 0 0 0-6.737 2.652 9.412 9.412 0 0 0-2.862 6.652c0 5.434 4.918 9.598 10.087 9.598h.953c11.748 0 18.624-5.39 24.199-21.649l13.041-34.903h25.89l5.169 54.98h5.864l-6.484-73.343-30.986-.03ZM88.519 78.83h.066c11.232 0 15.456-6.469 17.634-16.245l8.33-40.285h44.972v54.979h6.07V3.914H112.09l-12.066 58.65c-.798 4.149-1.544 6.054-2.91 7.464.04-.167.06-.338.06-.51 0-5.043-3.745-9.598-9.18-9.598a9.408 9.408 0 0 0-9.54 9.34c0 5.434 4.888 9.57 10.065 9.57Z"/></g><defs><clipPath id="a"><path fill="#fff" d="M0 0h256v201H0z"/></clipPath></defs></svg>