<svg width="256" height="201" fill="none" xmlns="http://www.w3.org/2000/svg"><g clip-path="url(#a)" fill="#1A1A1A"><path d="m22.878 77.25 20.026-27.431 23.875 27.43h8.211L46.656 44.74 76.393 3.81H54.986L34.987 31.345 10.981 3.81H2.873L31.28 36.46 1.47 77.25h21.408Zm167.289-4.425c16.571 13.217 40.408 10.758 54.476-6.874l2.488-3.116c13.809-17.308 11.077-41.35-5.464-54.559-16.542-13.21-40.527-10.448-54.336 6.86l-2.481 3.116c-14.09 17.632-11.136 41.452 5.317 54.573Zm8.514-42.471 3.53-4.43c12.177-15.255 29.228-22.329 37.757-15.506 8.529 6.822 5.509 25.06-6.646 40.315l-3.53 4.43c-12.236 15.336-29.287 22.41-37.904 15.506-8.618-6.904-5.443-24.994 6.793-40.315ZM44.38 112.241h-.05V99.969h-6.086v12.272h-.051a38.25 38.25 0 0 0-37.72 38.244 38.246 38.246 0 0 0 11.016 26.856 38.256 38.256 0 0 0 26.704 11.388h.051v12.279h6.085v-12.279h.052a38.256 38.256 0 0 0 26.704-11.388 38.246 38.246 0 0 0-26.704-65.1Zm-6.136 58.087c-21.29-.406-35.52-9.133-35.52-19.685 0-10.854 14.91-19.589 35.52-20.002v39.687Zm6.085 0v-39.687c20.426.421 35.52 9.141 35.52 19.685 0 10.839-15.862 19.567-35.52 20.002Zm82.788-56.516-19.672 53.761c-3.744 9.769-5.546 11.851-9.4 12.841.059-.421.118-.864.118-.997 0-5.043-3.752-9.562-9.18-9.562a9.41 9.41 0 0 0-6.737 2.652 9.412 9.412 0 0 0-2.862 6.652c0 5.434 4.918 9.598 10.087 9.598h.953c11.748 0 18.624-5.39 24.199-21.649l13.041-34.903h25.89l5.169 54.98h5.864l-6.484-73.343-30.986-.03Zm111.492 7.696c-15.95-15.351-40.135-14.886-54.837.384-14.703 15.269-14.156 39.377 1.794 54.728l2.873 2.769c16.246 15.639 40.216 14.959 54.845-.237 14.629-15.195 14.459-39.237-1.802-54.875l-2.873-2.769Zm2.703 55.747c-7.562 7.864-25.395 3.086-39.537-10.485l-4.083-3.928c-14.068-13.535-19.525-31.167-11.956-39.023 7.569-7.856 25.469-3.168 39.529 10.337l4.084 3.928c14.149 13.608 19.606 31.233 11.963 39.171ZM88.519 78.83h.066c11.232 0 15.456-6.469 17.635-16.245l8.329-40.285h44.972v54.979h6.07V3.914H112.09l-12.066 58.65c-.798 4.149-1.543 6.054-2.91 7.464.04-.167.06-.338.06-.51 0-5.043-3.745-9.598-9.18-9.598a9.409 9.409 0 0 0-9.54 9.34c0 5.434 4.888 9.57 10.065 9.57Z"/></g><defs><clipPath id="a"><path fill="#fff" d="M0 0h256v201H0z"/></clipPath></defs></svg>