<svg width="143" height="59" fill="none" xmlns="http://www.w3.org/2000/svg"><path d="M130.004 18.87c1.479-3.95 1.18-8.814-.974-12.1a14.458 14.458 0 0 0-6.866-5.713 14.74 14.74 0 0 0-8.969-.638C99.631 3.699 86.63 9.09 73.578 13.93l-2.228.817a11.688 11.688 0 0 0-1.873-6.682c-3.702-5.651-9.363-7.223-15.86-6.351a360.287 360.287 0 0 0-43.238 8.513C3.276 12.07-1.749 20.165.573 27.223c2.36 7.18 9.663 11.67 17.271 9.655a304.93 304.93 0 0 1 6.929-1.726.049.049 0 0 0 0 .03c-2.347 5.252-2.678 10.54 1.098 15.356 3.184 4.054 9.538 6.873 14.762 4.95l17.247-6.357c.08.203.156.406.243.615a15.261 15.261 0 0 0 5.848 6.832 15.629 15.629 0 0 0 8.74 2.417c3.532-.067 6.297-1.326 9.512-2.5a175.9 175.9 0 0 1 15.885-4.962 176.785 176.785 0 0 1 16.292-3.446c1.073-.178 2.147-.35 3.22-.497a83.095 83.095 0 0 1 2.16-.252c3.046-.338 6.104-.614 9.163-.774 7.315-.442 14.4-6.038 14.044-13.82-.362-6.805-5.699-13.617-12.983-13.875Z" fill="#fff"/></svg>