<svg width="224" height="50" fill="none" xmlns="http://www.w3.org/2000/svg"><path d="M4.21 16.883c-.874-.542-1.554-1.193-2.038-1.953a4.484 4.484 0 0 1-.735-2.438c0-.51.092-.997.274-1.46.182-.464.437-.87.766-1.22a3.525 3.525 0 0 1 1.21-.828 3.92 3.92 0 0 1 1.594-.312c.51 0 .992.094 1.446.281.453.188.877.44 1.273.758l.563-1.07 1.117.546-.735 1.36a7.183 7.183 0 0 1 1.336 2.36c.313.9.469 1.84.469 2.82a4.5 4.5 0 0 1-.234 1.476c.875-.052 1.638-.216 2.289-.492.656-.27 1.14-.625 1.453-1.063l.86.813a4.68 4.68 0 0 1-.72.719 4.607 4.607 0 0 1-1.039.61c-.406.181-.87.33-1.39.444a7.83 7.83 0 0 1-1.742.164h-.196a3.818 3.818 0 0 1-1.414 1.266c-.594.307-1.307.461-2.14.461a4.799 4.799 0 0 1-1.125-.11 7.365 7.365 0 0 0-.422-.078 3.468 3.468 0 0 0-.774-.015c-.093.01-.182.026-.265.047l-.29.062-.882-.351 1.492-2.797Zm-1.538-4.39c0 .619.182 1.218.547 1.796.364.578.88 1.083 1.547 1.516l2.64-4.992a3.424 3.424 0 0 0-1.023-.665 2.9 2.9 0 0 0-1.164-.226 2.8 2.8 0 0 0-1.07.195 2.356 2.356 0 0 0-1.297 1.367c-.12.308-.18.644-.18 1.008Zm3.203 3.843c.48.224.995.409 1.547.555a8.338 8.338 0 0 0 1.797.257c.083-.234.15-.479.203-.734.052-.255.08-.52.086-.797a6.93 6.93 0 0 0-.32-2.14 6.387 6.387 0 0 0-.868-1.75l-2.445 4.609Zm.523 2.797c.448 0 .839-.078 1.172-.235.328-.161.61-.375.844-.64a8.18 8.18 0 0 1-1.64-.281 9.281 9.281 0 0 1-1.477-.555l-.836 1.57a.796.796 0 0 1 .156-.015h.149c.171 0 .32.007.445.023s.242.034.351.055a3.974 3.974 0 0 0 .836.078Zm13.422.992c-.552 0-.984-.154-1.297-.46-.307-.308-.46-.714-.46-1.22 0-.161.015-.33.046-.508-.599.714-1.182 1.256-1.75 1.625-.573.37-1.12.553-1.64.547-.448 0-.8-.127-1.055-.382-.255-.256-.385-.628-.39-1.118 0-.192.018-.38.054-.562a5.43 5.43 0 0 1 .14-.594l1.759-4.46h1.343l-1.804 4.515c-.141.364-.211.635-.211.812 0 .203.05.35.148.438a.563.563 0 0 0 .383.14c.245 0 .568-.156.969-.468.4-.308.828-.732 1.28-1.274a15.86 15.86 0 0 0 1.345-1.875c.442-.713.828-1.476 1.156-2.289h1.36l-1.618 4.047c-.083.214-.14.404-.172.57a2.417 2.417 0 0 0-.047.438c0 .276.07.487.211.633.146.146.347.218.602.218.245 0 .513-.078.805-.234a5.05 5.05 0 0 0 .906-.656 11.09 11.09 0 0 0 1-1.024c.349-.4.703-.846 1.062-1.336l.867.813c-.395.52-.786 1.008-1.171 1.46a8.881 8.881 0 0 1-1.203 1.157 6.11 6.11 0 0 1-1.266.774 3.444 3.444 0 0 1-1.352.273Zm5.211-1.71a17.432 17.432 0 0 0 1.532-.86 9.266 9.266 0 0 0 1.218-.907c.344-.302.607-.604.79-.906.187-.297.28-.583.28-.86 0-.265-.078-.463-.234-.593a.896.896 0 0 0-.594-.195c-.5 0-1.005.21-1.515.633-.505.421-1.078 1.018-1.719 1.789l-.883-.836c.735-.907 1.464-1.602 2.188-2.086.718-.485 1.43-.727 2.133-.727.588 0 1.06.17 1.414.508.359.344.539.802.539 1.375 0 .672-.248 1.313-.742 1.922-.495.61-1.165 1.18-2.008 1.71.343.063.633.199.867.407.24.208.398.48.476.813.813-.365 1.639-.868 2.477-1.508.844-.64 1.617-1.456 2.32-2.446l.867.813c-.802 1.088-1.653 1.969-2.554 2.64a12.392 12.392 0 0 1-3.047 1.649 4.364 4.364 0 0 1-.516 1.516 5.087 5.087 0 0 1-.992 1.28 4.74 4.74 0 0 1-1.312.876c-.485.219-.98.328-1.485.328-.541 0-.963-.138-1.265-.414-.297-.276-.446-.633-.446-1.07 0-.276.081-.555.242-.836.162-.276.459-.558.891-.844.193-.13.432-.263.719-.398.281-.141.58-.282.898-.422.318-.141.649-.269.992-.383.344-.12.675-.227.993-.32-.032-.276-.14-.5-.328-.672-.188-.172-.461-.258-.82-.258-.152 0-.295.018-.43.055a1.081 1.081 0 0 0-.329.125l-.617-.899Zm-.39 5.296c.286 0 .575-.073.867-.219.286-.146.552-.333.797-.562a3.89 3.89 0 0 0 .64-.805 3.05 3.05 0 0 0 .383-.922c-.61.193-1.14.386-1.594.578a6.906 6.906 0 0 0-1.093.57c-.245.162-.404.31-.477.446a.88.88 0 0 0-.11.406.47.47 0 0 0 .157.367c.104.094.247.14.43.14Zm14.218-3.586c-.479 0-.882-.128-1.21-.383-.329-.255-.495-.643-.5-1.164 0-.15.015-.318.046-.5-.567.651-1.12 1.151-1.656 1.5-.536.35-1.11.521-1.719.516-.468 0-.83-.136-1.086-.407-.255-.27-.382-.661-.382-1.171 0-.396.078-.813.234-1.25.161-.438.38-.865.656-1.282a8.27 8.27 0 0 1 .961-1.187 8.295 8.295 0 0 1 1.14-.985 6.034 6.034 0 0 1 1.204-.671 3.028 3.028 0 0 1 1.18-.243c.406 0 .75.084 1.03.25.282.172.524.415.727.727l-1.101.586a1.012 1.012 0 0 0-.313-.258 1.055 1.055 0 0 0-.476-.11c-.245 0-.51.074-.797.22a5.059 5.059 0 0 0-.875.578 8.73 8.73 0 0 0-.852.804 8.529 8.529 0 0 0-.742.914 5.12 5.12 0 0 0-.523.907c-.13.291-.193.55-.188.773a.71.71 0 0 0 .125.438c.084.114.222.171.414.171.235 0 .526-.117.875-.351a6.454 6.454 0 0 0 1.07-.93 13.5 13.5 0 0 0 1.094-1.305c.365-.484.69-.984.977-1.5l1.156.532-.367.883a17.12 17.12 0 0 0-.398 1.015c-.115.323-.17.591-.165.805 0 .568.276.851.829.851.244 0 .513-.078.804-.234a5.48 5.48 0 0 0 .922-.656c.323-.281.659-.623 1.008-1.024a17.56 17.56 0 0 0 1.047-1.336l.86.813c-.397.52-.79 1.008-1.18 1.46-.396.449-.8.834-1.211 1.157a6.11 6.11 0 0 1-1.266.774 3.444 3.444 0 0 1-1.352.273Zm8.383-8.32c-.61 0-1.06-.151-1.351-.453a1.5 1.5 0 0 1-.438-1.079c0-.182.016-.32.047-.414.02-.052.042-.106.063-.164h1.054l-.031.11c-.02.104-.031.2-.031.289 0 .213.062.39.187.531.125.14.323.208.594.203.255 0 .484-.05.687-.148a2.12 2.12 0 0 0 .516-.344c.161-.151.305-.323.43-.516l.914.578c-.172.266-.386.5-.64.704a3.33 3.33 0 0 1-.813.492c-.334.14-.73.21-1.188.21Zm1.328 8.32c-.552 0-.984-.154-1.297-.46-.307-.308-.46-.714-.46-1.22 0-.161.015-.33.046-.508-.599.714-1.182 1.256-1.75 1.625-.573.37-1.12.553-1.64.547-.448 0-.8-.127-1.055-.382-.255-.256-.385-.628-.39-1.118 0-.192.018-.38.054-.562a5.43 5.43 0 0 1 .14-.594l1.759-4.46h1.343l-1.804 4.515c-.141.364-.211.635-.211.812 0 .203.05.35.148.438a.563.563 0 0 0 .383.14c.245 0 .568-.156.969-.468.4-.308.828-.732 1.28-1.274a15.86 15.86 0 0 0 1.345-1.875c.442-.713.828-1.476 1.156-2.289h1.36l-1.618 4.047c-.083.214-.14.404-.172.57a2.417 2.417 0 0 0-.047.438c0 .276.07.487.211.633.146.146.347.218.602.218.245 0 .513-.078.805-.234a5.05 5.05 0 0 0 .906-.656 11.09 11.09 0 0 0 1-1.024c.349-.4.703-.846 1.062-1.336l.867.813c-.395.52-.786 1.008-1.171 1.46a8.881 8.881 0 0 1-1.203 1.157 6.11 6.11 0 0 1-1.266.774 3.444 3.444 0 0 1-1.352.273Zm12.555-1.71c-.396.51-.841.924-1.336 1.241-.49.313-1.065.469-1.727.469-.51 0-.927-.146-1.25-.438-.317-.291-.476-.736-.476-1.335 0-.266.036-.542.11-.829.077-.291.163-.575.257-.851a5.756 5.756 0 0 1-2.305.5c-.203 0-.385-.01-.546-.031l-.407-.07L52.258 20H50.93l2.797-7.008h1.343l-1.18 2.93c.084.02.183.036.297.047a5.01 5.01 0 0 0 1.742-.172 6.56 6.56 0 0 0 1.258-.5l.915-2.305h1.343l-1.617 4.047c-.161.417-.242.753-.242 1.008 0 .286.07.497.21.633a.805.805 0 0 0 .571.203c.62 0 1.245-.432 1.875-1.297l.883.828Zm7.563 1.71c-.938 0-1.672-.234-2.204-.703-.526-.469-.789-1.08-.789-1.836 0-.62.12-1.216.36-1.79A5.25 5.25 0 0 1 67 14.289c.39-.437.826-.789 1.305-1.055a3.096 3.096 0 0 1 1.468-.406c.448 0 .831.136 1.149.406.318.266.479.633.484 1.102 0 .266-.041.518-.125.758-.078.24-.164.453-.258.64a2.215 2.215 0 0 1-.273.438l-.133.148-1.086-.351c.12-.14.227-.279.32-.414.084-.12.162-.255.235-.407.068-.15.102-.299.102-.445 0-.245-.06-.406-.18-.484a.82.82 0 0 0-.414-.125c-.266 0-.55.101-.852.304a4.099 4.099 0 0 0-.851.782c-.26.312-.48.664-.657 1.054a2.755 2.755 0 0 0-.265 1.141c0 .448.15.813.453 1.094.297.281.75.424 1.36.43 1.067 0 2.1-.28 3.1-.837 1.006-.552 1.923-1.356 2.75-2.414l.868.813a11.645 11.645 0 0 1-1.344 1.477 8.763 8.763 0 0 1-1.586 1.156 8.41 8.41 0 0 1-1.82.765 7.825 7.825 0 0 1-2.063.266Zm11.25 0c-.48 0-.883-.128-1.211-.383-.329-.255-.495-.643-.5-1.164 0-.15.015-.318.046-.5-.567.651-1.12 1.151-1.656 1.5-.536.35-1.11.521-1.719.516-.468 0-.83-.136-1.085-.407-.256-.27-.383-.661-.383-1.171 0-.396.078-.813.234-1.25.162-.438.38-.865.656-1.282a8.27 8.27 0 0 1 .961-1.187 8.295 8.295 0 0 1 1.14-.985 6.037 6.037 0 0 1 1.204-.671 3.028 3.028 0 0 1 1.18-.243c.406 0 .75.084 1.03.25.282.172.524.415.728.727l-1.102.586a1.012 1.012 0 0 0-.313-.258 1.055 1.055 0 0 0-.476-.11c-.245 0-.51.074-.797.22a5.059 5.059 0 0 0-.875.578 8.73 8.73 0 0 0-.852.804 8.529 8.529 0 0 0-.742.914 5.12 5.12 0 0 0-.523.907c-.13.291-.193.55-.188.773a.71.71 0 0 0 .125.438c.084.114.222.171.414.171.235 0 .526-.117.875-.351a6.458 6.458 0 0 0 1.07-.93c.37-.385.735-.82 1.094-1.305.365-.484.69-.984.977-1.5l1.156.532-.367.883a17.12 17.12 0 0 0-.398 1.015c-.115.323-.17.591-.164.805 0 .568.276.851.828.851.244 0 .513-.078.804-.234.287-.156.594-.375.922-.656.323-.281.66-.623 1.008-1.024.349-.4.698-.846 1.047-1.336l.86.813c-.397.52-.79 1.008-1.18 1.46-.396.449-.8.834-1.211 1.157a6.11 6.11 0 0 1-1.266.774 3.445 3.445 0 0 1-1.352.273Zm8.382-8.32c-.61 0-1.06-.151-1.351-.453a1.499 1.499 0 0 1-.438-1.079c0-.182.016-.32.047-.414a4.78 4.78 0 0 0 .063-.164h1.054a1.476 1.476 0 0 0-.063.398c0 .214.063.391.188.532.125.14.323.208.594.203.255 0 .484-.05.688-.148.203-.1.375-.214.515-.344.162-.151.305-.323.43-.516l.914.578c-.172.266-.385.5-.64.704a3.328 3.328 0 0 1-.813.492c-.334.14-.73.21-1.188.21Zm1.328 8.32c-.552 0-.984-.154-1.296-.46-.308-.308-.461-.714-.461-1.22 0-.161.015-.33.046-.508-.599.714-1.182 1.256-1.75 1.625-.572.37-1.12.553-1.64.547-.448 0-.8-.127-1.055-.382-.255-.256-.385-.628-.39-1.118 0-.192.018-.38.054-.562a5.43 5.43 0 0 1 .14-.594l1.759-4.46h1.343l-1.804 4.515c-.14.364-.211.635-.211.812 0 .203.05.35.148.438a.563.563 0 0 0 .383.14c.245 0 .568-.156.969-.468.4-.308.828-.732 1.281-1.274.453-.536.901-1.161 1.344-1.875.443-.713.828-1.476 1.156-2.289h1.36l-1.618 4.047c-.083.214-.14.404-.172.57a2.41 2.41 0 0 0-.046.438c0 .276.07.487.21.633.146.146.347.218.602.218.245 0 .513-.078.805-.234a5.05 5.05 0 0 0 .906-.656 11.09 11.09 0 0 0 1-1.024 20.64 20.64 0 0 0 1.062-1.336l.868.813c-.396.52-.787 1.008-1.172 1.46-.39.449-.792.834-1.203 1.157a6.03 6.03 0 0 1-1.266.774 3.444 3.444 0 0 1-1.352.273Zm5.157-7.133h1.343l-.906 2.29a14.2 14.2 0 0 1 .781-.845c.287-.28.584-.536.891-.765.302-.23.602-.417.898-.563.297-.146.576-.216.836-.21.344 0 .61.101.797.304.193.203.29.48.29.828 0 .13-.019.271-.055.422a4.967 4.967 0 0 1-.14.485c-.058.166-.12.33-.188.492l-.172.46a7.974 7.974 0 0 1 1.164-1.148c.375-.281.7-.422.976-.422.354 0 .646.136.875.407.229.27.344.731.344 1.382 0 .245-.008.493-.023.743-.016.244-.026.49-.032.734 0 .448.068.779.204.992.135.214.361.32.679.32.792 0 1.992-1.083 3.602-3.25l.867.813a32.439 32.439 0 0 1-1.219 1.531 9.165 9.165 0 0 1-1.148 1.149 5.31 5.31 0 0 1-1.149.734 2.92 2.92 0 0 1-1.226.25c-.641 0-1.12-.18-1.438-.54-.317-.364-.476-.898-.476-1.6 0-.308.013-.618.039-.93.026-.308.039-.584.039-.828 0-.214-.037-.36-.11-.438a.352.352 0 0 0-.273-.11c-.161 0-.388.139-.68.415a9.084 9.084 0 0 0-.93 1.054c-.322.428-.64.896-.953 1.407-.307.505-.562.987-.765 1.445h-1.344l1.984-4.96a.955.955 0 0 0 .094-.384c0-.234-.112-.351-.336-.351-.182 0-.445.12-.789.36-.344.239-.726.595-1.148 1.07a14.361 14.361 0 0 0-1.336 1.78A18.199 18.199 0 0 0 93.336 20h-1.328l2.797-7.008Zm17.461 7.133c-.48 0-.883-.128-1.211-.383-.328-.255-.495-.643-.5-1.164 0-.15.015-.318.047-.5-.568.651-1.12 1.151-1.657 1.5a3.044 3.044 0 0 1-1.718.516c-.469 0-.831-.136-1.086-.407-.256-.27-.383-.661-.383-1.171 0-.396.078-.813.234-1.25a6.24 6.24 0 0 1 .656-1.282 8.27 8.27 0 0 1 .961-1.187 8.315 8.315 0 0 1 1.141-.985 6.047 6.047 0 0 1 1.203-.671 3.031 3.031 0 0 1 1.18-.243c.406 0 .75.084 1.031.25.281.172.524.415.727.727l-1.102.586a1.006 1.006 0 0 0-.312-.258 1.057 1.057 0 0 0-.477-.11c-.245 0-.51.074-.797.22a5.082 5.082 0 0 0-.875.578c-.292.24-.575.507-.851.804a8.563 8.563 0 0 0-.743.914c-.218.308-.393.61-.523.907-.13.291-.193.55-.188.773a.71.71 0 0 0 .125.438c.084.114.222.171.414.171.235 0 .527-.117.876-.351a6.51 6.51 0 0 0 1.07-.93c.37-.385.734-.82 1.094-1.305.364-.484.69-.984.976-1.5l1.156.532-.367.883a17.12 17.12 0 0 0-.398 1.015c-.115.323-.17.591-.164.805 0 .568.276.851.828.851.245 0 .513-.078.805-.234a5.49 5.49 0 0 0 .921-.656c.323-.281.659-.623 1.008-1.024.349-.4.698-.846 1.047-1.336l.859.813a30.36 30.36 0 0 1-1.179 1.46c-.396.449-.8.834-1.211 1.157a6.11 6.11 0 0 1-1.266.774 3.443 3.443 0 0 1-1.351.273Zm-108.391 19c-.938 0-1.672-.234-2.203-.703-.526-.469-.79-1.08-.79-1.836 0-.62.12-1.216.36-1.79.24-.572.555-1.075.946-1.507.39-.437.825-.789 1.304-1.055a3.096 3.096 0 0 1 1.469-.406c.448 0 .83.136 1.148.406.318.266.48.633.485 1.102a2.3 2.3 0 0 1-.125.758c-.078.24-.164.453-.258.64a2.215 2.215 0 0 1-.274.438l-.132.148-1.086-.351c.12-.14.226-.279.32-.414.083-.12.162-.255.234-.407.068-.15.102-.299.102-.445 0-.245-.06-.406-.18-.484a.82.82 0 0 0-.414-.125c-.265 0-.55.101-.851.304a4.1 4.1 0 0 0-.852.782 4.62 4.62 0 0 0-.656 1.054 2.757 2.757 0 0 0-.266 1.141c0 .448.151.813.453 1.094.297.281.75.424 1.36.43 1.067 0 2.101-.28 3.101-.837 1.006-.552 1.922-1.356 2.75-2.414l.867.813a11.653 11.653 0 0 1-1.343 1.477 8.765 8.765 0 0 1-1.586 1.156 8.41 8.41 0 0 1-1.82.765 7.826 7.826 0 0 1-2.063.266Zm6.977-7.133h1.343l-.906 2.29c.234-.277.495-.558.781-.844a8.66 8.66 0 0 1 .89-.766 5.52 5.52 0 0 1 .9-.563c.296-.146.575-.216.835-.21.344 0 .61.101.797.304.193.203.29.48.29.828 0 .13-.019.271-.055.422a4.968 4.968 0 0 1-.141.484c-.057.167-.12.331-.188.493l-.171.46a7.974 7.974 0 0 1 1.164-1.148c.375-.281.7-.422.976-.422.354 0 .646.136.875.407.23.27.344.731.344 1.382 0 .245-.008.493-.023.743a17.5 17.5 0 0 0-.032.734c0 .448.068.779.203.992.136.214.362.32.68.32.792 0 1.992-1.083 3.602-3.25l.867.813a32.902 32.902 0 0 1-1.219 1.531 9.187 9.187 0 0 1-1.148 1.149 5.31 5.31 0 0 1-1.149.734c-.39.172-.8.255-1.226.25-.641 0-1.12-.18-1.438-.54-.318-.364-.476-.898-.476-1.6 0-.308.013-.618.039-.93.026-.308.039-.584.039-.828 0-.214-.037-.36-.11-.438a.355.355 0 0 0-.273-.11c-.162 0-.388.139-.68.415a9.046 9.046 0 0 0-.93 1.054c-.322.427-.64.896-.953 1.407-.307.505-.562.987-.765 1.445H12.25l1.984-4.96a.955.955 0 0 0 .094-.384c0-.234-.112-.351-.336-.351-.182 0-.445.12-.789.36-.344.239-.726.595-1.148 1.07a14.361 14.361 0 0 0-1.336 1.78A18.198 18.198 0 0 0 9.383 39H8.055l2.797-7.008Zm12.695 7.133c-.49 0-.867-.135-1.133-.406s-.401-.68-.406-1.227c0-.265.055-.562.164-.89.104-.329.226-.664.367-1.008l1.422-3.602h1.36l-1.805 4.516c-.141.344-.211.614-.211.812 0 .203.05.35.148.438a.541.541 0 0 0 .367.14c.224 0 .534-.143.93-.43.396-.28.815-.676 1.258-1.187.448-.51.898-1.13 1.351-1.86a15.79 15.79 0 0 0 1.227-2.429h1.344l-2.61 6.578c.427-.172.87-.377 1.328-.617.459-.24.912-.52 1.36-.844a11.409 11.409 0 0 0 2.515-2.46l.86.812a13.49 13.49 0 0 1-1.43 1.602c-.495.468-1.018.885-1.57 1.25-.547.364-1.125.684-1.735.96-.609.276-1.247.526-1.914.75-.51 1.26-1.096 2.19-1.757 2.79-.657.604-1.362.906-2.118.906-.51 0-.896-.128-1.156-.383-.255-.255-.383-.607-.383-1.055 0-.458.125-.836.375-1.133.25-.291.581-.546.992-.765.412-.219.886-.42 1.422-.602a23.289 23.289 0 0 0 1.649-.64l.781-1.946c-.588.724-1.128 1.227-1.617 1.508-.49.281-.948.422-1.375.422Zm-.5 3.57c.344 0 .706-.185 1.086-.554.38-.37.75-.953 1.11-1.75-.277.13-.584.25-.923.359-.338.115-.729.29-1.172.523-.416.214-.625.54-.625.977 0 .13.047.237.141.32a.555.555 0 0 0 .383.125Zm9.86-3.57c-.47 0-.852-.138-1.15-.414-.29-.276-.437-.664-.437-1.164 0-.386.084-.794.25-1.227.167-.432.388-.86.664-1.28a8.69 8.69 0 0 1 .961-1.212c.37-.385.755-.721 1.157-1.008.4-.286.81-.515 1.226-.687a2.99 2.99 0 0 1 1.18-.25c.406 0 .75.096 1.031.289.281.193.518.427.711.703l-1.102.586a1.012 1.012 0 0 0-.312-.258 1.074 1.074 0 0 0-.484-.11c-.235 0-.498.074-.79.22a4.823 4.823 0 0 0-.867.578c-.291.24-.578.51-.86.812-.275.302-.523.61-.741.922a5.11 5.11 0 0 0-.524.906c-.13.292-.192.544-.187.758 0 .182.041.328.125.438.083.114.221.171.414.171.234 0 .523-.117.867-.351a6.85 6.85 0 0 0 1.07-.93c.375-.385.743-.82 1.102-1.304.364-.485.69-.985.977-1.5l1.14.53-1.695 4.243c.427-.172.872-.378 1.336-.617.463-.24.919-.524 1.367-.852.448-.323.885-.69 1.312-1.101.427-.412.826-.868 1.196-1.368l.867.813a11.877 11.877 0 0 1-3 2.852 12.38 12.38 0 0 1-1.727.96c-.604.276-1.242.526-1.914.75-.52 1.26-1.112 2.188-1.773 2.782-.662.599-1.378.898-2.149.898-.479 0-.846-.12-1.101-.36-.255-.239-.383-.567-.383-.984 0-.479.122-.87.367-1.172.245-.302.57-.567.977-.796a8.907 8.907 0 0 1 1.406-.61c.531-.182 1.086-.39 1.664-.625l.688-1.742c-.48.568-.956.995-1.43 1.281-.474.287-.95.43-1.43.43Zm-.454 3.477c.318 0 .662-.177 1.031-.532.37-.354.724-.914 1.063-1.68-.255.12-.529.23-.82.329a7.907 7.907 0 0 0-.82.328c-.376.182-.631.362-.766.539a.905.905 0 0 0-.196.586c0 .13.047.232.14.305a.532.532 0 0 0 .368.125Zm15.25-4.704c.297 0 .607-.114.93-.343.317-.23.627-.552.93-.97l.874.83c-.395.51-.835.924-1.32 1.241-.484.313-1.062.469-1.734.469-.552 0-.98-.154-1.281-.46-.297-.308-.446-.715-.446-1.22 0-.161.016-.33.047-.508-.599.714-1.182 1.256-1.75 1.626-.573.37-1.12.552-1.64.546-.448 0-.8-.127-1.055-.382-.255-.256-.386-.628-.39-1.118 0-.192.017-.38.054-.562a5.43 5.43 0 0 1 .14-.594l1.758-4.46h1.344l-1.805 4.515c-.14.364-.21.635-.21.812 0 .203.049.35.148.438a.562.562 0 0 0 .383.14c.245 0 .567-.156.968-.468.401-.308.829-.732 1.282-1.274.453-.536.9-1.161 1.343-1.875.443-.713.829-1.476 1.157-2.289h1.36l-1.618 4.047c-.083.214-.14.404-.172.57a2.418 2.418 0 0 0-.047.438c0 .568.25.851.75.851Zm13.18-.484a5.14 5.14 0 0 1-1.32 1.242c-.495.313-1.079.469-1.75.469a2.11 2.11 0 0 1-.626-.094 1.701 1.701 0 0 1-.546-.281 1.535 1.535 0 0 1-.383-.484 1.482 1.482 0 0 1-.14-.657c0-.244.028-.505.085-.78.063-.282.13-.545.203-.79-.343.224-.68.396-1.008.516a7.411 7.411 0 0 1-.757 1 5.1 5.1 0 0 1-.922.82c-.334.234-.698.42-1.094.555-.39.13-.815.195-1.273.195-.579 0-1.034-.167-1.368-.5-.338-.339-.507-.794-.507-1.367 0-.183.015-.339.046-.469.01-.073.026-.14.047-.203h1.203l-.03.156a1.951 1.951 0 0 0-.031.352c-.001.245.064.44.194.586.136.145.336.218.602.218.51 0 .963-.127 1.36-.382a4.49 4.49 0 0 0 1.038-.946c-1.281-.093-1.919-.687-1.914-1.78 0-.386.076-.754.227-1.102a3.18 3.18 0 0 1 .617-.93 2.84 2.84 0 0 1 .883-.625 2.49 2.49 0 0 1 1.054-.235c.49 0 .87.167 1.141.5.276.329.414.784.414 1.368 0 .213-.034.442-.101.687a7.204 7.204 0 0 1-.235.742 4.1 4.1 0 0 0 1.149-1.367l1.14.516a94.39 94.39 0 0 1-.304.718c-.11.256-.211.508-.305.758a8.036 8.036 0 0 0-.219.696 2.204 2.204 0 0 0-.086.53c0 .298.073.511.219.642.151.13.339.195.562.195.6 0 1.22-.433 1.86-1.297l.875.828Zm-6.797-1.648c.234-.032.448-.1.64-.203.152-.277.28-.558.383-.844.105-.292.157-.55.157-.774 0-.307-.047-.544-.141-.71-.094-.167-.247-.25-.46-.25-.183 0-.36.046-.532.14-.172.089-.33.214-.477.375a1.89 1.89 0 0 0-.343.563 1.981 1.981 0 0 0-.126.71c0 .276.076.506.227.688.151.182.375.284.672.305Zm18.539 3.359c-.531 0-.958-.164-1.281-.492-.318-.328-.477-.813-.477-1.453 0-.276.034-.565.102-.867.068-.297.153-.602.258-.915.099-.307.213-.62.343-.937.13-.313.258-.628.383-.945a5.392 5.392 0 0 1-1.586.617c-.51.104-.979.159-1.406.164-.344 0-.63-.016-.86-.047a4.908 4.908 0 0 1-.562-.102L65.586 39h-1.328l4.476-11.203h1.352l-2.102 5.234a6.574 6.574 0 0 0 1.156.094 6.27 6.27 0 0 0 1.75-.273 5.152 5.152 0 0 0 1.657-.829l1.68-4.226h1.359l-3.297 8.242c-.151.375-.227.695-.227.961 0 .286.084.508.25.664.167.156.394.234.68.234.245 0 .518-.078.82-.234a5.16 5.16 0 0 0 .938-.656c.323-.281.664-.623 1.023-1.024.36-.4.714-.846 1.063-1.336l.86.813c-.397.52-.792 1.008-1.188 1.46a9.32 9.32 0 0 1-1.227 1.157c-.416.323-.844.58-1.281.774a3.54 3.54 0 0 1-1.375.273Zm5.695 0a2.17 2.17 0 0 1-.898-.172 1.864 1.864 0 0 1-.64-.484 2.099 2.099 0 0 1-.391-.711 2.775 2.775 0 0 1-.133-.867c0-.589.104-1.18.312-1.774a5.817 5.817 0 0 1 .852-1.601c.365-.48.784-.873 1.258-1.18a2.785 2.785 0 0 1 1.523-.453c.672 0 1.188.216 1.547.648.36.433.54 1 .54 1.703 0 .235-.03.48-.087.735-.052.255-.12.505-.203.75.276.297.659.448 1.148.453a2.99 2.99 0 0 0 1.438-.344c.422-.224.838-.617 1.25-1.18l.867.813c-.469.62-1.005 1.099-1.61 1.437-.603.339-1.32.506-2.148.5a2.61 2.61 0 0 1-.86-.132 2.323 2.323 0 0 1-.663-.36c-.182.308-.39.597-.625.867a4.933 4.933 0 0 1-.742.704 3.67 3.67 0 0 1-.828.476 2.498 2.498 0 0 1-.907.172Zm1.727-6.031c-.318 0-.628.114-.93.343-.297.23-.562.521-.797.876a5.308 5.308 0 0 0-.57 1.14c-.146.412-.219.8-.219 1.164 0 .354.073.656.219.906.146.25.388.375.727.375.296 0 .599-.112.906-.336a3.54 3.54 0 0 0 .812-.859 5.18 5.18 0 0 0 .586-1.133 3.42 3.42 0 0 0 .227-1.18c0-.395-.08-.71-.242-.945-.162-.234-.401-.351-.72-.351Zm11.672 4.304c-.214 0-.412-.023-.594-.07a2.854 2.854 0 0 1-.492-.172 6.462 6.462 0 0 1-.61.758 4.493 4.493 0 0 1-.742.625 4.1 4.1 0 0 1-.836.43 2.722 2.722 0 0 1-.922.156c-.406 0-.75-.063-1.03-.188a2.006 2.006 0 0 1-.696-.515 1.996 1.996 0 0 1-.399-.758 3.4 3.4 0 0 1-.125-.937c0-.245.055-.586.165-1.024.114-.437.265-.922.453-1.453a29.62 29.62 0 0 1 1.461-3.375 8.733 8.733 0 0 1 .93-1.5 7.877 7.877 0 0 1 1.14-1.203c.4-.344.82-.612 1.258-.805a3.226 3.226 0 0 1 1.312-.289c.459 0 .839.149 1.14.445.308.292.462.693.462 1.204a3.07 3.07 0 0 1-.547 1.765 5.877 5.877 0 0 1-1.422 1.43 9.49 9.49 0 0 1-1.984 1.094c-.74.307-1.482.557-2.227.75l-.492 1.218a4.566 4.566 0 0 0-.305.899c-.047.255-.07.5-.07.734 0 .417.104.735.312.953.209.22.49.328.844.328.375 0 .724-.13 1.047-.39.328-.266.61-.589.844-.969a2.262 2.262 0 0 1-.649-.727 1.927 1.927 0 0 1-.234-.937c0-.214.029-.42.086-.617.057-.198.146-.37.266-.516.12-.15.273-.268.46-.351a1.59 1.59 0 0 1 .672-.133c.365 0 .672.13.922.39s.375.63.375 1.11a3.327 3.327 0 0 1-.29 1.328c.105.031.217.055.337.07.12.01.245.016.375.016.589 0 1.128-.133 1.617-.399.49-.27.91-.645 1.258-1.125l.867.813a5.146 5.146 0 0 1-1.672 1.43c-.645.338-1.4.507-2.265.507Zm-2.516-7.18a9.15 9.15 0 0 0-.648 1.055c-.183.36-.365.743-.547 1.149.65-.214 1.24-.458 1.765-.734.532-.276.985-.57 1.36-.883.38-.318.674-.64.883-.97.208-.332.312-.658.312-.976 0-.213-.057-.375-.172-.484a.576.576 0 0 0-.437-.172c-.344 0-.735.175-1.172.524-.438.343-.885.84-1.344 1.492Zm.867 4.188a.26.26 0 0 0-.21.11.437.437 0 0 0-.079.273c0 .328.143.576.43.742l.094-.36a1.26 1.26 0 0 0 .054-.35c0-.277-.096-.415-.289-.415Zm10.008 4.719c-.479 0-.883-.128-1.21-.383-.329-.255-.496-.643-.5-1.164 0-.15.015-.318.046-.5-.568.651-1.12 1.151-1.656 1.5-.537.35-1.11.521-1.719.516-.469 0-.83-.136-1.086-.407-.255-.27-.383-.661-.383-1.171 0-.396.078-.813.235-1.25.161-.438.38-.865.656-1.282.276-.416.596-.812.96-1.187a8.3 8.3 0 0 1 1.141-.984 6.037 6.037 0 0 1 1.204-.672 3.028 3.028 0 0 1 1.18-.243c.406 0 .75.084 1.03.25a2.3 2.3 0 0 1 .727.727l-1.101.586a1.013 1.013 0 0 0-.313-.258 1.056 1.056 0 0 0-.477-.11c-.244 0-.51.074-.796.22a5.063 5.063 0 0 0-.875.578 8.73 8.73 0 0 0-.852.804 8.504 8.504 0 0 0-.742.914 5.18 5.18 0 0 0-.524.907c-.13.291-.192.55-.187.773a.71.71 0 0 0 .125.438c.083.114.221.171.414.171.234 0 .526-.117.875-.351a6.454 6.454 0 0 0 1.07-.93 13.5 13.5 0 0 0 1.094-1.304c.365-.485.69-.985.977-1.5l1.156.53-.367.884c-.151.354-.284.692-.399 1.015-.114.323-.169.591-.164.805 0 .568.276.851.828.851.287 0 .591-.114.914-.343.318-.23.633-.552.946-.97l.867.83a5.08 5.08 0 0 1-1.328 1.241c-.505.313-1.094.469-1.766.469Zm13.539-1.71c-.385.51-.825.924-1.32 1.241-.495.313-1.078.469-1.75.469-.214 0-.422-.031-.625-.094a1.698 1.698 0 0 1-.547-.281 1.538 1.538 0 0 1-.383-.484 1.477 1.477 0 0 1-.14-.657c0-.244.028-.505.086-.78.062-.282.13-.545.203-.79a5.02 5.02 0 0 1-1.008.516 7.446 7.446 0 0 1-.758 1 5.084 5.084 0 0 1-.922.82c-.333.234-.698.42-1.094.555a4 4 0 0 1-1.273.195c-.578 0-1.034-.167-1.367-.5-.339-.339-.508-.794-.508-1.367 0-.183.016-.339.047-.469.01-.073.026-.14.047-.203h1.203a8.629 8.629 0 0 0-.031.156 2.062 2.062 0 0 0-.032.352c0 .245.065.44.196.586.135.145.336.218.601.218.511 0 .964-.127 1.36-.382.395-.26.742-.576 1.039-.946-1.282-.093-1.92-.687-1.914-1.78 0-.386.075-.754.226-1.102a3.18 3.18 0 0 1 .617-.93c.256-.266.55-.474.883-.625.339-.156.69-.235 1.055-.235.489 0 .87.167 1.14.5.276.329.414.784.414 1.368 0 .213-.033.442-.101.687a7.467 7.467 0 0 1-.234.742 4.11 4.11 0 0 0 1.148-1.367l1.141.516c-.094.224-.196.463-.305.718-.109.256-.211.508-.305.758a8.123 8.123 0 0 0-.218.696 2.17 2.17 0 0 0-.086.53c0 .298.072.511.218.642.151.13.339.195.563.195.599 0 1.219-.433 1.859-1.297l.875.828Zm-6.797-1.65c.235-.03.448-.098.641-.203.151-.276.279-.557.383-.843.104-.292.156-.55.156-.774 0-.307-.047-.544-.141-.71-.093-.167-.247-.25-.461-.25-.182 0-.359.046-.531.14a1.665 1.665 0 0 0-.476.375 1.875 1.875 0 0 0-.344.563 1.988 1.988 0 0 0-.125.71c0 .276.075.506.226.688.151.182.375.284.672.305Zm16.844.352c-.781 1.047-1.521 1.81-2.219 2.29-.698.478-1.328.718-1.89.718-.532 0-.946-.146-1.243-.438-.291-.291-.437-.726-.437-1.304 0-.245.031-.5.094-.766.062-.265.138-.505.226-.719l3.274-8.101h1.328l-3.391 8.5a3.345 3.345 0 0 0-.179.508 1.897 1.897 0 0 0-.055.453c0 .427.195.64.586.64a1.3 1.3 0 0 0 .406-.086c.162-.052.346-.153.555-.304.213-.156.455-.37.726-.64a11.6 11.6 0 0 0 .922-1.071 31.33 31.33 0 0 0 1.133-1.594 41.76 41.76 0 0 0 1.266-2.055 41.17 41.17 0 0 0 1.218-2.218c.386-.756.711-1.466.977-2.133h1.344l-3.282 8.242a4.115 4.115 0 0 0-.179.516 1.99 1.99 0 0 0-.063.445c0 .286.084.508.25.664.167.156.393.234.68.234.245 0 .518-.078.82-.234.297-.156.607-.375.93-.656.323-.281.664-.623 1.023-1.024.355-.4.711-.846 1.071-1.336l.859.813c-.396.52-.792 1.008-1.187 1.46-.401.449-.81.834-1.227 1.157-.417.323-.844.58-1.281.774a3.325 3.325 0 0 1-1.36.273c-.375 0-.685-.05-.929-.148a1.615 1.615 0 0 1-.586-.383 1.27 1.27 0 0 1-.313-.532 2.33 2.33 0 0 1-.093-.585c0-.204.018-.42.054-.649a3.79 3.79 0 0 1 .172-.71Zm6.274 3.008c-.469 0-.852-.138-1.149-.414-.292-.276-.437-.664-.437-1.164 0-.386.083-.794.25-1.227.166-.432.388-.86.664-1.28.276-.423.596-.826.961-1.212a8.218 8.218 0 0 1 1.156-1.008 6.16 6.16 0 0 1 1.226-.687 2.99 2.99 0 0 1 1.18-.25c.406 0 .75.096 1.031.289.282.193.519.427.711.703l-1.101.586a1.022 1.022 0 0 0-.313-.258 1.072 1.072 0 0 0-.484-.11c-.235 0-.498.074-.789.22a4.78 4.78 0 0 0-.867.578 8.812 8.812 0 0 0-1.602 1.734c-.219.307-.393.61-.523.906-.131.292-.193.544-.188.758a.71.71 0 0 0 .125.438c.083.114.221.171.414.171.235 0 .524-.117.867-.351a6.904 6.904 0 0 0 1.071-.93c.375-.385.742-.82 1.101-1.304.365-.485.69-.985.977-1.5l1.14.53-1.695 4.243c.427-.172.872-.378 1.336-.617.464-.24.919-.524 1.367-.852.448-.323.886-.69 1.313-1.101.427-.412.825-.868 1.195-1.368l.867.813a11.882 11.882 0 0 1-3 2.852c-.547.364-1.122.684-1.726.96a19.39 19.39 0 0 1-1.914.75c-.521 1.26-1.112 2.188-1.774 2.782-.661.599-1.377.898-2.148.898-.479 0-.847-.12-1.102-.36-.255-.239-.383-.567-.383-.984 0-.479.123-.87.367-1.172a3.37 3.37 0 0 1 .977-.796 8.903 8.903 0 0 1 1.406-.61 32.2 32.2 0 0 0 1.664-.625l.688-1.742c-.479.568-.956.995-1.43 1.281-.474.287-.95.43-1.429.43Zm-.454 3.477c.318 0 .662-.177 1.032-.532.369-.354.724-.914 1.062-1.68-.255.12-.529.23-.82.329a7.846 7.846 0 0 0-.82.328c-.376.182-.631.362-.766.539a.897.897 0 0 0-.195.586c0 .13.046.232.14.305a.532.532 0 0 0 .367.125Zm11.797-3.477c-.969 0-1.708-.237-2.219-.71-.505-.475-.757-1.095-.757-1.86 0-.62.119-1.216.359-1.79.24-.572.552-1.072.938-1.5a4.674 4.674 0 0 1 1.296-1.03 3.124 3.124 0 0 1 1.469-.383c.511 0 .938.143 1.281.43.344.286.513.643.508 1.07 0 .354-.107.703-.32 1.046a3.373 3.373 0 0 1-.875.938 4.84 4.84 0 0 1-1.32.672 5.12 5.12 0 0 1-1.657.258c-.14 0-.263-.01-.367-.032a.794.794 0 0 0-.039.196v.187c0 .255.055.466.164.633.104.167.242.297.414.39.172.094.362.162.571.204a4.115 4.115 0 0 0 1.664-.07c.323-.079.622-.183.898-.313.271-.13.508-.27.711-.422a3.27 3.27 0 0 0 .492-.453l.883.828c-.385.469-.927.872-1.625 1.211-.698.333-1.521.5-2.469.5Zm-1.125-4c.427 0 .815-.044 1.164-.133a3.09 3.09 0 0 0 .875-.351c.24-.146.425-.31.555-.493a.928.928 0 0 0 .195-.539c0-.364-.213-.547-.64-.547a1.58 1.58 0 0 0-.672.165c-.235.104-.461.25-.68.437a4.388 4.388 0 0 0-.617.656c-.193.25-.354.519-.484.805h.304Zm12.61 4c-.224 0-.438-.031-.641-.094a1.61 1.61 0 0 1-.539-.281 1.62 1.62 0 0 1-.375-.477 1.465 1.465 0 0 1-.141-.664c0-.244.029-.497.086-.757.063-.266.125-.537.188-.813a5.02 5.02 0 0 1-1.008.516 6.546 6.546 0 0 1-.734.992 4.823 4.823 0 0 1-.914.805 4.61 4.61 0 0 1-1.11.554 4.002 4.002 0 0 1-1.289.203c-.578 0-1.034-.164-1.367-.492-.339-.333-.508-.786-.508-1.36 0-.181.016-.338.047-.468.01-.073.026-.14.047-.203h1.187l-.031.156a.91.91 0 0 0-.016.172v.18c0 .245.068.44.204.586.14.145.338.218.593.218.511 0 .964-.127 1.36-.382.396-.26.742-.576 1.039-.946-.63-.041-1.107-.216-1.43-.523-.323-.313-.484-.732-.484-1.258 0-.385.075-.753.226-1.102.156-.354.362-.661.617-.921a3.07 3.07 0 0 1 .875-.625 2.346 2.346 0 0 1 1.032-.243c.5 0 .888.162 1.164.485.281.317.422.778.422 1.383 0 .213-.034.442-.102.687-.062.245-.135.492-.219.742a3.65 3.65 0 0 0 .625-.617c.188-.229.357-.479.508-.75l1.141.516c-.094.234-.198.481-.313.742a10.346 10.346 0 0 0-.515 1.46 1.965 1.965 0 0 0-.086.5c0 .277.07.488.211.634.145.145.346.218.601.218.245 0 .511-.078.797-.234.292-.156.599-.375.922-.656a9.455 9.455 0 0 0 1.008-1.024 22.78 22.78 0 0 0 1.07-1.336l.859.813a27.02 27.02 0 0 1-1.187 1.46 9.35 9.35 0 0 1-1.203 1.165 5.797 5.797 0 0 1-1.266.766 3.443 3.443 0 0 1-1.351.273Zm-3.883-3.484a3.126 3.126 0 0 0 .781-.078 5.43 5.43 0 0 0 .398-.876c.11-.302.165-.57.165-.804 0-.276-.055-.495-.165-.656a.512.512 0 0 0-.46-.243 1.07 1.07 0 0 0-.516.141 1.683 1.683 0 0 0-.477.375c-.14.156-.257.344-.351.563a1.868 1.868 0 0 0-.133.71c0 .276.073.49.219.641a.72.72 0 0 0 .539.227Z" fill="#000"/><g clip-path="url(#a)" fill="#231F20"><path d="M213.606 27.408a1.825 1.825 0 0 0-1.29 3.113c.342.342.806.534 1.29.534a1.733 1.733 0 0 0 1.263-.51 1.742 1.742 0 0 0 .507-1.265 1.765 1.765 0 0 0-1.77-1.872Zm-18.547 7.332c-1.203 0-1.871.769-1.871 2.168v3.27h3.71v-3.482c-.106-1.219-.784-1.956-1.839-1.956Zm1.5-16.205c-1.15 0-1.924.875-1.924 2.173v.53h3.949v-.53c0-1.34-.779-2.173-2.025-2.173Zm7.278-2.734a1.626 1.626 0 0 0 1.622-1.622 1.597 1.597 0 0 0-.996-1.507 1.591 1.591 0 0 0-.626-.115 1.622 1.622 0 0 0-1.622 1.622 1.64 1.64 0 0 0 1.622 1.622Zm-7.432-3.991a1.825 1.825 0 0 0 1.727-1.1c.145-.336.185-.707.116-1.066a1.818 1.818 0 0 0-1.447-1.447 1.824 1.824 0 0 0-2.166 1.843 1.737 1.737 0 0 0 .507 1.263 1.743 1.743 0 0 0 1.263.507Z"/><path d="M219.362 0h-40.729A4.64 4.64 0 0 0 174 4.633v40.73A4.643 4.643 0 0 0 178.633 50h40.729A4.642 4.642 0 0 0 224 45.362V4.632A4.639 4.639 0 0 0 219.362 0Zm-15.525 10.601a3.604 3.604 0 0 1 2.12.684V7.33a.96.96 0 0 1 .244-.75.95.95 0 0 1 .726-.31.978.978 0 0 1 .97 1.06v15.005a.98.98 0 0 1-.234.728.97.97 0 0 1-.688.333 1.026 1.026 0 0 1-1.018-1.06v-5.349a3.604 3.604 0 0 1-2.12.684 3.535 3.535 0 1 1 0-7.07Zm-12.292 9.79a3.537 3.537 0 0 1-2.196 3.254 3.54 3.54 0 1 1 2.196-3.238v-.016Zm-10.861-13.06a.96.96 0 0 1 .244-.75.95.95 0 0 1 .726-.31.978.978 0 0 1 .97 1.06V10.4h4.341V7.33a.96.96 0 0 1 .244-.75.96.96 0 0 1 .726-.31.978.978 0 0 1 .97 1.06v7.331a.979.979 0 0 1-.234.728.97.97 0 0 1-.688.333 1.025 1.025 0 0 1-1.018-1.06v-2.423h-4.341v10.07a.98.98 0 0 1-.234.729.97.97 0 0 1-.688.332 1.025 1.025 0 0 1-1.018-1.06V7.33Zm8.221 34.199a.979.979 0 0 1-.234.728.97.97 0 0 1-.688.332 1.025 1.025 0 0 1-1.018-1.06v-7.14l-4.341 4.389v2.75a.979.979 0 0 1-.234.729.97.97 0 0 1-.688.332 1.025 1.025 0 0 1-1.018-1.06V26.524a.96.96 0 0 1 .244-.75.95.95 0 0 1 .726-.31.978.978 0 0 1 .97 1.06v9.727l4.341-4.432v-5.3a.958.958 0 0 1 .574-.984.953.953 0 0 1 .396-.077.978.978 0 0 1 .97 1.06V41.53Zm11.412 1.744a.953.953 0 0 1-.281.689.96.96 0 0 1-.689.28.925.925 0 0 1-.908-.591.921.921 0 0 1-.062-.378v-1.172h-7.654a.985.985 0 0 1-.97-.97 1.02 1.02 0 0 1 .97-.97h.53v-3.27c0-2.613 1.357-4.108 3.711-4.108a3.475 3.475 0 0 1 1.918.53v-2.9c0-1.982-.736-3.069-2.072-3.069-1.145 0-1.68.89-1.929 1.644-.096.25-.287.452-.531.561a.937.937 0 0 1-.773-.031c-.403-.18-.795-.594-.419-1.532a3.834 3.834 0 0 1 3.71-2.534c2.407 0 3.96 1.792 3.96 4.559v10.15h.53a.926.926 0 0 1 .97.97l-.011 2.142Zm.202-20.985a.825.825 0 0 1-.529.817.823.823 0 0 1-.341.052h-6.233a.69.69 0 0 1-.674-.44.687.687 0 0 1-.047-.28V10.022a3.772 3.772 0 0 1 3.71-3.81 3.768 3.768 0 0 1 2.942 1.46 3.763 3.763 0 0 1-4.712 5.642v3.827a3.509 3.509 0 0 1 2.02-.562c2.422 0 3.864 1.537 3.864 4.113v1.596Zm8.157 17.778a3.757 3.757 0 0 1-3.647 2.533c-2.406 0-3.959-1.791-3.959-4.563V26.625a.9.9 0 0 1 .265-.657.908.908 0 0 1 .657-.266h5.036a.995.995 0 0 1 .752.334.806.806 0 0 1 .212.663.988.988 0 0 1-.927.986h-4.039v5.587h2.92a.924.924 0 0 1 .923.922.925.925 0 0 1-.57.852.922.922 0 0 1-.353.07h-2.92v2.566c0 2.263 1.145 3.069 2.12 3.069a2.18 2.18 0 0 0 1.982-1.638c.103-.238.292-.428.53-.53a.809.809 0 0 1 .663 0c.816.344.482 1.182.334 1.5l.021-.016Zm8.64 1.362c0 .732-.345 1.171-.917 1.171a1.002 1.002 0 0 1-.767-.328 1.005 1.005 0 0 1-.256-.795v-2.232c-.09-1.203-.843-1.982-1.919-1.982-1.245 0-2.025.832-2.025 2.173v1.945c0 .737-.36 1.22-.917 1.22-.466 0-1.023-.213-1.023-1.22v-1.945c0-2.576 1.447-4.113 3.865-4.113a3.599 3.599 0 0 1 2.019.567v-3.392a3.403 3.403 0 0 1-1.77.482 3.769 3.769 0 0 1-3.811-3.71 3.718 3.718 0 0 1 1.085-2.726 3.71 3.71 0 0 1 2.726-1.086 3.77 3.77 0 0 1 3.71 3.812v12.16Zm0-19.294c0 .737-.345 1.172-.917 1.172a1.01 1.01 0 0 1-1.023-1.119v-1.993c0-1.299-.769-2.173-1.919-2.173-1.245 0-2.025.832-2.025 2.173v1.892c0 .742-.36 1.22-.917 1.22-.466 0-1.023-.213-1.023-1.22v-1.892c0-2.576 1.447-4.113 3.865-4.113a3.599 3.599 0 0 1 2.019.567v-3.393a3.45 3.45 0 0 1-1.77.478 3.765 3.765 0 0 1-2.714-6.425 3.762 3.762 0 0 1 5.812.604 3.77 3.77 0 0 1 .612 2.11v12.112Z"/><path d="M186.361 20.407a1.64 1.64 0 0 0 1.622 1.622 1.625 1.625 0 0 0 1.622-1.622 1.596 1.596 0 0 0-.996-1.507 1.595 1.595 0 0 0-.626-.114 1.622 1.622 0 0 0-1.622 1.621Zm27.245-12.238a1.826 1.826 0 0 0-1.774 1.1 1.84 1.84 0 0 0 0 1.44 1.838 1.838 0 0 0 1.046.992 1.825 1.825 0 0 0 1.953-2.966 1.822 1.822 0 0 0-1.225-.566Z"/></g><defs><clipPath id="a"><path fill="#fff" transform="translate(174)" d="M0 0h50v50H0z"/></clipPath></defs></svg>