<svg width="99" height="66" fill="none" xmlns="http://www.w3.org/2000/svg"><path d="M88.185 9.33C65.97-5.366 33.651-1.757 13.213 13.63c-16.02 9.155-14.59 26.267-10.51 34.54 5.304 11.659 18.98 19.535 32.335 17.51 13.768-2.058 27.656-3.56 41.343-5.933 23.663-5.138 30.67-35.89 11.804-50.417ZM66.828 47.778a9.418 9.418 0 0 1-5.135 1.677 5.155 5.155 0 0 1-3.922-1.187 5.08 5.08 0 0 1-1.529-3.598 9.308 9.308 0 0 1 .066-1.535 24.81 24.81 0 0 1-5.01 5.155 8.973 8.973 0 0 1-4.842 1.9 4.3 4.3 0 0 1-3.231-.991 4.601 4.601 0 0 1-1.338-3.217c-.463.495-.925.969-1.387 1.404a17.549 17.549 0 0 1-3.45 2.504 8.94 8.94 0 0 1-3.715 1.018 6.217 6.217 0 0 1-4.716-1.524c-1.219-1.132-2.265-3.04-3.139-5.726L23.5 37.59a43.307 43.307 0 0 0-6.055 6.83 31.804 31.804 0 0 0-2.295 3.811 15.844 15.844 0 0 0-1.387 3.723l-3.45-1.59a19.07 19.07 0 0 1 1.551-4.18 33.01 33.01 0 0 1 2.606-4.277 46.817 46.817 0 0 1 3.503-4.202 46.247 46.247 0 0 1 4.2-3.963L16.782 17.61l3.895-.202 4.515 13.71a44.657 44.657 0 0 0 3.313-3.265 37.448 37.448 0 0 0 3.035-3.712 33.943 33.943 0 0 0 2.41-3.935 16.244 16.244 0 0 0 1.447-3.914l3.427 1.633a19.06 19.06 0 0 1-1.594 4.295 30.949 30.949 0 0 1-2.72 4.354 44.755 44.755 0 0 1-3.64 4.31 53.375 53.375 0 0 1-4.384 4.088l2.4 7.316c.273.827.598 1.635.973 2.422.247.561.575 1.084.974 1.55.323.366.744.63 1.213.763.477.139.973.201 1.469.185 1.566-.084 3.251-1.049 5.053-2.896a49.307 49.307 0 0 0 5.37-6.836l2.942-8.758 4.037-.206-4.727 13.852a7.805 7.805 0 0 0-.512 2.476 1.71 1.71 0 0 0 .544 1.296c.331.262.749.39 1.17.359.734-.033 1.68-.544 2.84-1.557a25.08 25.08 0 0 0 3.655-4.022 48.133 48.133 0 0 0 3.748-5.846 45.668 45.668 0 0 0 3.123-7.075l4.08-.207-4.233 12.41a9.583 9.583 0 0 0-.43 1.741 7.41 7.41 0 0 0-.076 1.323c.087 1.709.887 2.525 2.388 2.444a4.851 4.851 0 0 0 2.72-1.176 12.962 12.962 0 0 0 2.644-3.054l2.753 2.357a16.41 16.41 0 0 1-3.787 3.946h.011Zm8.856.077a2.877 2.877 0 0 1-2.067.99 1.796 1.796 0 0 1-1.327-.403 1.68 1.68 0 0 1-.544-1.224 2.722 2.722 0 0 1 .794-2.014 2.914 2.914 0 0 1 2.046-.98 1.79 1.79 0 0 1 1.327.414 1.633 1.633 0 0 1 .544 1.186 2.783 2.783 0 0 1-.783 2.03h.01Zm2.367-7.528-4.037.207 9.009-26.316 3.987-.207-8.96 26.316Z" fill="#1A1A1A"/></svg>