<svg width="90" height="73" fill="none" xmlns="http://www.w3.org/2000/svg"><path d="m8.043 28.287 7.04-9.69 8.394 9.69h2.887l-9.962-11.484L26.857 2.346H19.33l-7.03 9.726-8.44-9.726H1.01l9.987 11.533L.517 28.287h7.526Zm58.812-1.563c5.826 4.669 14.206 3.8 19.152-2.428l.875-1.1c4.855-6.115 3.894-14.607-1.921-19.273C79.145-.743 70.713.233 65.859 6.346l-.873 1.1c-4.953 6.23-3.915 14.643 1.87 19.278Zm2.994-15.002 1.24-1.565C75.372 4.768 81.366 2.27 84.365 4.68c2.998 2.41 1.936 8.852-2.337 14.24l-1.24 1.565c-4.303 5.417-10.297 7.916-13.327 5.477-3.03-2.438-1.913-8.828 2.389-14.24ZM15.603 40.647h-.018v-4.334h-2.14v4.334h-.018A13.418 13.418 0 0 0 4.04 44.67a13.543 13.543 0 0 0-3.873 9.486c0 3.551 1.391 6.959 3.873 9.487a13.418 13.418 0 0 0 9.388 4.022h.018v4.338h2.14v-4.338h.018a13.418 13.418 0 0 0 9.388-4.022 13.543 13.543 0 0 0 3.873-9.487c0-3.55-1.392-6.958-3.873-9.486a13.418 13.418 0 0 0-9.388-4.023Zm-2.158 20.519C5.961 61.022.958 57.94.958 54.213c0-3.835 5.241-6.92 12.487-7.066v14.019Zm2.14 0v-14.02c7.18.15 12.487 3.23 12.487 6.954 0 3.83-5.577 6.912-12.487 7.066ZM44.69 41.203l-6.916 18.99c-1.316 3.45-1.95 4.186-3.305 4.536.02-.149.041-.305.041-.352 0-1.781-1.318-3.378-3.227-3.378a3.297 3.297 0 0 0-2.368.937 3.326 3.326 0 0 0-1.007 2.35c0 1.92 1.73 3.39 3.547 3.39h.335c4.13 0 6.547-1.904 8.507-7.647L44.882 47.7h9.102l1.817 19.42h2.062l-2.28-25.906-10.893-.01Zm39.196 2.717c-5.608-5.422-14.11-5.257-19.279.136-5.169 5.394-4.977 13.91.631 19.332l1.01.978c5.711 5.524 14.138 5.284 19.281-.083 5.143-5.368 5.084-13.86-.633-19.384l-1.01-.978Zm.95 19.692c-2.658 2.778-8.928 1.09-13.9-3.703l-1.435-1.388c-4.946-4.78-6.864-11.009-4.203-13.784 2.66-2.775 8.954-1.119 13.897 3.651l1.436 1.388c4.974 4.807 6.892 11.033 4.205 13.836ZM31.12 28.846h.023c3.949 0 5.434-2.285 6.2-5.739l2.928-14.23h15.81v19.42h2.135V2.384h-18.81L35.166 23.1c-.28 1.465-.543 2.138-1.023 2.636a.79.79 0 0 0 .02-.18c0-1.78-1.316-3.39-3.226-3.39a3.295 3.295 0 0 0-2.361.948 3.323 3.323 0 0 0-.994 2.351c0 1.92 1.719 3.38 3.539 3.38Z" fill="#fff"/></svg>