<svg width="329" height="137" fill="none" xmlns="http://www.w3.org/2000/svg"><path d="M278.197 61.936C259.651-19.732 34.707 8.089 48.467 85.86c30.212 79.869 241.396 49.063 229.73-23.924Z" fill="#DD853E"/><path d="M85.232 60.953v-.502c0-5.997-4.255-9.38-9.615-9.38-6.366 0-10.219 4.489-10.219 12.127 0 7.639 3.853 12.128 10.219 12.128 5.46 0 9.648-3.518 9.648-9.75v-.602h-2.747v.603c0 3.752-3.116 5.863-6.901 5.863-4.825 0-7.505-3.116-7.505-8.242 0-5.126 2.68-8.241 7.505-8.241 3.785 0 6.868 1.91 6.868 5.494v.502h2.747Zm7.177 13.971v-6.667h3.517l5.327 6.667h3.216l-6.867-8.543 6.432-8.208h-4.255l-4.992 6.332H92.41v-6.332h-2.647v16.75h2.647Zm21.556-17.053c-5.193 0-8.007 3.35-8.007 8.677 0 5.36 2.814 8.677 8.007 8.677s7.974-3.316 7.974-8.677c0-5.327-2.781-8.677-7.974-8.677Zm0 13.569c-3.752 0-5.427-1.474-5.427-4.892 0-3.383 1.675-4.891 5.427-4.891s5.428 1.508 5.428 4.891c0 3.418-1.676 4.892-5.428 4.892Zm14.662-10.587v-2.68h-2.646v25.126h2.646V72.244c.972 1.91 2.747 2.981 5.662 2.981 4.891 0 7.505-3.35 7.505-8.677 0-5.36-2.614-8.677-7.505-8.677-2.915 0-4.69 1.072-5.662 2.982Zm5.227.804c3.685 0 5.326 1.407 5.326 4.891 0 3.451-1.641 4.892-5.326 4.892-3.485 0-5.227-1.474-5.227-4.054V65.71c0-2.58 1.742-4.054 5.227-4.054Zm18.848-3.786c-5.193 0-8.007 3.35-8.007 8.677 0 5.36 2.814 8.677 8.007 8.677s7.974-3.316 7.974-8.677c0-5.327-2.781-8.677-7.974-8.677Zm0 13.569c-3.752 0-5.427-1.474-5.427-4.892 0-3.383 1.675-4.891 5.427-4.891 3.753 0 5.428 1.508 5.428 4.891 0 3.418-1.675 4.892-5.428 4.892Zm34.831 3.484V58.173h-2.614v6.332h-9.213v-6.332h-2.646v16.75h2.646v-6.666h9.213v6.667h2.614Zm12.02-17.053c-5.193 0-8.007 3.35-8.007 8.677 0 5.36 2.814 8.677 8.007 8.677s7.974-3.316 7.974-8.677c0-5.327-2.781-8.677-7.974-8.677Zm0 13.569c-3.752 0-5.427-1.474-5.427-4.892 0-3.383 1.675-4.891 5.427-4.891s5.427 1.508 5.427 4.891c0 3.418-1.675 4.892-5.427 4.892Zm25.416-1.642c0-1.474-.636-2.613-1.775-3.384 1.038-.77 1.507-1.876 1.507-3.25 0-3.149-1.842-4.991-5.863-4.991h-7.303v16.75h7.303c3.887 0 6.131-1.942 6.131-5.125Zm-2.646 0c0 1.072-1.139 1.675-3.384 1.675h-4.757v-3.35h4.757c2.245 0 3.384.636 3.384 1.675Zm-.235-6.633c0 1.005-.804 1.54-3.149 1.54h-4.757v-3.081h4.757c2.345 0 3.149.536 3.149 1.54Zm14.074-5.294c-4.255 0-6.835 1.977-6.835 5.26v.402h2.647v-.402c0-1.005 1.474-1.508 4.188-1.508 2.68 0 4.188.503 4.188 1.508v1.843h-6.098c-3.35 0-5.427 1.876-5.427 5.059 0 3.25 2.077 5.192 5.427 5.192 2.982 0 5.026-1.306 6.098-3.316v3.015h2.613V63.13c0-3.283-2.546-5.26-6.801-5.26Zm-4.69 12.028c0-1.073 1.105-1.575 3.115-1.575h5.763c0 2.211-2.245 3.15-5.763 3.15-2.01 0-3.115-.537-3.115-1.575Zm16.004-5.829c0 2.512 1.139 4.187 3.25 4.89l-3.484 5.964h2.914l3.116-5.293h5.025v5.293h2.613V58.173h-7.303c-4.087 0-6.131 2.244-6.131 5.896Zm2.613 0c0-1.34 1.173-2.145 3.518-2.145h4.69v4.288h-4.69c-2.345 0-3.518-.77-3.518-2.144ZM131.244 92.273h-2.647v16.751h3.685l8.778-11.792h.1v11.792h2.614v-16.75h-3.686l-8.777 11.826h-.067V92.273Zm28.922 0h-11.023v16.751h2.647V96.026h8.376v-3.753Zm5.988 2.681v-2.68h-2.647V117.4h2.647v-11.056c.971 1.91 2.747 2.982 5.662 2.982 4.891 0 7.504-3.35 7.504-8.677 0-5.36-2.613-8.677-7.504-8.677-2.915 0-4.691 1.072-5.662 2.982Zm5.226.804c3.685 0 5.327 1.407 5.327 4.891 0 3.451-1.642 4.891-5.327 4.891-3.484 0-5.226-1.474-5.226-4.054v-1.675c0-2.58 1.742-4.053 5.226-4.053Zm18.716-3.786c-4.255 0-6.834 1.977-6.834 5.26v.402h2.646v-.402c0-1.005 1.475-1.508 4.188-1.508 2.68 0 4.188.503 4.188 1.508v1.842h-6.097c-3.351 0-5.428 1.876-5.428 5.059 0 3.25 2.077 5.193 5.428 5.193 2.981 0 5.025-1.307 6.097-3.317v3.015h2.613V97.232c0-3.284-2.546-5.26-6.801-5.26Zm-4.69 12.027c0-1.072 1.106-1.574 3.116-1.574h5.762c0 2.211-2.245 3.149-5.762 3.149-2.01 0-3.116-.536-3.116-1.575Zm17.175-18.426.67 17.354h2.714l.67-17.354h-4.054Zm-.469 21.408c0 1.541.838 2.446 2.446 2.446 1.575 0 2.479-.905 2.479-2.446 0-1.541-.904-2.446-2.479-2.446-1.608 0-2.446.905-2.446 2.446Z" fill="#fff"/><path d="M34.006 47.337c-9.838-.29-19.683.259-29.425 1.638-2.035.284-3.174 2.829-2.665 4.597.61 2.146 2.635 2.893 4.69 2.604a162.045 162.045 0 0 1 27.4-1.37c4.915.16 4.91-7.31 0-7.47Zm-8.134 33.059a478.137 478.137 0 0 0-23.057 8.541c-1.906.76-3.276 2.484-2.67 4.586.51 1.759 2.772 3.368 4.702 2.598a508.082 508.082 0 0 1 23.058-8.54c4.585-1.58 2.623-8.785-2.038-7.185h.005Zm12.047 26.001a580.407 580.407 0 0 1-20.168 24.026c-3.214 3.626 2.069 9.006 5.303 5.365a575.885 575.885 0 0 0 20.163-24.031c1.28-1.608 1.525-3.788 0-5.36-1.294-1.345-4.033-1.593-5.298 0Zm234.317-78.443 10.78-21.11c2.197-4.308-4.536-7.618-6.739-3.301l-10.78 21.11c-2.197 4.307 4.536 7.618 6.739 3.3Zm12.993 22.596a443.125 443.125 0 0 0 38.925-15.129c4.435-1.97 1.879-9.252-2.592-7.263a454.69 454.69 0 0 1-38.925 15.129c-4.636 1.556-2.044 8.82 2.592 7.264Zm31.675 41.4a120.685 120.685 0 0 0-41.124-.453c-4.853.78-3.113 8.102 1.714 7.322a109.717 109.717 0 0 1 37.14.329c2.036.373 4.084-.41 4.775-2.502.579-1.768-.49-4.324-2.505-4.697Z" fill="#DD853E"/></svg>