<svg width="160" height="75" fill="none" xmlns="http://www.w3.org/2000/svg"><g clip-path="url(#a)"><path d="M158.563 26.833C142.838-25.277 58.292 6.173 84.845 56.05c22.519 37.2 85.439 15.486 73.718-29.217ZM.434 32.326c-6.726 43.771 66.362 50.453 64.32 4.5C61.257 1.6 7.484-4.605.434 32.325Z" fill="#fff"/><path d="m135.348 41.449-26.535 14.97h-.398v-8.116l21.638-9.564-21.625-9.717v-8.061h.397l26.535 15.093-.012 5.395Zm-117.33-6.315L38.574 23.54h.312v6.284l-16.759 7.424 16.759 7.522v6.228h-.312L18.018 39.302v-4.168Z" fill="#1A1A1A"/></g><defs><clipPath id="a"><path fill="#fff" d="M0 0h160v75H0z"/></clipPath></defs></svg>