<svg width="368" height="67" fill="none" xmlns="http://www.w3.org/2000/svg"><path d="m14.16 57.85 13.254-18.19L43.21 57.85h5.43L29.9 36.29 49.57 9.15H35.41L22.17 27.414 6.293 9.15H.927l18.8 21.647L0 57.851h14.16Zm110.688-2.958c10.963 8.768 26.738 7.134 36.049-4.557l1.645-2.066c9.13-11.475 7.342-27.413-3.592-36.174s-26.81-6.933-35.919 4.542l-1.646 2.066c-9.367 11.713-7.442 27.493 3.463 36.19Zm5.632-28.162 2.335-2.937c8.06-10.115 19.339-14.801 24.985-10.287 5.647 4.513 3.643 16.622-4.411 26.736l-2.341 2.938c-8.097 10.172-19.397 14.858-25.079 10.301-5.683-4.557-3.585-16.586 4.497-26.73l.014-.02Zm98.822-18.588h-.036V0h-4.023v8.142a25.282 25.282 0 0 0-17.62 7.576A25.391 25.391 0 0 0 200.36 33.5a25.391 25.391 0 0 0 7.263 17.782 25.282 25.282 0 0 0 17.62 7.576V67h4.023v-8.142h.036a25.282 25.282 0 0 0 17.619-7.576 25.387 25.387 0 0 0 7.263-17.782 25.387 25.387 0 0 0-7.263-17.782 25.282 25.282 0 0 0-17.619-7.576Zm-4.059 38.521c-14.088-.273-23.499-6.061-23.499-13.058 0-7.2 9.857-12.959 23.499-13.261v26.319Zm4.023 0V20.337c13.512.273 23.505 6.061 23.505 13.051 0 7.2-10.495 12.98-23.505 13.268v.007Zm54.776-37.478-13.01 35.628c-2.478 6.479-3.671 7.854-6.228 8.509.043-.274.079-.569.079-.655a6.178 6.178 0 0 0-1.709-4.446 6.15 6.15 0 0 0-4.362-1.896 6.21 6.21 0 0 0-4.444 1.767 6.256 6.256 0 0 0-1.885 4.403c0 3.599 3.248 6.341 6.674 6.341h.625c7.773 0 12.328-3.6 16.02-14.354l8.621-23.145h17.133l3.42 36.455h3.879l-4.31-48.628-20.503.021Zm73.771 5.105c-10.553-10.18-26.58-9.877-36.278.252-9.698 10.129-9.339 26.11 1.185 36.29l1.904 1.835c10.776 10.374 26.58 9.92 36.279-.159 9.698-10.078 9.568-26.016-1.186-36.39l-1.904-1.828Zm1.818 37.002c-5.029 5.212-16.803 2.044-26.156-6.976l-2.702-2.606c-9.339-8.977-12.93-20.668-7.902-25.916 5.029-5.248 16.854-2.095 26.157 6.875l2.701 2.606c9.339 9.02 12.931 20.711 7.902 26.017ZM57.593 58.894h.043c7.428 0 10.23-4.32 11.667-10.799l5.51-26.714h29.791v36.454h4.03V9.207H73.189l-7.981 38.874c-.532 2.75-1.02 4.017-1.925 4.953a1.437 1.437 0 0 0 0-.338 6.173 6.173 0 0 0-1.71-4.447 6.147 6.147 0 0 0-4.36-1.896 6.217 6.217 0 0 0-4.445 1.767 6.242 6.242 0 0 0-1.885 4.403c.036 3.628 3.283 6.37 6.71 6.37Z" fill="#1A1A1A"/></svg>