<svg width="40" height="41" fill="none" xmlns="http://www.w3.org/2000/svg"><path d="M19.996.324c-5.427 0-6.113 0-8.246.12-1.659.032-3.3.347-4.853.932A10.2 10.2 0 0 0 1.05 7.22a14.568 14.568 0 0 0-.932 4.853C.022 14.207 0 14.893 0 20.32c0 5.428 0 6.114.12 8.247.03 1.659.345 3.3.931 4.853a10.237 10.237 0 0 0 5.846 5.853 14.99 14.99 0 0 0 4.853.932c2.133.097 2.819.12 8.246.12 5.428 0 6.114 0 8.246-.12a14.88 14.88 0 0 0 4.854-.932 10.222 10.222 0 0 0 5.853-5.853c.583-1.553.898-3.195.932-4.854.097-2.132.119-2.81.119-8.246 0-5.435 0-6.113-.12-8.246-.035-1.659-.35-3.3-.931-4.853a10.184 10.184 0 0 0-5.853-5.845 14.487 14.487 0 0 0-4.854-.932c-2.132-.097-2.81-.12-8.246-.12Zm0 3.601c5.346 0 5.965 0 8.082.12a10.96 10.96 0 0 1 3.728.686c.87.318 1.657.828 2.304 1.49a6.12 6.12 0 0 1 1.491 2.297c.445 1.193.68 2.454.694 3.728.096 2.11.111 2.744.111 8.082 0 5.338 0 5.965-.111 8.082a10.946 10.946 0 0 1-.694 3.728 6.552 6.552 0 0 1-3.795 3.795 10.946 10.946 0 0 1-3.728.693c-2.11.097-2.736.112-8.082.112-5.345 0-5.964 0-8.082-.112a11.035 11.035 0 0 1-3.728-.693A6.121 6.121 0 0 1 5.89 34.44a6.254 6.254 0 0 1-1.491-2.303 10.996 10.996 0 0 1-.686-3.728c-.097-2.11-.12-2.744-.12-8.082 0-5.338 0-5.965.12-8.082.013-1.273.245-2.534.686-3.728a6.665 6.665 0 0 1 3.795-3.795 11.086 11.086 0 0 1 3.728-.686c2.11-.097 2.743-.12 8.082-.12" fill="#12100B"/><path d="M19.511 27.217a6.665 6.665 0 1 1 0-13.33 6.665 6.665 0 0 1 0 13.33Zm0-16.932a10.275 10.275 0 1 0 7.265 3.005 10.266 10.266 0 0 0-7.265-3.005Zm13.078-.408a2.401 2.401 0 1 1-4.802 0 2.401 2.401 0 0 1 4.802 0Z" fill="#12100B"/></svg>