<svg width="81" height="81" fill="none" xmlns="http://www.w3.org/2000/svg"><path d="M65.61 11.508c-15.951-15.351-40.136-14.886-54.838.384-14.703 15.27-14.156 39.377 1.794 54.728l2.873 2.769c16.246 15.639 40.216 14.96 54.845-.236 14.629-15.196 14.459-39.238-1.802-54.876l-2.873-2.77Zm2.702 55.747C60.75 75.119 42.917 70.34 28.775 56.77l-4.083-3.928C10.624 39.307 5.167 21.675 12.736 13.819c7.57-7.857 25.47-3.168 39.53 10.337l4.083 3.928c14.149 13.608 19.606 31.233 11.963 39.17Z" fill="#1A1A1A"/></svg>