<svg width="203" height="54" fill="none" xmlns="http://www.w3.org/2000/svg"><path d="M202.992 32.75c-.268-6.26-5.118-12.637-11.61-12.203l-14.448.981a11.738 11.738 0 0 0-2.915-3.669 11.085 11.085 0 0 0-4.056-2.16 109.35 109.35 0 0 0-39.124-3.683c-.678-2.551-2.124-4.803-4.121-6.418-1.997-1.615-4.438-2.506-6.958-2.541a334.649 334.649 0 0 0-56.699 3.617c-4.17.607-8.318 1.318-12.451 2.099C48.649 2.905 42.493-1.597 36.425.54 24.23 4.83 13.415 11.186 3.297 19.457c-3.612 2.944-4 9.355-2.4 13.33 1.708 4.252 6.017 7.76 10.61 7.5a140.597 140.597 0 0 0 15.531-1.833 10.695 10.695 0 0 0-.15 2.322c.217 5.157 3.412 10.624 8.52 11.768 10.207 2.283 20.578 1.345 30.899.754 9.984-.575 19.964-1.27 29.928-1.942l60.889-4.094 6.564-.445a265.6 265.6 0 0 0 27.704-1.865c3.179-.38 5.862-1.085 8.21-3.574 2.002-2.115 3.519-5.581 3.39-8.629Z" fill="#fff"/></svg>