<svg width="329" height="137" viewBox="0 0 329 137" fill="none" xmlns="http://www.w3.org/2000/svg">
<path d="M278.197 61.9356C259.651 -19.7318 34.7069 8.08903 48.4668 85.8601C78.6787 165.729 289.863 134.923 278.197 61.9356Z" fill="#DD853E"/>
<path d="M85.2318 60.9535V60.451C85.2318 54.454 80.977 51.0703 75.6166 51.0703C69.2512 51.0703 65.3984 55.5596 65.3984 63.1981C65.3984 70.8367 69.2512 75.326 75.6166 75.326C81.0775 75.326 85.2653 71.8082 85.2653 65.5768V64.9738H82.5181V65.5768C82.5181 69.3291 79.4024 71.4397 75.6166 71.4397C70.7923 71.4397 68.1121 68.324 68.1121 63.1981C68.1121 58.0723 70.7923 54.9566 75.6166 54.9566C79.4024 54.9566 82.4846 56.8662 82.4846 60.451V60.9535H85.2318Z" fill="white"/>
<path d="M92.4086 74.9239V68.257H95.9263L101.253 74.9239H104.469L97.6015 66.3809L104.034 58.1728H99.7791L94.7873 64.5047H92.4086V58.1728H89.7619V74.9239H92.4086Z" fill="white"/>
<path d="M113.965 57.8713C108.772 57.8713 105.958 61.2215 105.958 66.5484C105.958 71.9087 108.772 75.2255 113.965 75.2255C119.158 75.2255 121.939 71.9087 121.939 66.5484C121.939 61.2215 119.158 57.8713 113.965 57.8713ZM113.965 71.4397C110.213 71.4397 108.538 69.9656 108.538 66.5484C108.538 63.1646 110.213 61.657 113.965 61.657C117.717 61.657 119.393 63.1646 119.393 66.5484C119.393 69.9656 117.717 71.4397 113.965 71.4397Z" fill="white"/>
<path d="M128.627 60.853V58.1728H125.981V83.2995H128.627V72.2438C129.599 74.1534 131.374 75.2255 134.289 75.2255C139.18 75.2255 141.794 71.8752 141.794 66.5484C141.794 61.188 139.18 57.8713 134.289 57.8713C131.374 57.8713 129.599 58.9433 128.627 60.853ZM133.854 61.657C137.539 61.657 139.18 63.0641 139.18 66.5484C139.18 69.9991 137.539 71.4397 133.854 71.4397C130.369 71.4397 128.627 69.9656 128.627 67.3859V65.7108C128.627 63.1311 130.369 61.657 133.854 61.657Z" fill="white"/>
<path d="M152.702 57.8713C147.509 57.8713 144.695 61.2215 144.695 66.5484C144.695 71.9087 147.509 75.2255 152.702 75.2255C157.895 75.2255 160.676 71.9087 160.676 66.5484C160.676 61.2215 157.895 57.8713 152.702 57.8713ZM152.702 71.4397C148.95 71.4397 147.275 69.9656 147.275 66.5484C147.275 63.1646 148.95 61.657 152.702 61.657C156.455 61.657 158.13 63.1646 158.13 66.5484C158.13 69.9656 156.455 71.4397 152.702 71.4397Z" fill="white"/>
<path d="M187.533 74.9239V58.1728H184.919V64.5047H175.706V58.1728H173.06V74.9239H175.706V68.257H184.919V74.9239H187.533Z" fill="white"/>
<path d="M199.553 57.8713C194.36 57.8713 191.546 61.2215 191.546 66.5484C191.546 71.9087 194.36 75.2255 199.553 75.2255C204.746 75.2255 207.527 71.9087 207.527 66.5484C207.527 61.2215 204.746 57.8713 199.553 57.8713ZM199.553 71.4397C195.801 71.4397 194.126 69.9656 194.126 66.5484C194.126 63.1646 195.801 61.657 199.553 61.657C203.305 61.657 204.98 63.1646 204.98 66.5484C204.98 69.9656 203.305 71.4397 199.553 71.4397Z" fill="white"/>
<path d="M224.969 69.7981C224.969 68.324 224.333 67.1849 223.194 66.4144C224.232 65.6438 224.701 64.5382 224.701 63.1646C224.701 60.0154 222.859 58.1728 218.838 58.1728H211.535V74.9239H218.838C222.725 74.9239 224.969 72.9808 224.969 69.7981ZM222.323 69.7981C222.323 70.8702 221.184 71.4732 218.939 71.4732H214.182V68.123H218.939C221.184 68.123 222.323 68.7595 222.323 69.7981ZM222.088 63.1646C222.088 64.1697 221.284 64.7057 218.939 64.7057H214.182V61.6235H218.939C221.284 61.6235 222.088 62.1596 222.088 63.1646Z" fill="white"/>
<path d="M236.162 57.8713C231.907 57.8713 229.327 59.8479 229.327 63.1311V63.5332H231.974V63.1311C231.974 62.1261 233.448 61.6235 236.162 61.6235C238.842 61.6235 240.35 62.1261 240.35 63.1311V64.9738H234.252C230.902 64.9738 228.825 66.8499 228.825 70.0326C228.825 73.2823 230.902 75.2255 234.252 75.2255C237.234 75.2255 239.278 73.9189 240.35 71.9087V74.9239H242.963V63.1311C242.963 59.8479 240.417 57.8713 236.162 57.8713ZM231.472 69.8986C231.472 68.8265 232.577 68.324 234.587 68.324H240.35C240.35 70.5351 238.105 71.4732 234.587 71.4732C232.577 71.4732 231.472 70.9372 231.472 69.8986Z" fill="white"/>
<path d="M247.476 64.0692C247.476 66.5819 248.615 68.257 250.726 68.9605L247.242 74.9239H250.156L253.272 69.6306H258.297V74.9239H260.91V58.1728H253.607C249.52 58.1728 247.476 60.4174 247.476 64.0692ZM250.089 64.0692C250.089 62.7291 251.262 61.9251 253.607 61.9251H258.297V66.2133H253.607C251.262 66.2133 250.089 65.4428 250.089 64.0692Z" fill="white"/>
<path d="M131.244 92.2733H128.597V109.024H132.282L141.06 97.2317H141.16V109.024H143.774V92.2733H140.088L131.311 104.1H131.244V92.2733Z" fill="white"/>
<path d="M160.166 92.2733H149.143V109.024H151.79V96.0256H160.166V92.2733Z" fill="white"/>
<path d="M166.154 94.9535V92.2733H163.507V117.4H166.154V106.344C167.125 108.254 168.901 109.326 171.816 109.326C176.707 109.326 179.32 105.976 179.32 100.649C179.32 95.2885 176.707 91.9718 171.816 91.9718C168.901 91.9718 167.125 93.0439 166.154 94.9535ZM171.38 95.7576C175.065 95.7576 176.707 97.1647 176.707 100.649C176.707 104.1 175.065 105.54 171.38 105.54C167.896 105.54 166.154 104.066 166.154 101.486V99.8113C166.154 97.2317 167.896 95.7576 171.38 95.7576Z" fill="white"/>
<path d="M190.096 91.9718C185.841 91.9718 183.262 93.9485 183.262 97.2317V97.6337H185.908V97.2317C185.908 96.2266 187.383 95.7241 190.096 95.7241C192.776 95.7241 194.284 96.2266 194.284 97.2317V99.0743H188.187C184.836 99.0743 182.759 100.95 182.759 104.133C182.759 107.383 184.836 109.326 188.187 109.326C191.168 109.326 193.212 108.019 194.284 106.009V109.024H196.897V97.2317C196.897 93.9485 194.351 91.9718 190.096 91.9718ZM185.406 103.999C185.406 102.927 186.512 102.425 188.522 102.425H194.284C194.284 104.636 192.039 105.574 188.522 105.574C186.512 105.574 185.406 105.038 185.406 103.999Z" fill="white"/>
<path d="M202.581 85.5729L203.251 102.927H205.965L206.635 85.5729H202.581ZM202.112 106.981C202.112 108.522 202.95 109.427 204.558 109.427C206.133 109.427 207.037 108.522 207.037 106.981C207.037 105.44 206.133 104.535 204.558 104.535C202.95 104.535 202.112 105.44 202.112 106.981Z" fill="white"/>
<path d="M34.0064 47.3366C24.1681 47.0475 14.3227 47.5958 4.58135 48.975C2.54643 49.2589 1.40688 51.8037 1.91561 53.5716C2.52609 55.7179 4.55094 56.4649 6.60621 56.1761C15.6821 54.946 24.8497 54.4878 34.0064 54.8066C38.9207 54.9659 38.9156 47.4959 34.0064 47.3366Z" fill="#DD853E"/>
<path d="M25.8722 80.3963C18.1116 83.0461 10.4258 85.893 2.81464 88.937C0.909308 89.6971 -0.461098 91.4212 0.145143 93.5228C0.65459 95.2816 2.91652 96.8914 4.84733 96.1213C12.4585 93.0905 20.1443 90.2437 27.9049 87.5806C32.4899 86.0007 30.5285 78.7965 25.8671 80.3963H25.8722Z" fill="#DD853E"/>
<path d="M37.9189 106.397C31.4111 114.589 24.6884 122.598 17.7507 130.423C14.5368 134.049 19.82 139.429 23.0539 135.788C29.9882 127.967 36.7094 119.956 43.2172 111.757C44.4968 110.149 44.7417 107.969 43.2172 106.397C41.9226 105.052 39.1835 104.804 37.9189 106.397Z" fill="#DD853E"/>
<path d="M272.236 27.9537L283.016 6.84368C285.213 2.53627 278.48 -0.774388 276.277 3.54273L265.497 24.6528C263.3 28.9602 270.033 32.2709 272.236 27.9537Z" fill="#DD853E"/>
<path d="M285.229 50.5506C298.433 46.1229 311.407 41.0798 324.154 35.4214C328.589 33.4512 326.033 26.1693 321.562 28.1579C308.822 33.7956 295.848 38.8387 282.637 43.287C278.001 44.8433 280.593 52.1068 285.229 50.5506Z" fill="#DD853E"/>
<path d="M316.904 91.9491C303.342 89.4468 289.427 89.2939 275.78 91.497C270.927 92.2775 272.667 99.5987 277.494 98.8191C289.815 96.8174 302.379 96.9286 314.634 99.148C316.67 99.5211 318.718 98.7383 319.409 96.6458C319.988 94.8781 318.919 92.3219 316.904 91.9491Z" fill="#DD853E"/>
</svg>
