<svg width="90" height="73" viewBox="0 0 90 73" fill="none" xmlns="http://www.w3.org/2000/svg">
<path d="M8.04278 28.2867L15.0835 18.5973L23.4768 28.2867H26.3637L16.4023 16.8029L26.8569 2.3457H19.3307L12.3004 12.0716L3.86042 2.3457H1.00987L10.9972 13.8791L0.516602 28.2867H8.04278Z" fill="white"/>
<path d="M66.8554 26.724C72.6812 31.3926 81.0615 30.5241 86.0071 24.2958L86.882 23.1951C91.7367 17.0815 90.7762 8.58929 84.9608 3.92325C79.1455 -0.742795 70.7133 0.232665 65.8585 6.34625L64.9862 7.4469C60.0328 13.6752 61.0713 22.0893 66.8554 26.724ZM69.8488 11.7217L71.0897 10.1568C75.3707 4.7683 81.3652 2.26966 84.3637 4.67962C87.3623 7.08958 86.3004 13.5318 82.0272 18.9203L80.7863 20.4852C76.4845 25.9024 70.49 28.4011 67.4603 25.9624C64.4307 23.5238 65.547 17.1337 69.8488 11.7217Z" fill="white"/>
<path d="M15.6027 40.6473H15.5845V36.3125H13.4453V40.6473H13.4271C9.89321 40.6966 6.52067 42.1416 4.039 44.6697C1.55732 47.1978 0.166016 50.6057 0.166016 54.1564C0.166016 57.7071 1.55732 61.115 4.039 63.6431C6.52067 66.1712 9.89321 67.6162 13.4271 67.6655H13.4453V72.0029H15.5845V67.6655H15.6027C19.1366 67.6162 22.5091 66.1712 24.9908 63.6431C27.4725 61.115 28.8638 57.7071 28.8638 54.1564C28.8638 50.6057 27.4725 47.1978 24.9908 44.6697C22.5091 42.1416 19.1366 40.6966 15.6027 40.6473ZM13.4453 61.1659C5.96065 61.0224 0.957911 57.9396 0.957911 54.2125C0.957911 50.3784 6.1995 47.293 13.4453 47.1469V61.1659ZM15.5845 61.1659V47.1469C22.7654 47.2956 28.0719 50.3758 28.0719 54.1003C28.0719 57.9291 22.4954 61.012 15.5845 61.1659Z" fill="white"/>
<path d="M44.6898 41.2031L37.7737 60.1933C36.4575 63.6439 35.824 64.3795 34.4689 64.729C34.4896 64.5803 34.5104 64.4238 34.5104 64.3769C34.5104 62.5955 33.1916 60.9992 31.2834 60.9992C30.8466 60.9906 30.4123 61.069 30.0058 61.2298C29.5992 61.3906 29.2283 61.6306 28.9146 61.9362C28.6008 62.2417 28.3504 62.6066 28.1777 63.0098C28.005 63.413 27.9135 63.8466 27.9084 64.2856C27.9084 66.2052 29.6375 67.6762 31.4548 67.6762C31.5378 67.6762 31.6053 67.6762 31.6858 67.6762C31.7196 67.6762 31.7533 67.6762 31.7897 67.6762C35.9201 67.6762 38.3371 65.7722 40.2972 60.029L44.8819 47.7001H53.984L55.8013 67.1207H57.8626L55.5832 41.2136L44.6898 41.2031Z" fill="white"/>
<path d="M83.886 43.9207C78.2784 38.4982 69.776 38.6626 64.6072 44.0563C59.4383 49.45 59.6304 57.9657 65.238 63.3881L66.2479 64.3662C71.9594 69.8903 80.3864 69.6504 85.5293 64.2827C90.6723 58.9151 90.6126 50.4229 84.8959 44.8987L83.886 43.9207ZM84.8362 63.6125C82.1778 66.3902 75.9081 64.7027 70.9365 59.9088L69.5009 58.5213C64.5552 53.7405 62.6367 47.5121 65.2977 44.737C67.9588 41.9619 74.2518 43.6181 79.1948 48.3885L80.6305 49.776C85.6046 54.5829 87.5232 60.8087 84.8362 63.6125Z" fill="white"/>
<path d="M31.1198 28.8455H31.1432C35.0919 28.8455 36.5769 26.5607 37.3427 23.1074L40.2712 8.87719H56.0816V28.2977H58.2156V2.38281H39.4067L35.1646 23.0996C34.8842 24.5654 34.622 25.2383 34.1417 25.7365C34.1555 25.6775 34.1625 25.6171 34.1625 25.5565C34.1625 23.7751 32.8463 22.1659 30.9355 22.1659C30.4992 22.1597 30.066 22.2403 29.6608 22.403C29.2557 22.5658 28.8866 22.8074 28.5748 23.1141C28.263 23.4208 28.0147 23.7864 27.8442 24.19C27.6737 24.5935 27.5843 25.0269 27.5813 25.4652C27.5813 27.3849 29.2999 28.8455 31.1198 28.8455Z" fill="white"/>
</svg>
