<svg width="40" height="40" viewBox="0 0 40 40" fill="none" xmlns="http://www.w3.org/2000/svg">
<path d="M19.9983 0.0214823C14.9966 0.0192403 10.1757 1.90084 6.48741 5.2945C2.79911 8.68817 0.511484 13.3474 0.0759653 18.3526C-0.359553 23.3577 1.08868 28.3448 4.13494 32.3298C7.1812 36.3147 11.6042 39.008 16.5305 39.8774V25.5607H11.5044V19.6968H16.5305V15.3693C16.5305 10.3711 19.5676 7.65227 24.0049 7.65227C25.5013 7.64726 26.9968 7.72193 28.4853 7.8759V13.0975H25.4266C23.014 13.0975 22.5545 14.2516 22.5545 15.9465V19.6753H28.3345L27.5806 25.5319H22.5186V40C27.5622 39.3593 32.1734 36.8121 35.4137 32.877C38.6539 28.942 40.2798 23.9147 39.9605 18.8181C39.6412 13.7215 37.4009 8.93872 33.6951 5.44276C29.9893 1.94681 25.0965 0.000554018 20.0127 0L19.9983 0.0214823Z" fill="#12100B"/>
</svg>
