<svg width="368" height="67" viewBox="0 0 368 67" fill="none" xmlns="http://www.w3.org/2000/svg">
<path d="M14.1594 57.8508L27.4136 39.6593L43.2109 57.8508H48.6419L29.8992 36.2902L49.5686 9.15039H35.4092L22.1694 27.414L6.29305 9.15039H0.926717L19.7269 30.7974L0 57.8508H14.1594Z" fill="#1A1A1A"/>
<path d="M124.848 54.8922C135.811 63.6604 151.586 62.0262 160.897 50.3352L162.542 48.2691C171.672 36.7941 169.884 20.8557 158.95 12.0947C148.016 3.33365 132.14 5.16221 123.031 16.6372L121.385 18.7034C112.018 30.416 113.943 46.1959 124.848 54.8922ZM130.48 26.7301L132.815 23.7929C140.875 13.6784 152.154 8.99194 157.8 13.5056C163.447 18.0193 161.443 30.128 153.389 40.2424L151.048 43.1796C142.951 53.3516 131.651 58.0381 125.969 53.4812C120.286 48.9243 122.384 36.8951 130.466 26.7519L130.48 26.7301Z" fill="#1A1A1A"/>
<path d="M229.302 8.14198H229.266V0H225.243V8.14198C218.605 8.25405 212.277 10.975 207.623 15.7184C202.969 20.4617 200.36 26.8478 200.36 33.5001C200.36 40.1524 202.969 46.5385 207.623 51.2818C212.277 56.0252 218.605 58.7458 225.243 58.8579V66.9999H229.266V58.8579H229.302C235.939 58.7458 242.267 56.0252 246.921 51.2818C251.576 46.5385 254.184 40.1524 254.184 33.5001C254.184 26.8478 251.576 20.4617 246.921 15.7184C242.267 10.975 235.939 8.25405 229.302 8.14198ZM225.243 46.663C211.155 46.3895 201.744 40.6018 201.744 33.6045C201.744 26.4056 211.601 20.6462 225.243 20.3439V46.663ZM229.266 46.663V20.3368C242.778 20.6104 252.771 26.3982 252.771 33.3883C252.771 40.5872 242.276 46.368 229.266 46.656V46.663Z" fill="#1A1A1A"/>
<path d="M284.042 9.1855L271.032 44.8129C268.554 51.2919 267.361 52.6668 264.804 53.3219C264.847 53.0483 264.883 52.7534 264.883 52.667C264.907 51.8494 264.768 51.0352 264.475 50.2719C264.181 49.5085 263.739 48.8111 263.174 48.2208C262.609 47.6305 261.932 47.159 261.183 46.8334C260.435 46.5079 259.629 46.3349 258.812 46.3248C257.992 46.3114 257.177 46.4606 256.415 46.7638C255.652 47.067 254.957 47.5182 254.368 48.0915C253.78 48.6647 253.311 49.3486 252.988 50.1042C252.664 50.8597 252.493 51.672 252.483 52.4941C252.483 56.0935 255.731 58.8363 259.157 58.8363H259.588H259.782C267.555 58.8363 272.11 55.2369 275.802 44.4818L284.423 21.3375H301.556L304.976 57.7924H308.855L304.545 9.16406L284.042 9.1855Z" fill="#1A1A1A"/>
<path d="M357.813 14.2897C347.26 4.11053 331.233 4.41295 321.535 14.5418C311.837 24.6706 312.196 40.6519 322.72 50.8311L324.624 52.667C335.4 63.0406 351.204 62.5869 360.903 52.5085C370.601 42.4301 370.471 26.4919 359.717 16.1183L357.813 14.2897ZM359.631 51.2919C354.602 56.5039 342.828 53.3365 333.475 44.3163L330.773 41.7102C321.434 32.7332 317.843 21.0422 322.871 15.7942C327.9 10.5462 339.725 13.6995 349.028 22.6693L351.729 25.2751C361.068 34.2953 364.66 45.9864 359.631 51.2919Z" fill="#1A1A1A"/>
<path d="M57.593 58.8937H57.6361C65.0642 58.8937 67.8659 54.5744 69.3027 48.0954L74.8128 21.3805H104.604V57.8353H108.634V9.20703H73.1892L65.2079 48.081C64.6763 50.831 64.1878 52.0979 63.2826 53.0337C63.2959 52.9214 63.2959 52.808 63.2826 52.6956C63.3065 51.878 63.1678 51.0637 62.8744 50.3004C62.581 49.5371 62.1389 48.8397 61.5739 48.2494C61.0089 47.659 60.3322 47.1875 59.5834 46.862C58.8345 46.5364 58.0285 46.3635 57.2123 46.3533C56.392 46.34 55.5771 46.4892 54.8145 46.7924C54.0518 47.0956 53.3565 47.5467 52.7684 48.12C52.1803 48.6933 51.711 49.3772 51.3875 50.1327C51.064 50.8883 50.8927 51.7005 50.8833 52.5226C50.9192 56.1509 54.1663 58.8937 57.593 58.8937Z" fill="#1A1A1A"/>
</svg>
