<svg width="256" height="201" viewBox="0 0 256 201" fill="none" xmlns="http://www.w3.org/2000/svg">
<g clip-path="url(#clip0_3_1633)">
<path d="M22.8775 77.2492L42.9044 49.8186L66.7786 77.2492H74.9902L46.6558 44.7386L76.3933 3.81055H54.9855L34.9882 31.3445L10.981 3.81055H2.87279L31.2811 36.4614L1.46973 77.2492H22.8775Z" fill="#1A1A1A"/>
<path d="M190.167 72.8249C206.738 86.0418 230.575 83.583 244.643 65.9506L247.131 62.8347C260.94 45.5272 258.208 21.4858 241.667 8.2763C225.125 -4.93319 201.14 -2.17168 187.331 15.1358L184.85 18.2517C170.76 35.8841 173.714 59.704 190.167 72.8249ZM198.681 30.3537L202.211 25.9234C214.388 10.6686 231.439 3.59501 239.968 10.4176C248.497 17.2402 245.477 35.478 233.322 50.7328L229.792 55.163C217.556 70.499 200.505 77.5726 191.888 70.6689C183.27 63.7651 186.445 45.6749 198.681 30.3537Z" fill="#1A1A1A"/>
<path d="M44.3809 112.241H44.3292V99.9688H38.2443V112.241H38.1926C28.1406 112.38 18.5476 116.471 11.4886 123.628C4.42966 130.785 0.472168 140.433 0.472168 150.485C0.472168 160.536 4.42966 170.184 11.4886 177.341C18.5476 184.498 28.1406 188.589 38.1926 188.729H38.2443V201.008H44.3292V188.729H44.3809C54.4329 188.589 64.0259 184.498 71.0849 177.341C78.1439 170.184 82.1014 160.536 82.1014 150.485C82.1014 140.433 78.1439 130.785 71.0849 123.628C64.0259 116.471 54.4329 112.38 44.3809 112.241ZM38.2443 170.328C16.9547 169.922 2.72467 161.195 2.72467 150.643C2.72467 139.789 17.6341 131.054 38.2443 130.641V170.328ZM44.3292 170.328V130.641C64.7548 131.062 79.8489 139.782 79.8489 150.326C79.8489 161.165 63.9869 169.893 44.3292 170.328Z" fill="#1A1A1A"/>
<path d="M127.117 113.812L107.445 167.573C103.701 177.342 101.899 179.424 98.0445 180.414C98.1036 179.993 98.1627 179.55 98.1627 179.417C98.1627 174.374 94.4113 169.855 88.9837 169.855C87.7411 169.831 86.5059 170.052 85.3495 170.508C84.193 170.963 83.1381 171.643 82.2457 172.507C81.3532 173.372 80.6408 174.405 80.1496 175.547C79.6585 176.688 79.3982 177.916 79.3838 179.159C79.3838 184.593 84.3019 188.757 89.4711 188.757C89.7074 188.757 89.8994 188.757 90.1283 188.757C90.2243 188.757 90.3203 188.757 90.4237 188.757C102.172 188.757 109.048 183.367 114.623 167.108L127.664 132.205H153.554L158.723 187.185H164.587L158.103 113.842L127.117 113.812Z" fill="#1A1A1A"/>
<path d="M238.609 121.508C222.659 106.157 198.474 106.622 183.772 121.892C169.069 137.161 169.616 161.269 185.566 176.62L188.439 179.389C204.685 195.028 228.655 194.348 243.284 179.152C257.913 163.957 257.743 139.915 241.482 124.277L238.609 121.508ZM241.312 177.255C233.75 185.119 215.917 180.341 201.775 166.77L197.692 162.842C183.624 149.307 178.167 131.675 185.736 123.819C193.305 115.963 211.205 120.651 225.265 134.156L229.349 138.084C243.498 151.692 248.955 169.317 241.312 177.255Z" fill="#1A1A1A"/>
<path d="M88.5188 78.8294H88.5852C99.8171 78.8294 104.041 72.3613 106.22 62.5852L114.549 22.2996H159.521V77.2788H165.591V3.91406H112.09L100.024 62.5631C99.2263 66.7127 98.4805 68.6177 97.1143 70.028C97.1537 69.8611 97.1735 69.6901 97.1734 69.5185C97.1734 64.4754 93.4295 59.9197 87.9945 59.9197C86.7534 59.9021 85.5212 60.1303 84.3687 60.591C83.2162 61.0517 82.1664 61.7359 81.2795 62.6041C80.3927 63.4723 79.6864 64.5074 79.2014 65.6498C78.7164 66.7921 78.4623 68.0191 78.4536 69.2601C78.4536 74.6945 83.3422 78.8294 88.5188 78.8294Z" fill="#1A1A1A"/>
</g>
<defs>
<clipPath id="clip0_3_1633">
<rect width="256" height="201" fill="white"/>
</clipPath>
</defs>
</svg>
