<svg width="256" height="201" viewBox="0 0 256 201" fill="none" xmlns="http://www.w3.org/2000/svg">
<g clip-path="url(#clip0_7_274)">
<path d="M22.8773 77.2492L42.9042 49.8186L66.7784 77.2492H74.99L46.6555 44.7386L76.3931 3.81055H54.9853L34.9879 31.3445L10.9808 3.81055H2.87255L31.2809 36.4614L1.46948 77.2492H22.8773Z" fill="#1A1A1A"/>
<path d="M44.3811 112.241H44.3294V99.9688H38.2446V112.241H38.1929C28.1409 112.38 18.5479 116.471 11.4889 123.628C4.42991 130.785 0.472412 140.433 0.472412 150.485C0.472412 160.536 4.42991 170.184 11.4889 177.341C18.5479 184.498 28.1409 188.589 38.1929 188.729H38.2446V201.008H44.3294V188.729H44.3811C54.4332 188.589 64.0261 184.498 71.0851 177.341C78.1441 170.184 82.1016 160.536 82.1016 150.485C82.1016 140.433 78.1441 130.785 71.0851 123.628C64.0261 116.471 54.4332 112.38 44.3811 112.241ZM38.2446 170.328C16.9549 169.922 2.72491 161.195 2.72491 150.643C2.72491 139.789 17.6343 131.054 38.2446 130.641V170.328ZM44.3294 170.328V130.641C64.7551 131.062 79.8491 139.782 79.8491 150.326C79.8491 161.165 63.9871 169.893 44.3294 170.328Z" fill="#1A1A1A"/>
<path d="M127.117 113.812L107.445 167.573C103.701 177.342 101.899 179.424 98.0445 180.414C98.1036 179.993 98.1627 179.55 98.1627 179.417C98.1627 174.374 94.4113 169.855 88.9837 169.855C87.7411 169.831 86.5059 170.052 85.3495 170.508C84.193 170.963 83.1381 171.643 82.2457 172.507C81.3532 173.372 80.6408 174.405 80.1496 175.547C79.6585 176.688 79.3982 177.916 79.3838 179.159C79.3838 184.593 84.3019 188.757 89.4711 188.757C89.7074 188.757 89.8994 188.757 90.1283 188.757C90.2243 188.757 90.3203 188.757 90.4237 188.757C102.172 188.757 109.048 183.367 114.623 167.108L127.664 132.205H153.554L158.723 187.185H164.587L158.103 113.842L127.117 113.812Z" fill="#1A1A1A"/>
<path d="M88.5185 78.8294H88.585C99.8169 78.8294 104.041 72.3613 106.219 62.5852L114.549 22.2996H159.521V77.2788H165.591V3.91406H112.09L100.024 62.5631C99.2261 66.7127 98.4802 68.6177 97.1141 70.028C97.1535 69.8611 97.1733 69.6901 97.1732 69.5185C97.1732 64.4754 93.4292 59.9197 87.9942 59.9197C86.7532 59.9021 85.5209 60.1303 84.3685 60.591C83.216 61.0517 82.1661 61.7359 81.2793 62.6041C80.3924 63.4723 79.6862 64.5074 79.2012 65.6498C78.7162 66.7921 78.462 68.0191 78.4534 69.2601C78.4534 74.6945 83.3419 78.8294 88.5185 78.8294Z" fill="#1A1A1A"/>
</g>
<defs>
<clipPath id="clip0_7_274">
<rect width="256" height="201" fill="white"/>
</clipPath>
</defs>
</svg>
