<svg width="40" height="41" viewBox="0 0 40 41" fill="none" xmlns="http://www.w3.org/2000/svg">
<path d="M19.9964 0.324219C14.5686 0.324219 13.8826 0.324335 11.7503 0.443627C10.0911 0.475578 8.44957 0.790769 6.89656 1.3756C5.56824 1.88798 4.36181 2.67258 3.35509 3.6793C2.34836 4.68603 1.56358 5.89246 1.05119 7.22078C0.466368 8.77379 0.151177 10.4151 0.119226 12.0743C0.0223017 14.2066 0 14.8926 0 20.3204C0 25.7482 -6.55263e-05 26.4342 0.119226 28.5665C0.149563 30.2258 0.464806 31.8678 1.05119 33.4204C1.56473 34.7489 2.34985 35.9555 3.35636 36.9633C4.36287 37.9711 5.56869 38.7576 6.89656 39.2728C8.45158 39.8505 10.0919 40.1655 11.7503 40.2048C13.8826 40.3017 14.5686 40.3242 19.9964 40.3242C25.4241 40.3242 26.1099 40.3241 28.2423 40.2048C29.9008 40.1671 31.5414 39.8521 33.096 39.2728C34.4257 38.7593 35.6333 37.9734 36.6413 36.9655C37.6492 35.9576 38.4353 34.7501 38.9488 33.4204C39.5317 31.8668 39.8468 30.2254 39.8808 28.5665C39.9777 26.4342 40 25.7556 40 20.3204C40 14.8852 40.0001 14.2066 39.8808 12.0743C39.8452 10.4155 39.5301 8.77477 38.9488 7.22078C38.4364 5.89126 37.6507 4.68399 36.6425 3.67712C35.6344 2.67025 34.4261 1.8863 33.096 1.3756C31.5434 0.789207 29.9016 0.473964 28.2423 0.443627C26.1099 0.346702 25.4316 0.324219 19.9964 0.324219ZM19.9964 3.9254C25.3421 3.9254 25.9608 3.92515 28.0783 4.04445C29.3512 4.0556 30.6126 4.288 31.8061 4.73068C32.6759 5.04927 33.4632 5.55882 34.11 6.22183C34.7741 6.86487 35.2839 7.64966 35.6012 8.51789C36.0457 9.7112 36.2802 10.9724 36.2945 12.2458C36.3914 14.3557 36.4065 14.9897 36.4065 20.328C36.4065 25.6664 36.4064 26.2925 36.2945 28.41C36.282 29.6835 36.0474 30.945 35.6012 32.1378C35.2723 33.0024 34.7641 33.7875 34.11 34.4415C33.456 35.0956 32.6707 35.6038 31.8061 35.9327C30.6133 36.3789 29.3518 36.6137 28.0783 36.6262C25.9683 36.7231 25.3421 36.738 19.9964 36.738C14.6506 36.738 14.0317 36.738 11.9143 36.6262C10.6409 36.6119 9.3797 36.3772 8.18639 35.9327C7.31816 35.6154 6.53301 35.1056 5.88997 34.4415C5.22852 33.7934 4.71921 33.0067 4.39882 32.1378C3.95613 30.9443 3.7241 29.6829 3.71295 28.41C3.61602 26.3 3.59372 25.6664 3.59372 20.328C3.59372 14.9897 3.59365 14.3632 3.71295 12.2458C3.7259 10.973 3.95787 9.71193 4.39882 8.51789C4.73382 7.65686 5.24431 6.87513 5.89761 6.22183C6.55091 5.56853 7.33282 5.05804 8.19386 4.72304C9.38789 4.28209 10.6489 4.05012 11.9217 4.03717C14.0317 3.94024 14.6655 3.91776 20.0038 3.91776" fill="#12100B"/>
<path d="M19.5114 27.2171C18.1931 27.2171 16.9045 26.8264 15.8083 26.094C14.7122 25.3616 13.8578 24.3206 13.3534 23.1026C12.8489 21.8847 12.7168 20.5443 12.974 19.2513C13.2312 17.9584 13.8661 16.7709 14.7983 15.8387C15.7304 14.9066 16.9181 14.2717 18.2111 14.0145C19.504 13.7573 20.8442 13.8893 22.0622 14.3938C23.2801 14.8983 24.3212 15.7525 25.0536 16.8486C25.786 17.9447 26.1768 19.2334 26.1768 20.5517C26.1768 22.3195 25.4746 24.0151 24.2246 25.2651C22.9746 26.5151 21.2792 27.2171 19.5114 27.2171ZM19.5114 10.2852C17.4791 10.2852 15.4923 10.8881 13.8026 12.0173C12.1129 13.1466 10.7961 14.7517 10.0187 16.6295C9.24126 18.5072 9.03824 20.5732 9.43527 22.5664C9.8323 24.5596 10.8116 26.3904 12.2492 27.8269C13.6868 29.2635 15.5181 30.2411 17.5115 30.6367C19.505 31.0322 21.5711 30.8278 23.4483 30.0491C25.3255 29.2703 26.9295 27.9524 28.0575 26.2619C29.1855 24.5713 29.787 22.5841 29.7855 20.5517C29.7855 19.2029 29.5196 17.8675 29.0031 16.6215C28.4867 15.3754 27.7298 14.2431 26.7757 13.2897C25.8216 12.3362 24.6889 11.5801 23.4425 11.0646C22.196 10.5491 20.8603 10.2842 19.5114 10.2852Z" fill="#12100B"/>
<path d="M32.589 9.87747C32.589 10.3523 32.4483 10.8166 32.1845 11.2114C31.9207 11.6062 31.5458 11.9136 31.1071 12.0953C30.6684 12.277 30.1856 12.3248 29.7199 12.2321C29.2542 12.1395 28.8264 11.9108 28.4907 11.575C28.1549 11.2393 27.9264 10.8113 27.8338 10.3456C27.7411 9.87994 27.7886 9.39729 27.9703 8.95861C28.152 8.51993 28.4597 8.14518 28.8546 7.88139C29.2494 7.61759 29.7134 7.47656 30.1882 7.47656C30.825 7.47656 31.4356 7.72968 31.8858 8.17991C32.336 8.63014 32.589 9.24075 32.589 9.87747Z" fill="#12100B"/>
</svg>
