<svg width="81" height="83" viewBox="0 0 81 83" fill="none" xmlns="http://www.w3.org/2000/svg">
<path d="M15.1667 73.8249C31.7376 87.0418 55.5749 84.583 69.6425 66.9506L72.1311 63.8347C85.9402 46.5272 83.2079 22.4858 66.6665 9.2763C50.1251 -3.93319 26.1401 -1.17168 12.331 16.1358L9.84982 19.2517C-4.2399 36.8841 -1.28607 60.704 15.1667 73.8249ZM23.6811 31.3537L27.2109 26.9234C39.388 11.6686 56.4389 4.59501 64.9681 11.4176C73.4972 18.2402 70.4769 36.478 58.322 51.7328L54.7922 56.163C42.556 71.499 25.5051 78.5726 16.8873 71.6689C8.26952 64.7651 11.4449 46.6749 23.6811 31.3537Z" fill="#1A1A1A"/>
</svg>
