<svg width="81" height="81" viewBox="0 0 81 81" fill="none" xmlns="http://www.w3.org/2000/svg">
<path d="M65.6094 11.5077C49.6587 -3.84308 25.4744 -3.37791 10.7717 11.8917C-3.93089 27.1612 -3.38444 51.2691 12.5662 66.6199L15.4388 69.3888C31.6848 85.0275 55.655 84.3482 70.2838 69.1525C84.9126 53.9568 84.7427 29.9154 68.4819 14.2766L65.6094 11.5077ZM68.3121 67.2549C60.7503 75.1186 42.9167 70.3413 28.7753 56.77L24.6916 52.8418C10.624 39.3074 5.16687 21.6751 12.736 13.8188C20.3052 5.9625 38.2053 10.6512 52.2655 24.156L56.3491 28.0842C70.4979 41.6924 75.9551 59.3174 68.3121 67.2549Z" fill="#1A1A1A"/>
</svg>
