<svg width="143" height="59" viewBox="0 0 143 59" fill="none" xmlns="http://www.w3.org/2000/svg">
<path d="M130.004 18.8695C131.483 14.9201 131.184 10.0556 129.03 6.7696C127.414 4.19818 125.009 2.19788 122.164 1.05663C119.318 -0.0846316 116.178 -0.307992 113.195 0.418699C99.6313 3.69856 86.6296 9.09129 73.5779 13.9312L71.3495 14.7481C71.4174 12.3866 70.7652 10.0591 69.4769 8.06557C65.7755 2.41488 60.1142 0.842502 53.6165 1.71467C39.0388 3.66843 24.5985 6.51154 10.3792 10.2276C3.27596 12.0702 -1.74877 20.1654 0.573191 27.2227C2.93261 34.4027 10.2356 38.8926 17.8444 36.878C20.1456 36.2761 22.455 35.7007 24.7728 35.1521C24.7695 35.162 24.7695 35.1728 24.7728 35.1828C22.4259 40.4342 22.0951 45.7225 25.8714 50.5379C29.0547 54.5917 35.409 57.4109 40.6334 55.4884L57.8796 49.1314C57.9608 49.3341 58.0357 49.5368 58.123 49.7456C59.3328 52.548 61.3703 54.9282 63.9713 56.5776C66.5723 58.2269 69.6169 59.0693 72.7102 58.9955C76.2431 58.928 79.0082 57.6688 82.2228 56.4957C87.4368 54.5917 92.732 52.9374 98.1083 51.5329C103.485 50.1284 108.915 48.9799 114.4 48.0872C115.473 47.9091 116.547 47.7371 117.62 47.5897C118.338 47.4976 119.056 47.4116 119.78 47.3379C122.826 47.0001 125.884 46.7237 128.943 46.564C136.258 46.1218 143.343 40.5264 142.987 32.7444C142.625 25.939 137.288 19.1274 130.004 18.8695Z" fill="white"/>
</svg>
