<svg width="203" height="54" viewBox="0 0 203 54" fill="none" xmlns="http://www.w3.org/2000/svg">
<path d="M202.992 32.7491C202.724 26.4907 197.874 20.1129 191.382 20.5468L176.934 21.5284C176.209 20.1101 175.218 18.8617 174.019 17.8594C172.821 16.857 171.44 16.1218 169.963 15.6983C157.22 12.1154 143.984 10.8697 130.839 12.0159C130.161 9.46501 128.715 7.21345 126.718 5.59835C124.721 3.98325 122.28 3.09152 119.76 3.05667C100.798 2.65264 81.8369 3.86237 63.061 6.674C58.8917 7.28141 54.7429 7.99185 50.6097 8.7728C48.6489 2.90482 42.4929 -1.59651 36.4246 0.540265C24.2313 4.83008 13.4158 11.1862 3.29689 19.4567C-0.315174 22.4015 -0.702193 28.8118 0.897434 32.7871C2.60542 37.0389 6.91407 40.5478 11.5065 40.2875C16.711 39.965 21.8956 39.3531 27.0385 38.4544C26.9044 39.2196 26.8542 39.9984 26.8888 40.7756C27.1055 45.9331 30.2996 51.3998 35.4081 52.5441C45.6148 54.8273 55.9865 53.8891 66.3067 53.2979C76.2915 52.7231 86.2711 52.0289 96.2352 51.3564L157.124 47.2618L163.688 46.8171C172.919 46.6707 182.156 46.0687 191.392 44.9515C194.571 44.5719 197.254 43.8668 199.602 41.3776C201.604 39.2625 203.121 35.797 202.992 32.7491Z" fill="white"/>
</svg>
