<svg width="224" height="50" viewBox="0 0 224 50" fill="none" xmlns="http://www.w3.org/2000/svg">
<path d="M4.21094 16.8828C3.33594 16.3411 2.65625 15.6901 2.17188 14.9297C1.6875 14.1745 1.44271 13.362 1.4375 12.4922C1.4375 11.9818 1.52865 11.4948 1.71094 11.0312C1.89323 10.5677 2.14844 10.1615 2.47656 9.8125C2.80469 9.46354 3.20833 9.1875 3.6875 8.98438C4.16146 8.77604 4.69271 8.67188 5.28125 8.67188C5.79167 8.67188 6.27344 8.76562 6.72656 8.95312C7.17969 9.14062 7.60417 9.39323 8 9.71094L8.5625 8.64062L9.67969 9.1875L8.94531 10.5469C9.52344 11.2188 9.96875 12.0052 10.2812 12.9062C10.5938 13.8073 10.75 14.7474 10.75 15.7266C10.75 16.2578 10.6719 16.75 10.5156 17.2031C11.3906 17.151 12.1536 16.987 12.8047 16.7109C13.4609 16.4401 13.9453 16.0859 14.2578 15.6484L15.1172 16.4609C14.9245 16.7057 14.6849 16.9453 14.3984 17.1797C14.112 17.4089 13.7656 17.612 13.3594 17.7891C12.9531 17.9714 12.4896 18.1198 11.9688 18.2344C11.4479 18.349 10.8672 18.4036 10.2266 18.3984H10.0312C9.67708 18.9297 9.20573 19.3516 8.61719 19.6641C8.02344 19.9714 7.3099 20.125 6.47656 20.125C6.22135 20.125 6.00521 20.1146 5.82812 20.0938C5.65104 20.0729 5.49219 20.0469 5.35156 20.0156C5.20573 19.9844 5.0651 19.9583 4.92969 19.9375C4.78906 19.9167 4.6224 19.9062 4.42969 19.9062C4.34635 19.9062 4.25521 19.9115 4.15625 19.9219C4.0625 19.9323 3.97396 19.9479 3.89062 19.9688C3.79688 19.9896 3.70052 20.0104 3.60156 20.0312L2.71875 19.6797L4.21094 16.8828ZM2.67188 12.4922C2.67188 13.112 2.85417 13.7109 3.21875 14.2891C3.58333 14.8672 4.09896 15.3724 4.76562 15.8047L7.40625 10.8125C7.09896 10.526 6.75781 10.3047 6.38281 10.1484C6.00781 9.99219 5.61979 9.91667 5.21875 9.92188C4.82292 9.92188 4.46615 9.98698 4.14844 10.1172C3.83594 10.2526 3.57031 10.4375 3.35156 10.6719C3.13281 10.9062 2.96615 11.1771 2.85156 11.4844C2.73177 11.7917 2.67188 12.1276 2.67188 12.4922ZM5.875 16.3359C6.35417 16.5599 6.86979 16.7448 7.42188 16.8906C7.97396 17.0365 8.57292 17.1224 9.21875 17.1484C9.30208 16.9141 9.36979 16.6693 9.42188 16.4141C9.47396 16.1589 9.5026 15.8932 9.50781 15.6172C9.50781 14.8516 9.40104 14.138 9.1875 13.4766C8.97396 12.8203 8.6849 12.237 8.32031 11.7266L5.875 16.3359ZM6.39844 19.1328C6.84635 19.1328 7.23698 19.0547 7.57031 18.8984C7.89844 18.737 8.17969 18.5234 8.41406 18.2578C7.83594 18.2161 7.28906 18.1224 6.77344 17.9766C6.25781 17.8307 5.76562 17.6458 5.29688 17.4219L4.46094 18.9922C4.51302 18.9818 4.5651 18.9766 4.61719 18.9766C4.66406 18.9766 4.71354 18.9766 4.76562 18.9766C4.9375 18.9766 5.08594 18.9844 5.21094 19C5.33594 19.0156 5.45312 19.0339 5.5625 19.0547C5.67708 19.0755 5.79688 19.0938 5.92188 19.1094C6.04688 19.125 6.20573 19.1328 6.39844 19.1328ZM19.8203 20.125C19.2682 20.125 18.8359 19.9714 18.5234 19.6641C18.2161 19.3568 18.0625 18.9505 18.0625 18.4453C18.0625 18.2839 18.0781 18.1146 18.1094 17.9375C17.5104 18.651 16.9271 19.1927 16.3594 19.5625C15.7865 19.9323 15.2396 20.1146 14.7188 20.1094C14.2708 20.1094 13.9193 19.9818 13.6641 19.7266C13.4089 19.4714 13.2786 19.099 13.2734 18.6094C13.2734 18.4167 13.2917 18.2292 13.3281 18.0469C13.3594 17.8646 13.4062 17.6667 13.4688 17.4531L15.2266 12.9922H16.5703L14.7656 17.5078C14.625 17.8724 14.5547 18.1432 14.5547 18.3203C14.5547 18.5234 14.6042 18.6693 14.7031 18.7578C14.7969 18.8464 14.9245 18.8932 15.0859 18.8984C15.3307 18.8984 15.6536 18.7422 16.0547 18.4297C16.4557 18.1224 16.8828 17.6979 17.3359 17.1562C17.7891 16.6198 18.237 15.9948 18.6797 15.2812C19.1224 14.5677 19.5078 13.8047 19.8359 12.9922H21.1953L19.5781 17.0391C19.4948 17.2526 19.4375 17.4427 19.4062 17.6094C19.375 17.776 19.3594 17.9219 19.3594 18.0469C19.3594 18.3229 19.4297 18.5339 19.5703 18.6797C19.7161 18.8255 19.9167 18.8984 20.1719 18.8984C20.4167 18.8984 20.6849 18.8203 20.9766 18.6641C21.263 18.5078 21.5651 18.2891 21.8828 18.0078C22.2005 17.7266 22.5339 17.3854 22.8828 16.9844C23.2318 16.5833 23.5859 16.138 23.9453 15.6484L24.8125 16.4609C24.4167 16.9818 24.026 17.4688 23.6406 17.9219C23.25 18.3698 22.849 18.7552 22.4375 19.0781C22.026 19.401 21.6042 19.6589 21.1719 19.8516C20.7396 20.0339 20.2891 20.125 19.8203 20.125ZM25.0312 18.4141C25.5833 18.138 26.0938 17.8516 26.5625 17.5547C27.0312 17.2578 27.4375 16.9557 27.7812 16.6484C28.125 16.3464 28.388 16.0443 28.5703 15.7422C28.7578 15.4453 28.8516 15.1589 28.8516 14.8828C28.8516 14.6172 28.7734 14.4193 28.6172 14.2891C28.4609 14.1589 28.263 14.0938 28.0234 14.0938C27.5234 14.0938 27.0182 14.3047 26.5078 14.7266C26.0026 15.1484 25.4297 15.7448 24.7891 16.5156L23.9062 15.6797C24.6406 14.7734 25.3698 14.0781 26.0938 13.5938C26.8125 13.1094 27.5234 12.8672 28.2266 12.8672C28.8151 12.8672 29.2865 13.0365 29.6406 13.375C30 13.7188 30.1797 14.1771 30.1797 14.75C30.1797 15.4219 29.9323 16.0625 29.4375 16.6719C28.9427 17.2812 28.2734 17.8516 27.4297 18.3828C27.7734 18.4453 28.0625 18.5807 28.2969 18.7891C28.5365 18.9974 28.6953 19.2682 28.7734 19.6016C29.5859 19.237 30.4115 18.7344 31.25 18.0938C32.0938 17.4531 32.8672 16.638 33.5703 15.6484L34.4375 16.4609C33.6354 17.5495 32.7839 18.4297 31.8828 19.1016C30.9818 19.7734 29.9661 20.3229 28.8359 20.75C28.763 21.2708 28.5911 21.776 28.3203 22.2656C28.0547 22.75 27.724 23.1771 27.3281 23.5469C26.9323 23.9167 26.4948 24.2083 26.0156 24.4219C25.5312 24.6406 25.0365 24.75 24.5312 24.75C23.9896 24.75 23.5677 24.612 23.2656 24.3359C22.9688 24.0599 22.8203 23.7031 22.8203 23.2656C22.8203 22.9896 22.901 22.7109 23.0625 22.4297C23.224 22.1536 23.5208 21.8724 23.9531 21.5859C24.1458 21.4557 24.3854 21.3229 24.6719 21.1875C24.9531 21.0469 25.2526 20.9062 25.5703 20.7656C25.888 20.625 26.2188 20.4974 26.5625 20.3828C26.9062 20.263 27.237 20.1562 27.5547 20.0625C27.5234 19.7865 27.4141 19.5625 27.2266 19.3906C27.0391 19.2188 26.7656 19.1328 26.4062 19.1328C26.2552 19.1328 26.112 19.151 25.9766 19.1875C25.8411 19.2188 25.7318 19.2604 25.6484 19.3125L25.0312 18.4141ZM24.6406 23.7109C24.9271 23.7109 25.2161 23.638 25.5078 23.4922C25.7943 23.3464 26.0599 23.1589 26.3047 22.9297C26.5495 22.6953 26.763 22.4271 26.9453 22.125C27.1276 21.8281 27.2552 21.5208 27.3281 21.2031C26.7188 21.3958 26.1875 21.5885 25.7344 21.7812C25.276 21.9792 24.9115 22.1693 24.6406 22.3516C24.3958 22.513 24.237 22.6615 24.1641 22.7969C24.0911 22.9375 24.0547 23.0729 24.0547 23.2031C24.0547 23.3542 24.1068 23.4766 24.2109 23.5703C24.3151 23.6641 24.4583 23.7109 24.6406 23.7109ZM38.8594 20.125C38.3802 20.125 37.9766 19.9974 37.6484 19.7422C37.3203 19.487 37.1536 19.099 37.1484 18.5781C37.1484 18.4271 37.1641 18.2604 37.1953 18.0781C36.6276 18.7292 36.0755 19.2292 35.5391 19.5781C35.0026 19.9271 34.4297 20.099 33.8203 20.0938C33.3516 20.0938 32.9896 19.9583 32.7344 19.6875C32.4792 19.4167 32.3516 19.026 32.3516 18.5156C32.3516 18.1198 32.4297 17.7031 32.5859 17.2656C32.7474 16.8281 32.9661 16.401 33.2422 15.9844C33.5182 15.5677 33.8385 15.1719 34.2031 14.7969C34.5677 14.4219 34.9479 14.0938 35.3438 13.8125C35.7396 13.5312 36.1406 13.3073 36.5469 13.1406C36.9583 12.974 37.3516 12.8932 37.7266 12.8984C38.1328 12.8984 38.4766 12.9818 38.7578 13.1484C39.0391 13.3203 39.2812 13.5625 39.4844 13.875L38.3828 14.4609C38.2995 14.3568 38.1953 14.2708 38.0703 14.2031C37.9453 14.1354 37.7865 14.099 37.5938 14.0938C37.349 14.0938 37.0833 14.1667 36.7969 14.3125C36.5104 14.4583 36.2188 14.651 35.9219 14.8906C35.6302 15.1302 35.3464 15.3984 35.0703 15.6953C34.7943 15.9922 34.5469 16.2969 34.3281 16.6094C34.1094 16.9167 33.9349 17.2188 33.8047 17.5156C33.6745 17.8073 33.612 18.0651 33.6172 18.2891C33.6172 18.4714 33.6589 18.6172 33.7422 18.7266C33.8255 18.8411 33.9635 18.8984 34.1562 18.8984C34.3906 18.8984 34.6823 18.7812 35.0312 18.5469C35.3802 18.3125 35.737 18.0026 36.1016 17.6172C36.4714 17.2318 36.8359 16.7969 37.1953 16.3125C37.5599 15.8281 37.8854 15.3281 38.1719 14.8125L39.3281 15.3438L38.9609 16.2266C38.8099 16.5807 38.6771 16.9193 38.5625 17.2422C38.4479 17.5651 38.3932 17.8333 38.3984 18.0469C38.3984 18.6146 38.6745 18.8984 39.2266 18.8984C39.4714 18.8984 39.7396 18.8203 40.0312 18.6641C40.3177 18.5078 40.625 18.2891 40.9531 18.0078C41.276 17.7266 41.612 17.3854 41.9609 16.9844C42.3099 16.5833 42.6589 16.138 43.0078 15.6484L43.8672 16.4609C43.4714 16.9818 43.0781 17.4688 42.6875 17.9219C42.2917 18.3698 41.888 18.7552 41.4766 19.0781C41.0651 19.401 40.6432 19.6589 40.2109 19.8516C39.7786 20.0339 39.3281 20.125 38.8594 20.125ZM47.2422 11.8047C46.6328 11.8047 46.1823 11.6536 45.8906 11.3516C45.599 11.0495 45.4531 10.6901 45.4531 10.2734C45.4531 10.0911 45.4688 9.95312 45.5 9.85938C45.5208 9.80729 45.5417 9.7526 45.5625 9.69531H46.6172C46.6068 9.72656 46.5964 9.76302 46.5859 9.80469C46.5651 9.90885 46.5547 10.0052 46.5547 10.0938C46.5547 10.3073 46.6172 10.4844 46.7422 10.625C46.8672 10.7656 47.0651 10.8333 47.3359 10.8281C47.5911 10.8281 47.8203 10.7786 48.0234 10.6797C48.2266 10.5807 48.3984 10.4661 48.5391 10.3359C48.7005 10.1849 48.8438 10.013 48.9688 9.82031L49.8828 10.3984C49.7109 10.6641 49.4974 10.8984 49.2422 11.1016C49.0286 11.2839 48.7578 11.4479 48.4297 11.5938C48.0964 11.7344 47.7005 11.8047 47.2422 11.8047ZM48.5703 20.125C48.0182 20.125 47.5859 19.9714 47.2734 19.6641C46.9661 19.3568 46.8125 18.9505 46.8125 18.4453C46.8125 18.2839 46.8281 18.1146 46.8594 17.9375C46.2604 18.651 45.6771 19.1927 45.1094 19.5625C44.5365 19.9323 43.9896 20.1146 43.4688 20.1094C43.0208 20.1094 42.6693 19.9818 42.4141 19.7266C42.1589 19.4714 42.0286 19.099 42.0234 18.6094C42.0234 18.4167 42.0417 18.2292 42.0781 18.0469C42.1094 17.8646 42.1562 17.6667 42.2188 17.4531L43.9766 12.9922H45.3203L43.5156 17.5078C43.375 17.8724 43.3047 18.1432 43.3047 18.3203C43.3047 18.5234 43.3542 18.6693 43.4531 18.7578C43.5469 18.8464 43.6745 18.8932 43.8359 18.8984C44.0807 18.8984 44.4036 18.7422 44.8047 18.4297C45.2057 18.1224 45.6328 17.6979 46.0859 17.1562C46.5391 16.6198 46.987 15.9948 47.4297 15.2812C47.8724 14.5677 48.2578 13.8047 48.5859 12.9922H49.9453L48.3281 17.0391C48.2448 17.2526 48.1875 17.4427 48.1562 17.6094C48.125 17.776 48.1094 17.9219 48.1094 18.0469C48.1094 18.3229 48.1797 18.5339 48.3203 18.6797C48.4661 18.8255 48.6667 18.8984 48.9219 18.8984C49.1667 18.8984 49.4349 18.8203 49.7266 18.6641C50.013 18.5078 50.3151 18.2891 50.6328 18.0078C50.9505 17.7266 51.2839 17.3854 51.6328 16.9844C51.9818 16.5833 52.3359 16.138 52.6953 15.6484L53.5625 16.4609C53.1667 16.9818 52.776 17.4688 52.3906 17.9219C52 18.3698 51.599 18.7552 51.1875 19.0781C50.776 19.401 50.3542 19.6589 49.9219 19.8516C49.4896 20.0339 49.0391 20.125 48.5703 20.125ZM61.125 18.4141C60.7292 18.9245 60.2839 19.3385 59.7891 19.6562C59.2995 19.9688 58.724 20.125 58.0625 20.125C57.5521 20.125 57.1354 19.9792 56.8125 19.6875C56.4948 19.3958 56.3359 18.9505 56.3359 18.3516C56.3359 18.0859 56.3724 17.8099 56.4453 17.5234C56.5234 17.2318 56.6094 16.9479 56.7031 16.6719C55.9583 17 55.1901 17.1667 54.3984 17.1719C54.1953 17.1719 54.013 17.1615 53.8516 17.1406C53.6953 17.1146 53.5599 17.0911 53.4453 17.0703L52.2578 20H50.9297L53.7266 12.9922H55.0703L53.8906 15.9219C53.974 15.9427 54.0729 15.9583 54.1875 15.9688C54.3073 15.9792 54.4427 15.9844 54.5938 15.9844C55.0312 15.9844 55.4766 15.9219 55.9297 15.7969C56.3828 15.6667 56.8021 15.5 57.1875 15.2969L58.1016 12.9922H59.4453L57.8281 17.0391C57.6667 17.4557 57.5859 17.7917 57.5859 18.0469C57.5859 18.3333 57.6562 18.5443 57.7969 18.6797C57.9427 18.8151 58.1328 18.8828 58.3672 18.8828C58.987 18.8828 59.612 18.4505 60.2422 17.5859L61.125 18.4141ZM68.6875 20.125C67.75 20.125 67.0156 19.8906 66.4844 19.4219C65.9583 18.9531 65.6953 18.3411 65.6953 17.5859C65.6953 16.9661 65.8151 16.3698 66.0547 15.7969C66.2943 15.224 66.6094 14.7214 67 14.2891C67.3906 13.8516 67.8255 13.5 68.3047 13.2344C68.7891 12.9688 69.2786 12.8333 69.7734 12.8281C70.2214 12.8281 70.6042 12.9635 70.9219 13.2344C71.2396 13.5 71.401 13.8672 71.4062 14.3359C71.4062 14.6016 71.3646 14.8542 71.2812 15.0938C71.2031 15.3333 71.1172 15.5469 71.0234 15.7344C70.9297 15.9219 70.8385 16.0677 70.75 16.1719L70.6172 16.3203L69.5312 15.9688C69.651 15.8281 69.7578 15.6901 69.8516 15.5547C69.9349 15.4349 70.013 15.2995 70.0859 15.1484C70.1536 14.9974 70.1875 14.849 70.1875 14.7031C70.1875 14.4583 70.1276 14.2969 70.0078 14.2188C69.8828 14.1406 69.7448 14.099 69.5938 14.0938C69.3281 14.0938 69.0443 14.1953 68.7422 14.3984C68.4401 14.6016 68.1562 14.862 67.8906 15.1797C67.6302 15.4922 67.4115 15.8438 67.2344 16.2344C67.0573 16.625 66.9688 17.0052 66.9688 17.375C66.9688 17.8229 67.1198 18.1875 67.4219 18.4688C67.7188 18.75 68.1719 18.8932 68.7812 18.8984C69.849 18.8984 70.8828 18.6198 71.8828 18.0625C72.888 17.5104 73.8047 16.7057 74.6328 15.6484L75.5 16.4609C75.0938 16.9922 74.6458 17.4844 74.1562 17.9375C73.6667 18.3854 73.138 18.7708 72.5703 19.0938C72.0026 19.4167 71.3958 19.6719 70.75 19.8594C70.099 20.0365 69.4115 20.125 68.6875 20.125ZM79.9375 20.125C79.4583 20.125 79.0547 19.9974 78.7266 19.7422C78.3984 19.487 78.2318 19.099 78.2266 18.5781C78.2266 18.4271 78.2422 18.2604 78.2734 18.0781C77.7057 18.7292 77.1536 19.2292 76.6172 19.5781C76.0807 19.9271 75.5078 20.099 74.8984 20.0938C74.4297 20.0938 74.0677 19.9583 73.8125 19.6875C73.5573 19.4167 73.4297 19.026 73.4297 18.5156C73.4297 18.1198 73.5078 17.7031 73.6641 17.2656C73.8255 16.8281 74.0443 16.401 74.3203 15.9844C74.5964 15.5677 74.9167 15.1719 75.2812 14.7969C75.6458 14.4219 76.026 14.0938 76.4219 13.8125C76.8177 13.5312 77.2188 13.3073 77.625 13.1406C78.0365 12.974 78.4297 12.8932 78.8047 12.8984C79.2109 12.8984 79.5547 12.9818 79.8359 13.1484C80.1172 13.3203 80.3594 13.5625 80.5625 13.875L79.4609 14.4609C79.3776 14.3568 79.2734 14.2708 79.1484 14.2031C79.0234 14.1354 78.8646 14.099 78.6719 14.0938C78.4271 14.0938 78.1615 14.1667 77.875 14.3125C77.5885 14.4583 77.2969 14.651 77 14.8906C76.7083 15.1302 76.4245 15.3984 76.1484 15.6953C75.8724 15.9922 75.625 16.2969 75.4062 16.6094C75.1875 16.9167 75.013 17.2188 74.8828 17.5156C74.7526 17.8073 74.6901 18.0651 74.6953 18.2891C74.6953 18.4714 74.737 18.6172 74.8203 18.7266C74.9036 18.8411 75.0417 18.8984 75.2344 18.8984C75.4688 18.8984 75.7604 18.7812 76.1094 18.5469C76.4583 18.3125 76.8151 18.0026 77.1797 17.6172C77.5495 17.2318 77.9141 16.7969 78.2734 16.3125C78.638 15.8281 78.9635 15.3281 79.25 14.8125L80.4062 15.3438L80.0391 16.2266C79.888 16.5807 79.7552 16.9193 79.6406 17.2422C79.526 17.5651 79.4714 17.8333 79.4766 18.0469C79.4766 18.6146 79.7526 18.8984 80.3047 18.8984C80.5495 18.8984 80.8177 18.8203 81.1094 18.6641C81.3958 18.5078 81.7031 18.2891 82.0312 18.0078C82.3542 17.7266 82.6901 17.3854 83.0391 16.9844C83.388 16.5833 83.737 16.138 84.0859 15.6484L84.9453 16.4609C84.5495 16.9818 84.1562 17.4688 83.7656 17.9219C83.3698 18.3698 82.9661 18.7552 82.5547 19.0781C82.1432 19.401 81.7214 19.6589 81.2891 19.8516C80.8568 20.0339 80.4062 20.125 79.9375 20.125ZM88.3203 11.8047C87.7109 11.8047 87.2604 11.6536 86.9688 11.3516C86.6771 11.0495 86.5312 10.6901 86.5312 10.2734C86.5312 10.0911 86.5469 9.95312 86.5781 9.85938C86.599 9.80729 86.6198 9.7526 86.6406 9.69531H87.6953C87.6849 9.72656 87.6745 9.76302 87.6641 9.80469C87.6432 9.90885 87.6328 10.0052 87.6328 10.0938C87.6328 10.3073 87.6953 10.4844 87.8203 10.625C87.9453 10.7656 88.1432 10.8333 88.4141 10.8281C88.6693 10.8281 88.8984 10.7786 89.1016 10.6797C89.3047 10.5807 89.4766 10.4661 89.6172 10.3359C89.7786 10.1849 89.9219 10.013 90.0469 9.82031L90.9609 10.3984C90.7891 10.6641 90.5755 10.8984 90.3203 11.1016C90.1068 11.2839 89.8359 11.4479 89.5078 11.5938C89.1745 11.7344 88.7786 11.8047 88.3203 11.8047ZM89.6484 20.125C89.0964 20.125 88.6641 19.9714 88.3516 19.6641C88.0443 19.3568 87.8906 18.9505 87.8906 18.4453C87.8906 18.2839 87.9062 18.1146 87.9375 17.9375C87.3385 18.651 86.7552 19.1927 86.1875 19.5625C85.6146 19.9323 85.0677 20.1146 84.5469 20.1094C84.099 20.1094 83.7474 19.9818 83.4922 19.7266C83.237 19.4714 83.1068 19.099 83.1016 18.6094C83.1016 18.4167 83.1198 18.2292 83.1562 18.0469C83.1875 17.8646 83.2344 17.6667 83.2969 17.4531L85.0547 12.9922H86.3984L84.5938 17.5078C84.4531 17.8724 84.3828 18.1432 84.3828 18.3203C84.3828 18.5234 84.4323 18.6693 84.5312 18.7578C84.625 18.8464 84.7526 18.8932 84.9141 18.8984C85.1589 18.8984 85.4818 18.7422 85.8828 18.4297C86.2839 18.1224 86.7109 17.6979 87.1641 17.1562C87.6172 16.6198 88.0651 15.9948 88.5078 15.2812C88.9505 14.5677 89.3359 13.8047 89.6641 12.9922H91.0234L89.4062 17.0391C89.3229 17.2526 89.2656 17.4427 89.2344 17.6094C89.2031 17.776 89.1875 17.9219 89.1875 18.0469C89.1875 18.3229 89.2578 18.5339 89.3984 18.6797C89.5443 18.8255 89.7448 18.8984 90 18.8984C90.2448 18.8984 90.513 18.8203 90.8047 18.6641C91.0911 18.5078 91.3932 18.2891 91.7109 18.0078C92.0286 17.7266 92.362 17.3854 92.7109 16.9844C93.0599 16.5833 93.4141 16.138 93.7734 15.6484L94.6406 16.4609C94.2448 16.9818 93.8542 17.4688 93.4688 17.9219C93.0781 18.3698 92.6771 18.7552 92.2656 19.0781C91.8542 19.401 91.4323 19.6589 91 19.8516C90.5677 20.0339 90.1172 20.125 89.6484 20.125ZM94.8047 12.9922H96.1484L95.2422 15.2812C95.4766 15.0052 95.737 14.724 96.0234 14.4375C96.3099 14.1562 96.6068 13.901 96.9141 13.6719C97.2161 13.4427 97.5156 13.2552 97.8125 13.1094C98.1094 12.9635 98.388 12.8932 98.6484 12.8984C98.9922 12.8984 99.2578 13 99.4453 13.2031C99.638 13.4062 99.7344 13.6823 99.7344 14.0312C99.7344 14.1615 99.7161 14.3021 99.6797 14.4531C99.6432 14.6094 99.5964 14.7708 99.5391 14.9375C99.4818 15.1042 99.4193 15.2682 99.3516 15.4297C99.2891 15.5964 99.2318 15.75 99.1797 15.8906C99.5859 15.4115 99.974 15.0286 100.344 14.7422C100.719 14.4609 101.044 14.3203 101.32 14.3203C101.674 14.3203 101.966 14.4557 102.195 14.7266C102.424 14.9974 102.539 15.4583 102.539 16.1094C102.539 16.3542 102.531 16.6016 102.516 16.8516C102.5 17.0964 102.49 17.3411 102.484 17.5859C102.484 18.0339 102.552 18.3646 102.688 18.5781C102.823 18.7917 103.049 18.8984 103.367 18.8984C104.159 18.8984 105.359 17.8151 106.969 15.6484L107.836 16.4609C107.409 17.0286 107.003 17.5391 106.617 17.9922C106.232 18.4453 105.849 18.8281 105.469 19.1406C105.089 19.4531 104.706 19.6979 104.32 19.875C103.93 20.0469 103.521 20.1302 103.094 20.125C102.453 20.125 101.974 19.9453 101.656 19.5859C101.339 19.2214 101.18 18.6875 101.18 17.9844C101.18 17.6771 101.193 17.3672 101.219 17.0547C101.245 16.7474 101.258 16.4714 101.258 16.2266C101.258 16.013 101.221 15.8672 101.148 15.7891C101.081 15.7161 100.99 15.6797 100.875 15.6797C100.714 15.6797 100.487 15.8177 100.195 16.0938C99.9036 16.3698 99.5938 16.7214 99.2656 17.1484C98.9427 17.5755 98.625 18.0443 98.3125 18.5547C98.0052 19.0599 97.75 19.5417 97.5469 20H96.2031L98.1875 15.0391C98.25 14.8984 98.2812 14.7708 98.2812 14.6562C98.2812 14.4219 98.1693 14.3047 97.9453 14.3047C97.763 14.3047 97.5 14.4245 97.1562 14.6641C96.8125 14.9036 96.4297 15.2604 96.0078 15.7344C95.5807 16.2083 95.1354 16.8021 94.6719 17.5156C94.2083 18.224 93.763 19.0521 93.3359 20H92.0078L94.8047 12.9922ZM112.266 20.125C111.786 20.125 111.383 19.9974 111.055 19.7422C110.727 19.487 110.56 19.099 110.555 18.5781C110.555 18.4271 110.57 18.2604 110.602 18.0781C110.034 18.7292 109.482 19.2292 108.945 19.5781C108.409 19.9271 107.836 20.099 107.227 20.0938C106.758 20.0938 106.396 19.9583 106.141 19.6875C105.885 19.4167 105.758 19.026 105.758 18.5156C105.758 18.1198 105.836 17.7031 105.992 17.2656C106.154 16.8281 106.372 16.401 106.648 15.9844C106.924 15.5677 107.245 15.1719 107.609 14.7969C107.974 14.4219 108.354 14.0938 108.75 13.8125C109.146 13.5312 109.547 13.3073 109.953 13.1406C110.365 12.974 110.758 12.8932 111.133 12.8984C111.539 12.8984 111.883 12.9818 112.164 13.1484C112.445 13.3203 112.688 13.5625 112.891 13.875L111.789 14.4609C111.706 14.3568 111.602 14.2708 111.477 14.2031C111.352 14.1354 111.193 14.099 111 14.0938C110.755 14.0938 110.49 14.1667 110.203 14.3125C109.917 14.4583 109.625 14.651 109.328 14.8906C109.036 15.1302 108.753 15.3984 108.477 15.6953C108.201 15.9922 107.953 16.2969 107.734 16.6094C107.516 16.9167 107.341 17.2188 107.211 17.5156C107.081 17.8073 107.018 18.0651 107.023 18.2891C107.023 18.4714 107.065 18.6172 107.148 18.7266C107.232 18.8411 107.37 18.8984 107.562 18.8984C107.797 18.8984 108.089 18.7812 108.438 18.5469C108.786 18.3125 109.143 18.0026 109.508 17.6172C109.878 17.2318 110.242 16.7969 110.602 16.3125C110.966 15.8281 111.292 15.3281 111.578 14.8125L112.734 15.3438L112.367 16.2266C112.216 16.5807 112.083 16.9193 111.969 17.2422C111.854 17.5651 111.799 17.8333 111.805 18.0469C111.805 18.6146 112.081 18.8984 112.633 18.8984C112.878 18.8984 113.146 18.8203 113.438 18.6641C113.724 18.5078 114.031 18.2891 114.359 18.0078C114.682 17.7266 115.018 17.3854 115.367 16.9844C115.716 16.5833 116.065 16.138 116.414 15.6484L117.273 16.4609C116.878 16.9818 116.484 17.4688 116.094 17.9219C115.698 18.3698 115.294 18.7552 114.883 19.0781C114.471 19.401 114.049 19.6589 113.617 19.8516C113.185 20.0339 112.734 20.125 112.266 20.125ZM3.875 39.125C2.9375 39.125 2.20312 38.8906 1.67188 38.4219C1.14583 37.9531 0.882812 37.3411 0.882812 36.5859C0.882812 35.9661 1.0026 35.3698 1.24219 34.7969C1.48177 34.224 1.79688 33.7214 2.1875 33.2891C2.57812 32.8516 3.01302 32.5 3.49219 32.2344C3.97656 31.9688 4.46615 31.8333 4.96094 31.8281C5.40885 31.8281 5.79167 31.9635 6.10938 32.2344C6.42708 32.5 6.58854 32.8672 6.59375 33.3359C6.59375 33.6016 6.55208 33.8542 6.46875 34.0938C6.39062 34.3333 6.30469 34.5469 6.21094 34.7344C6.11719 34.9219 6.02604 35.0677 5.9375 35.1719L5.80469 35.3203L4.71875 34.9688C4.83854 34.8281 4.94531 34.6901 5.03906 34.5547C5.1224 34.4349 5.20052 34.2995 5.27344 34.1484C5.34115 33.9974 5.375 33.849 5.375 33.7031C5.375 33.4583 5.3151 33.2969 5.19531 33.2188C5.07031 33.1406 4.93229 33.099 4.78125 33.0938C4.51562 33.0938 4.23177 33.1953 3.92969 33.3984C3.6276 33.6016 3.34375 33.862 3.07812 34.1797C2.81771 34.4922 2.59896 34.8438 2.42188 35.2344C2.24479 35.625 2.15625 36.0052 2.15625 36.375C2.15625 36.8229 2.30729 37.1875 2.60938 37.4688C2.90625 37.75 3.35938 37.8932 3.96875 37.8984C5.03646 37.8984 6.07031 37.6198 7.07031 37.0625C8.07552 36.5104 8.99219 35.7057 9.82031 34.6484L10.6875 35.4609C10.2812 35.9922 9.83333 36.4844 9.34375 36.9375C8.85417 37.3854 8.32552 37.7708 7.75781 38.0938C7.1901 38.4167 6.58333 38.6719 5.9375 38.8594C5.28646 39.0365 4.59896 39.125 3.875 39.125ZM10.8516 31.9922H12.1953L11.2891 34.2812C11.5234 34.0052 11.7839 33.724 12.0703 33.4375C12.3568 33.1562 12.6536 32.901 12.9609 32.6719C13.263 32.4427 13.5625 32.2552 13.8594 32.1094C14.1562 31.9635 14.4349 31.8932 14.6953 31.8984C15.0391 31.8984 15.3047 32 15.4922 32.2031C15.6849 32.4062 15.7812 32.6823 15.7812 33.0312C15.7812 33.1615 15.763 33.3021 15.7266 33.4531C15.6901 33.6094 15.6432 33.7708 15.5859 33.9375C15.5286 34.1042 15.4661 34.2682 15.3984 34.4297C15.3359 34.5964 15.2786 34.75 15.2266 34.8906C15.6328 34.4115 16.0208 34.0286 16.3906 33.7422C16.7656 33.4609 17.0911 33.3203 17.3672 33.3203C17.7214 33.3203 18.013 33.4557 18.2422 33.7266C18.4714 33.9974 18.5859 34.4583 18.5859 35.1094C18.5859 35.3542 18.5781 35.6016 18.5625 35.8516C18.5469 36.0964 18.5365 36.3411 18.5312 36.5859C18.5312 37.0339 18.599 37.3646 18.7344 37.5781C18.8698 37.7917 19.0964 37.8984 19.4141 37.8984C20.2057 37.8984 21.4062 36.8151 23.0156 34.6484L23.8828 35.4609C23.4557 36.0286 23.0495 36.5391 22.6641 36.9922C22.2786 37.4453 21.8958 37.8281 21.5156 38.1406C21.1354 38.4531 20.7526 38.6979 20.3672 38.875C19.9766 39.0469 19.5677 39.1302 19.1406 39.125C18.5 39.125 18.0208 38.9453 17.7031 38.5859C17.3854 38.2214 17.2266 37.6875 17.2266 36.9844C17.2266 36.6771 17.2396 36.3672 17.2656 36.0547C17.2917 35.7474 17.3047 35.4714 17.3047 35.2266C17.3047 35.013 17.2682 34.8672 17.1953 34.7891C17.1276 34.7161 17.0365 34.6797 16.9219 34.6797C16.7604 34.6797 16.5339 34.8177 16.2422 35.0938C15.9505 35.3698 15.6406 35.7214 15.3125 36.1484C14.9896 36.5755 14.6719 37.0443 14.3594 37.5547C14.0521 38.0599 13.7969 38.5417 13.5938 39H12.25L14.2344 34.0391C14.2969 33.8984 14.3281 33.7708 14.3281 33.6562C14.3281 33.4219 14.2161 33.3047 13.9922 33.3047C13.8099 33.3047 13.5469 33.4245 13.2031 33.6641C12.8594 33.9036 12.4766 34.2604 12.0547 34.7344C11.6276 35.2083 11.1823 35.8021 10.7188 36.5156C10.2552 37.224 9.8099 38.0521 9.38281 39H8.05469L10.8516 31.9922ZM23.5469 39.125C23.0573 39.125 22.6797 38.9896 22.4141 38.7188C22.1484 38.4479 22.013 38.0391 22.0078 37.4922C22.0078 37.2266 22.0625 36.9297 22.1719 36.6016C22.276 36.2734 22.3984 35.9375 22.5391 35.5938L23.9609 31.9922H25.3203L23.5156 36.5078C23.375 36.8516 23.3047 37.1224 23.3047 37.3203C23.3047 37.5234 23.3542 37.6693 23.4531 37.7578C23.5469 37.8464 23.6693 37.8932 23.8203 37.8984C24.0443 37.8984 24.3542 37.7552 24.75 37.4688C25.1458 37.1875 25.5651 36.7917 26.0078 36.2812C26.4557 35.7708 26.9062 35.151 27.3594 34.4219C27.8125 33.6979 28.2214 32.888 28.5859 31.9922H29.9297L27.3203 38.5703C27.7474 38.3984 28.1901 38.1927 28.6484 37.9531C29.1068 37.7135 29.5599 37.4323 30.0078 37.1094C30.4557 36.7917 30.8932 36.4271 31.3203 36.0156C31.7474 35.6042 32.1484 35.1484 32.5234 34.6484L33.3828 35.4609C32.9245 36.0599 32.4479 36.5938 31.9531 37.0625C31.4583 37.5312 30.9349 37.9479 30.3828 38.3125C29.8359 38.6771 29.2578 38.9974 28.6484 39.2734C28.0391 39.5495 27.401 39.7995 26.7344 40.0234C26.224 41.2839 25.638 42.2135 24.9766 42.8125C24.3203 43.4167 23.6146 43.7188 22.8594 43.7188C22.349 43.7188 21.9635 43.5911 21.7031 43.3359C21.4479 43.0807 21.3203 42.7292 21.3203 42.2812C21.3203 41.8229 21.4453 41.4453 21.6953 41.1484C21.9453 40.8568 22.276 40.6016 22.6875 40.3828C23.099 40.1641 23.5729 39.9635 24.1094 39.7812C24.6406 39.599 25.1901 39.3854 25.7578 39.1406L26.5391 37.1953C25.9505 37.9193 25.4115 38.4219 24.9219 38.7031C24.4323 38.9844 23.974 39.125 23.5469 39.125ZM23.0469 42.6953C23.3906 42.6953 23.7526 42.5104 24.1328 42.1406C24.513 41.7708 24.8828 41.1875 25.2422 40.3906C24.9661 40.5208 24.6589 40.6406 24.3203 40.75C23.9818 40.8646 23.5911 41.0391 23.1484 41.2734C22.7318 41.487 22.5234 41.8125 22.5234 42.25C22.5234 42.3802 22.5703 42.487 22.6641 42.5703C22.7578 42.6536 22.8854 42.6953 23.0469 42.6953ZM32.9062 39.125C32.4375 39.125 32.0547 38.987 31.7578 38.7109C31.4661 38.4349 31.3203 38.0469 31.3203 37.5469C31.3203 37.1615 31.4036 36.7526 31.5703 36.3203C31.737 35.888 31.9583 35.4609 32.2344 35.0391C32.5104 34.6172 32.8307 34.2135 33.1953 33.8281C33.5651 33.4427 33.9505 33.1068 34.3516 32.8203C34.7526 32.5339 35.1615 32.3047 35.5781 32.1328C35.9948 31.9609 36.388 31.8776 36.7578 31.8828C37.1641 31.8828 37.5078 31.9792 37.7891 32.1719C38.0703 32.3646 38.3073 32.599 38.5 32.875L37.3984 33.4609C37.3151 33.3568 37.2109 33.2708 37.0859 33.2031C36.9609 33.1354 36.7995 33.099 36.6016 33.0938C36.3672 33.0938 36.1042 33.1667 35.8125 33.3125C35.526 33.4583 35.237 33.651 34.9453 33.8906C34.6536 34.1302 34.3672 34.401 34.0859 34.7031C33.8099 35.0052 33.5625 35.3125 33.3438 35.625C33.125 35.9323 32.9505 36.2344 32.8203 36.5312C32.6901 36.8229 32.6276 37.0755 32.6328 37.2891C32.6328 37.4714 32.6745 37.6172 32.7578 37.7266C32.8411 37.8411 32.9792 37.8984 33.1719 37.8984C33.4062 37.8984 33.6953 37.7812 34.0391 37.5469C34.3828 37.3125 34.7396 37.0026 35.1094 36.6172C35.4844 36.2318 35.8516 35.7969 36.2109 35.3125C36.5755 34.8281 36.901 34.3281 37.1875 33.8125L38.3281 34.3438L36.6328 38.5859C37.0599 38.4141 37.5052 38.2083 37.9688 37.9688C38.4323 37.7292 38.888 37.4453 39.3359 37.1172C39.7839 36.7943 40.2214 36.4271 40.6484 36.0156C41.0755 35.6042 41.474 35.1484 41.8438 34.6484L42.7109 35.4609C42.263 36.0599 41.7891 36.5938 41.2891 37.0625C40.7891 37.5312 40.263 37.9479 39.7109 38.3125C39.1641 38.6771 38.5885 38.9974 37.9844 39.2734C37.3802 39.5495 36.7422 39.7995 36.0703 40.0234C35.5495 41.2839 34.9583 42.2109 34.2969 42.8047C33.6354 43.4036 32.9193 43.7031 32.1484 43.7031C31.6693 43.7031 31.3021 43.5833 31.0469 43.3438C30.7917 43.1042 30.6641 42.776 30.6641 42.3594C30.6641 41.8802 30.7865 41.4896 31.0312 41.1875C31.276 40.8854 31.6016 40.6198 32.0078 40.3906C32.4141 40.1667 32.8828 39.9635 33.4141 39.7812C33.9453 39.599 34.5 39.3906 35.0781 39.1562L35.7656 37.4141C35.2865 37.9818 34.8099 38.4089 34.3359 38.6953C33.862 38.9818 33.3854 39.125 32.9062 39.125ZM32.4531 42.6016C32.7708 42.6016 33.1146 42.4245 33.4844 42.0703C33.8542 41.7161 34.2083 41.1562 34.5469 40.3906C34.2917 40.5104 34.0182 40.6198 33.7266 40.7188C33.4349 40.8177 33.1615 40.9271 32.9062 41.0469C32.5312 41.2292 32.276 41.4089 32.1406 41.5859C32.0052 41.763 31.9401 41.9583 31.9453 42.1719C31.9453 42.3021 31.9922 42.4036 32.0859 42.4766C32.1797 42.5599 32.3021 42.6016 32.4531 42.6016ZM47.7031 37.8984C48 37.8984 48.3099 37.7839 48.6328 37.5547C48.9505 37.3255 49.2604 37.0026 49.5625 36.5859L50.4375 37.4141C50.0417 37.9245 49.6016 38.3385 49.1172 38.6562C48.6328 38.9688 48.0547 39.125 47.3828 39.125C46.8307 39.125 46.4036 38.9714 46.1016 38.6641C45.8047 38.3568 45.6562 37.9505 45.6562 37.4453C45.6562 37.2839 45.6719 37.1146 45.7031 36.9375C45.1042 37.651 44.5208 38.1927 43.9531 38.5625C43.3802 38.9323 42.8333 39.1146 42.3125 39.1094C41.8646 39.1094 41.513 38.9818 41.2578 38.7266C41.0026 38.4714 40.8724 38.099 40.8672 37.6094C40.8672 37.4167 40.8854 37.2292 40.9219 37.0469C40.9531 36.8646 41 36.6667 41.0625 36.4531L42.8203 31.9922H44.1641L42.3594 36.5078C42.2188 36.8724 42.1484 37.1432 42.1484 37.3203C42.1484 37.5234 42.1979 37.6693 42.2969 37.7578C42.3906 37.8464 42.5182 37.8932 42.6797 37.8984C42.9245 37.8984 43.2474 37.7422 43.6484 37.4297C44.0495 37.1224 44.4766 36.6979 44.9297 36.1562C45.3828 35.6198 45.8307 34.9948 46.2734 34.2812C46.7161 33.5677 47.1016 32.8047 47.4297 31.9922H48.7891L47.1719 36.0391C47.0885 36.2526 47.0312 36.4427 47 36.6094C46.9688 36.776 46.9531 36.9219 46.9531 37.0469C46.9531 37.6146 47.2031 37.8984 47.7031 37.8984ZM60.8828 37.4141C60.4974 37.9245 60.0573 38.3385 59.5625 38.6562C59.0677 38.9688 58.4844 39.125 57.8125 39.125C57.599 39.125 57.3906 39.0938 57.1875 39.0312C56.9844 38.9688 56.8021 38.875 56.6406 38.75C56.4844 38.6198 56.3568 38.4583 56.2578 38.2656C56.1641 38.0729 56.1172 37.8542 56.1172 37.6094C56.1172 37.3646 56.1458 37.1042 56.2031 36.8281C56.2656 36.5469 56.3333 36.2839 56.4062 36.0391C56.0625 36.263 55.7266 36.4349 55.3984 36.5547C55.1745 36.9089 54.9219 37.2422 54.6406 37.5547C54.3646 37.8672 54.0573 38.1406 53.7188 38.375C53.3854 38.6094 53.0208 38.7943 52.625 38.9297C52.2344 39.0599 51.8099 39.125 51.3516 39.125C50.7734 39.125 50.3177 38.9583 49.9844 38.625C49.6458 38.2865 49.4766 37.8307 49.4766 37.2578C49.4766 37.0755 49.4922 36.9193 49.5234 36.7891C49.5339 36.7161 49.5495 36.6484 49.5703 36.5859H50.7734C50.763 36.638 50.7526 36.6901 50.7422 36.7422C50.7318 36.7943 50.724 36.8516 50.7188 36.9141C50.7135 36.9714 50.7109 37.0312 50.7109 37.0938C50.7109 37.3385 50.776 37.5339 50.9062 37.6797C51.0417 37.8255 51.2422 37.8984 51.5078 37.8984C52.0182 37.8984 52.4714 37.7708 52.8672 37.5156C53.263 37.2552 53.6094 36.9401 53.9062 36.5703C52.625 36.4766 51.987 35.8828 51.9922 34.7891C51.9922 34.4036 52.0677 34.0365 52.2188 33.6875C52.375 33.3333 52.5807 33.0234 52.8359 32.7578C53.0911 32.4922 53.3854 32.2839 53.7188 32.1328C54.0573 31.9766 54.4089 31.8984 54.7734 31.8984C55.263 31.8984 55.6432 32.0651 55.9141 32.3984C56.1901 32.7266 56.3281 33.1823 56.3281 33.7656C56.3281 33.9792 56.2943 34.2083 56.2266 34.4531C56.1641 34.6979 56.0859 34.9453 55.9922 35.1953C56.4609 34.8411 56.8438 34.3854 57.1406 33.8281L58.2812 34.3438C58.1875 34.5677 58.0859 34.8073 57.9766 35.0625C57.8672 35.3177 57.7656 35.5703 57.6719 35.8203C57.5833 36.0651 57.5104 36.2969 57.4531 36.5156C57.3958 36.7344 57.3672 36.9115 57.3672 37.0469C57.3672 37.3438 57.4401 37.5573 57.5859 37.6875C57.737 37.8177 57.9245 37.8828 58.1484 37.8828C58.7474 37.8828 59.3672 37.4505 60.0078 36.5859L60.8828 37.4141ZM54.0859 35.7656C54.3203 35.7344 54.5339 35.6667 54.7266 35.5625C54.8776 35.2865 55.0052 35.0052 55.1094 34.7188C55.2135 34.4271 55.2656 34.1693 55.2656 33.9453C55.2656 33.638 55.2188 33.401 55.125 33.2344C55.0312 33.0677 54.8776 32.9844 54.6641 32.9844C54.4818 32.9844 54.3047 33.0312 54.1328 33.125C53.9609 33.2135 53.8021 33.3385 53.6562 33.5C53.5156 33.6562 53.401 33.8438 53.3125 34.0625C53.2292 34.2812 53.1875 34.5182 53.1875 34.7734C53.1875 35.0495 53.263 35.2786 53.4141 35.4609C53.5651 35.6432 53.7891 35.7448 54.0859 35.7656ZM72.625 39.125C72.0938 39.125 71.6667 38.9609 71.3438 38.6328C71.026 38.3047 70.8672 37.8203 70.8672 37.1797C70.8672 36.9036 70.901 36.6146 70.9688 36.3125C71.0365 36.0156 71.1224 35.7109 71.2266 35.3984C71.3255 35.0911 71.4401 34.7786 71.5703 34.4609C71.7005 34.1484 71.8281 33.8333 71.9531 33.5156C71.4115 33.8229 70.8828 34.0286 70.3672 34.1328C69.8568 34.237 69.388 34.2917 68.9609 34.2969C68.6172 34.2969 68.3307 34.2812 68.1016 34.25C67.8672 34.2188 67.6797 34.1849 67.5391 34.1484L65.5859 39H64.2578L68.7344 27.7969H70.0859L67.9844 33.0312C68.1042 33.0521 68.263 33.0729 68.4609 33.0938C68.6589 33.1146 68.8854 33.125 69.1406 33.125C69.6823 33.125 70.2656 33.0339 70.8906 32.8516C71.5156 32.6641 72.0677 32.388 72.5469 32.0234L74.2266 27.7969H75.5859L72.2891 36.0391C72.138 36.4141 72.0625 36.7344 72.0625 37C72.0625 37.2865 72.1458 37.5078 72.3125 37.6641C72.4792 37.8203 72.7057 37.8984 72.9922 37.8984C73.237 37.8984 73.5104 37.8203 73.8125 37.6641C74.1094 37.5078 74.4219 37.2891 74.75 37.0078C75.0729 36.7266 75.4141 36.3854 75.7734 35.9844C76.1328 35.5833 76.487 35.138 76.8359 34.6484L77.6953 35.4609C77.2995 35.9818 76.9036 36.4688 76.5078 36.9219C76.1068 37.3698 75.6979 37.7552 75.2812 38.0781C74.8646 38.401 74.4375 38.6589 74 38.8516C73.5625 39.0339 73.1042 39.125 72.625 39.125ZM78.3203 39.125C77.9766 39.125 77.6771 39.0677 77.4219 38.9531C77.1667 38.8333 76.9531 38.6719 76.7812 38.4688C76.6094 38.2656 76.4792 38.0286 76.3906 37.7578C76.3021 37.487 76.2578 37.1979 76.2578 36.8906C76.2578 36.3021 76.362 35.7109 76.5703 35.1172C76.7786 34.5234 77.0625 33.9896 77.4219 33.5156C77.7865 33.0365 78.2057 32.6432 78.6797 32.3359C79.1536 32.0339 79.6615 31.8828 80.2031 31.8828C80.875 31.8828 81.3906 32.099 81.75 32.5312C82.1094 32.9635 82.2891 33.5312 82.2891 34.2344C82.2891 34.4688 82.2604 34.7135 82.2031 34.9688C82.151 35.224 82.0833 35.474 82 35.7188C82.276 36.0156 82.6589 36.1667 83.1484 36.1719C83.6797 36.1719 84.1589 36.0573 84.5859 35.8281C85.0078 35.6042 85.4245 35.2109 85.8359 34.6484L86.7031 35.4609C86.2344 36.0807 85.6979 36.5599 85.0938 36.8984C84.4896 37.237 83.7734 37.4036 82.9453 37.3984C82.6276 37.3984 82.3411 37.3542 82.0859 37.2656C81.8359 37.1771 81.6146 37.0573 81.4219 36.9062C81.2396 37.2135 81.0312 37.5026 80.7969 37.7734C80.5625 38.0443 80.3151 38.2786 80.0547 38.4766C79.7943 38.6745 79.5182 38.8333 79.2266 38.9531C78.9297 39.0677 78.6276 39.125 78.3203 39.125ZM80.0469 33.0938C79.7292 33.0938 79.4193 33.2083 79.1172 33.4375C78.8203 33.6667 78.5547 33.9583 78.3203 34.3125C78.0859 34.6667 77.8958 35.0469 77.75 35.4531C77.6042 35.8646 77.5312 36.2526 77.5312 36.6172C77.5312 36.9714 77.6042 37.2734 77.75 37.5234C77.8958 37.7734 78.138 37.8984 78.4766 37.8984C78.7734 37.8984 79.0755 37.7865 79.3828 37.5625C79.6849 37.3385 79.9557 37.0521 80.1953 36.7031C80.4349 36.3542 80.6302 35.9766 80.7812 35.5703C80.9323 35.1589 81.0078 34.7656 81.0078 34.3906C81.0078 33.9948 80.9271 33.6797 80.7656 33.4453C80.6042 33.2109 80.3646 33.0938 80.0469 33.0938ZM91.7188 37.3984C91.5052 37.3984 91.3073 37.375 91.125 37.3281C90.9427 37.2812 90.7786 37.224 90.6328 37.1562C90.4505 37.4219 90.2474 37.6745 90.0234 37.9141C89.7995 38.1484 89.5521 38.3568 89.2812 38.5391C89.0156 38.7161 88.737 38.8594 88.4453 38.9688C88.1536 39.0729 87.8464 39.125 87.5234 39.125C87.1172 39.125 86.7734 39.0625 86.4922 38.9375C86.2109 38.8073 85.9792 38.6354 85.7969 38.4219C85.6146 38.2083 85.4818 37.9557 85.3984 37.6641C85.3151 37.3724 85.2734 37.0599 85.2734 36.7266C85.2734 36.4818 85.3281 36.1406 85.4375 35.7031C85.5521 35.2656 85.7031 34.7812 85.8906 34.25C86.0833 33.7135 86.3047 33.1536 86.5547 32.5703C86.8099 31.9818 87.0755 31.4167 87.3516 30.875C87.6172 30.3333 87.9271 29.8333 88.2812 29.375C88.6406 28.9115 89.0208 28.5104 89.4219 28.1719C89.8229 27.8281 90.2422 27.5599 90.6797 27.3672C91.1172 27.1745 91.5547 27.0781 91.9922 27.0781C92.4505 27.0781 92.8307 27.2266 93.1328 27.5234C93.4401 27.8151 93.5938 28.2161 93.5938 28.7266C93.5938 29.3672 93.4115 29.9557 93.0469 30.4922C92.6823 31.0234 92.2083 31.5 91.625 31.9219C91.0469 32.3438 90.3854 32.7083 89.6406 33.0156C88.901 33.3229 88.1589 33.5729 87.4141 33.7656L86.9219 34.9844C86.7708 35.3281 86.6693 35.6276 86.6172 35.8828C86.5703 36.138 86.5469 36.3828 86.5469 36.6172C86.5469 37.0339 86.651 37.3516 86.8594 37.5703C87.0677 37.7891 87.349 37.8984 87.7031 37.8984C88.0781 37.8984 88.4271 37.7682 88.75 37.5078C89.0781 37.2422 89.3594 36.9193 89.5938 36.5391C89.3177 36.3359 89.1016 36.0938 88.9453 35.8125C88.7891 35.526 88.7109 35.2135 88.7109 34.875C88.7109 34.6615 88.7396 34.4557 88.7969 34.2578C88.8542 34.0599 88.9427 33.888 89.0625 33.7422C89.1823 33.5911 89.3359 33.474 89.5234 33.3906C89.7161 33.3021 89.9401 33.2578 90.1953 33.2578C90.5599 33.2578 90.8672 33.388 91.1172 33.6484C91.3672 33.9089 91.4922 34.2786 91.4922 34.7578C91.4922 34.9609 91.4688 35.1771 91.4219 35.4062C91.375 35.6354 91.3021 35.862 91.2031 36.0859C91.3073 36.1172 91.4193 36.1406 91.5391 36.1562C91.6589 36.1667 91.7839 36.1719 91.9141 36.1719C92.5026 36.1719 93.0417 36.0391 93.5312 35.7734C94.0208 35.5026 94.4401 35.1276 94.7891 34.6484L95.6562 35.4609C95.1875 36.0703 94.6302 36.5469 93.9844 36.8906C93.3385 37.2292 92.5833 37.3984 91.7188 37.3984ZM89.2031 30.2188C88.9583 30.5625 88.7422 30.9141 88.5547 31.2734C88.3724 31.6328 88.1901 32.0156 88.0078 32.4219C88.6589 32.2083 89.2474 31.9635 89.7734 31.6875C90.3047 31.4115 90.7578 31.1172 91.1328 30.8047C91.513 30.487 91.8073 30.1641 92.0156 29.8359C92.224 29.5026 92.3281 29.1771 92.3281 28.8594C92.3281 28.6458 92.2708 28.4844 92.1562 28.375C92.0469 28.2604 91.901 28.2031 91.7188 28.2031C91.375 28.2031 90.9844 28.3776 90.5469 28.7266C90.1094 29.0703 89.6615 29.5677 89.2031 30.2188ZM90.0703 34.4062C89.987 34.4062 89.9167 34.4427 89.8594 34.5156C89.8073 34.5833 89.7812 34.6745 89.7812 34.7891C89.7812 35.1172 89.9245 35.3646 90.2109 35.5312C90.2422 35.4115 90.2734 35.2917 90.3047 35.1719C90.3411 35.0469 90.3594 34.9297 90.3594 34.8203C90.3594 34.5443 90.263 34.4062 90.0703 34.4062ZM100.078 39.125C99.599 39.125 99.1953 38.9974 98.8672 38.7422C98.5391 38.487 98.3724 38.099 98.3672 37.5781C98.3672 37.4271 98.3828 37.2604 98.4141 37.0781C97.8464 37.7292 97.2943 38.2292 96.7578 38.5781C96.2214 38.9271 95.6484 39.099 95.0391 39.0938C94.5703 39.0938 94.2083 38.9583 93.9531 38.6875C93.6979 38.4167 93.5703 38.026 93.5703 37.5156C93.5703 37.1198 93.6484 36.7031 93.8047 36.2656C93.9661 35.8281 94.1849 35.401 94.4609 34.9844C94.737 34.5677 95.0573 34.1719 95.4219 33.7969C95.7865 33.4219 96.1667 33.0938 96.5625 32.8125C96.9583 32.5312 97.3594 32.3073 97.7656 32.1406C98.1771 31.974 98.5703 31.8932 98.9453 31.8984C99.3516 31.8984 99.6953 31.9818 99.9766 32.1484C100.258 32.3203 100.5 32.5625 100.703 32.875L99.6016 33.4609C99.5182 33.3568 99.4141 33.2708 99.2891 33.2031C99.1641 33.1354 99.0052 33.099 98.8125 33.0938C98.5677 33.0938 98.3021 33.1667 98.0156 33.3125C97.7292 33.4583 97.4375 33.651 97.1406 33.8906C96.849 34.1302 96.5651 34.3984 96.2891 34.6953C96.013 34.9922 95.7656 35.2969 95.5469 35.6094C95.3281 35.9167 95.1536 36.2188 95.0234 36.5156C94.8932 36.8073 94.8307 37.0651 94.8359 37.2891C94.8359 37.4714 94.8776 37.6172 94.9609 37.7266C95.0443 37.8411 95.1823 37.8984 95.375 37.8984C95.6094 37.8984 95.901 37.7812 96.25 37.5469C96.599 37.3125 96.9557 37.0026 97.3203 36.6172C97.6901 36.2318 98.0547 35.7969 98.4141 35.3125C98.7786 34.8281 99.1042 34.3281 99.3906 33.8125L100.547 34.3438L100.18 35.2266C100.029 35.5807 99.8958 35.9193 99.7812 36.2422C99.6667 36.5651 99.612 36.8333 99.6172 37.0469C99.6172 37.6146 99.8932 37.8984 100.445 37.8984C100.732 37.8984 101.036 37.7839 101.359 37.5547C101.677 37.3255 101.992 37.0026 102.305 36.5859L103.172 37.4141C102.786 37.9245 102.344 38.3385 101.844 38.6562C101.339 38.9688 100.75 39.125 100.078 39.125ZM113.617 37.4141C113.232 37.9245 112.792 38.3385 112.297 38.6562C111.802 38.9688 111.219 39.125 110.547 39.125C110.333 39.125 110.125 39.0938 109.922 39.0312C109.719 38.9688 109.536 38.875 109.375 38.75C109.219 38.6198 109.091 38.4583 108.992 38.2656C108.898 38.0729 108.852 37.8542 108.852 37.6094C108.852 37.3646 108.88 37.1042 108.938 36.8281C109 36.5469 109.068 36.2839 109.141 36.0391C108.797 36.263 108.461 36.4349 108.133 36.5547C107.909 36.9089 107.656 37.2422 107.375 37.5547C107.099 37.8672 106.792 38.1406 106.453 38.375C106.12 38.6094 105.755 38.7943 105.359 38.9297C104.969 39.0599 104.544 39.125 104.086 39.125C103.508 39.125 103.052 38.9583 102.719 38.625C102.38 38.2865 102.211 37.8307 102.211 37.2578C102.211 37.0755 102.227 36.9193 102.258 36.7891C102.268 36.7161 102.284 36.6484 102.305 36.5859H103.508C103.497 36.638 103.487 36.6901 103.477 36.7422C103.466 36.7943 103.458 36.8516 103.453 36.9141C103.448 36.9714 103.445 37.0312 103.445 37.0938C103.445 37.3385 103.51 37.5339 103.641 37.6797C103.776 37.8255 103.977 37.8984 104.242 37.8984C104.753 37.8984 105.206 37.7708 105.602 37.5156C105.997 37.2552 106.344 36.9401 106.641 36.5703C105.359 36.4766 104.721 35.8828 104.727 34.7891C104.727 34.4036 104.802 34.0365 104.953 33.6875C105.109 33.3333 105.315 33.0234 105.57 32.7578C105.826 32.4922 106.12 32.2839 106.453 32.1328C106.792 31.9766 107.143 31.8984 107.508 31.8984C107.997 31.8984 108.378 32.0651 108.648 32.3984C108.924 32.7266 109.062 33.1823 109.062 33.7656C109.062 33.9792 109.029 34.2083 108.961 34.4531C108.898 34.6979 108.82 34.9453 108.727 35.1953C109.195 34.8411 109.578 34.3854 109.875 33.8281L111.016 34.3438C110.922 34.5677 110.82 34.8073 110.711 35.0625C110.602 35.3177 110.5 35.5703 110.406 35.8203C110.318 36.0651 110.245 36.2969 110.188 36.5156C110.13 36.7344 110.102 36.9115 110.102 37.0469C110.102 37.3438 110.174 37.5573 110.32 37.6875C110.471 37.8177 110.659 37.8828 110.883 37.8828C111.482 37.8828 112.102 37.4505 112.742 36.5859L113.617 37.4141ZM106.82 35.7656C107.055 35.7344 107.268 35.6667 107.461 35.5625C107.612 35.2865 107.74 35.0052 107.844 34.7188C107.948 34.4271 108 34.1693 108 33.9453C108 33.638 107.953 33.401 107.859 33.2344C107.766 33.0677 107.612 32.9844 107.398 32.9844C107.216 32.9844 107.039 33.0312 106.867 33.125C106.695 33.2135 106.536 33.3385 106.391 33.5C106.25 33.6562 106.135 33.8438 106.047 34.0625C105.964 34.2812 105.922 34.5182 105.922 34.7734C105.922 35.0495 105.997 35.2786 106.148 35.4609C106.299 35.6432 106.523 35.7448 106.82 35.7656ZM123.664 36.1172C122.883 37.1641 122.143 37.9271 121.445 38.4062C120.747 38.8854 120.117 39.125 119.555 39.125C119.023 39.125 118.609 38.9792 118.312 38.6875C118.021 38.3958 117.875 37.9609 117.875 37.3828C117.875 37.138 117.906 36.8828 117.969 36.6172C118.031 36.3516 118.107 36.112 118.195 35.8984L121.469 27.7969H122.797L119.406 36.2969C119.323 36.4896 119.263 36.6589 119.227 36.8047C119.19 36.9557 119.172 37.1068 119.172 37.2578C119.172 37.6849 119.367 37.8984 119.758 37.8984C119.862 37.8984 119.997 37.8698 120.164 37.8125C120.326 37.7604 120.51 37.6589 120.719 37.5078C120.932 37.3516 121.174 37.138 121.445 36.8672C121.716 36.5964 122.023 36.2396 122.367 35.7969C122.695 35.3698 123.073 34.8385 123.5 34.2031C123.922 33.5625 124.344 32.8776 124.766 32.1484C125.193 31.4245 125.599 30.6849 125.984 29.9297C126.37 29.1745 126.695 28.4635 126.961 27.7969H128.305L125.023 36.0391C124.94 36.2422 124.88 36.4141 124.844 36.5547C124.807 36.6953 124.786 36.8438 124.781 37C124.781 37.2865 124.865 37.5078 125.031 37.6641C125.198 37.8203 125.424 37.8984 125.711 37.8984C125.956 37.8984 126.229 37.8203 126.531 37.6641C126.828 37.5078 127.138 37.2891 127.461 37.0078C127.784 36.7266 128.125 36.3854 128.484 35.9844C128.839 35.5833 129.195 35.138 129.555 34.6484L130.414 35.4609C130.018 35.9818 129.622 36.4688 129.227 36.9219C128.826 37.3698 128.417 37.7552 128 38.0781C127.583 38.401 127.156 38.6589 126.719 38.8516C126.281 39.0391 125.828 39.1302 125.359 39.125C124.984 39.125 124.674 39.0755 124.43 38.9766C124.185 38.8776 123.99 38.75 123.844 38.5938C123.693 38.4375 123.589 38.2604 123.531 38.0625C123.474 37.8646 123.443 37.6693 123.438 37.4766C123.438 37.2734 123.456 37.0573 123.492 36.8281C123.523 36.599 123.581 36.362 123.664 36.1172ZM129.938 39.125C129.469 39.125 129.086 38.987 128.789 38.7109C128.497 38.4349 128.352 38.0469 128.352 37.5469C128.352 37.1615 128.435 36.7526 128.602 36.3203C128.768 35.888 128.99 35.4609 129.266 35.0391C129.542 34.6172 129.862 34.2135 130.227 33.8281C130.596 33.4427 130.982 33.1068 131.383 32.8203C131.784 32.5339 132.193 32.3047 132.609 32.1328C133.026 31.9609 133.419 31.8776 133.789 31.8828C134.195 31.8828 134.539 31.9792 134.82 32.1719C135.102 32.3646 135.339 32.599 135.531 32.875L134.43 33.4609C134.346 33.3568 134.242 33.2708 134.117 33.2031C133.992 33.1354 133.831 33.099 133.633 33.0938C133.398 33.0938 133.135 33.1667 132.844 33.3125C132.557 33.4583 132.268 33.651 131.977 33.8906C131.685 34.1302 131.398 34.401 131.117 34.7031C130.841 35.0052 130.594 35.3125 130.375 35.625C130.156 35.9323 129.982 36.2344 129.852 36.5312C129.721 36.8229 129.659 37.0755 129.664 37.2891C129.664 37.4714 129.706 37.6172 129.789 37.7266C129.872 37.8411 130.01 37.8984 130.203 37.8984C130.438 37.8984 130.727 37.7812 131.07 37.5469C131.414 37.3125 131.771 37.0026 132.141 36.6172C132.516 36.2318 132.883 35.7969 133.242 35.3125C133.607 34.8281 133.932 34.3281 134.219 33.8125L135.359 34.3438L133.664 38.5859C134.091 38.4141 134.536 38.2083 135 37.9688C135.464 37.7292 135.919 37.4453 136.367 37.1172C136.815 36.7943 137.253 36.4271 137.68 36.0156C138.107 35.6042 138.505 35.1484 138.875 34.6484L139.742 35.4609C139.294 36.0599 138.82 36.5938 138.32 37.0625C137.82 37.5312 137.294 37.9479 136.742 38.3125C136.195 38.6771 135.62 38.9974 135.016 39.2734C134.411 39.5495 133.773 39.7995 133.102 40.0234C132.581 41.2839 131.99 42.2109 131.328 42.8047C130.667 43.4036 129.951 43.7031 129.18 43.7031C128.701 43.7031 128.333 43.5833 128.078 43.3438C127.823 43.1042 127.695 42.776 127.695 42.3594C127.695 41.8802 127.818 41.4896 128.062 41.1875C128.307 40.8854 128.633 40.6198 129.039 40.3906C129.445 40.1667 129.914 39.9635 130.445 39.7812C130.977 39.599 131.531 39.3906 132.109 39.1562L132.797 37.4141C132.318 37.9818 131.841 38.4089 131.367 38.6953C130.893 38.9818 130.417 39.125 129.938 39.125ZM129.484 42.6016C129.802 42.6016 130.146 42.4245 130.516 42.0703C130.885 41.7161 131.24 41.1562 131.578 40.3906C131.323 40.5104 131.049 40.6198 130.758 40.7188C130.466 40.8177 130.193 40.9271 129.938 41.0469C129.562 41.2292 129.307 41.4089 129.172 41.5859C129.036 41.763 128.971 41.9583 128.977 42.1719C128.977 42.3021 129.023 42.4036 129.117 42.4766C129.211 42.5599 129.333 42.6016 129.484 42.6016ZM141.281 39.125C140.312 39.125 139.573 38.888 139.062 38.4141C138.557 37.9401 138.305 37.3203 138.305 36.5547C138.305 35.9349 138.424 35.3385 138.664 34.7656C138.904 34.1927 139.216 33.6927 139.602 33.2656C139.987 32.8333 140.419 32.4896 140.898 32.2344C141.383 31.9792 141.872 31.8516 142.367 31.8516C142.878 31.8516 143.305 31.9948 143.648 32.2812C143.992 32.5677 144.161 32.9245 144.156 33.3516C144.156 33.7057 144.049 34.0547 143.836 34.3984C143.622 34.7474 143.331 35.0599 142.961 35.3359C142.586 35.612 142.146 35.8359 141.641 36.0078C141.135 36.1797 140.583 36.2656 139.984 36.2656C139.844 36.2656 139.721 36.2552 139.617 36.2344C139.596 36.2969 139.583 36.362 139.578 36.4297C139.578 36.4974 139.578 36.5599 139.578 36.6172C139.578 36.8724 139.633 37.0833 139.742 37.25C139.846 37.4167 139.984 37.5469 140.156 37.6406C140.328 37.7344 140.518 37.8021 140.727 37.8438C140.935 37.8802 141.146 37.8984 141.359 37.8984C141.724 37.8984 142.068 37.8568 142.391 37.7734C142.714 37.6953 143.013 37.5911 143.289 37.4609C143.56 37.3307 143.797 37.1901 144 37.0391C144.203 36.8828 144.367 36.7318 144.492 36.5859L145.375 37.4141C144.99 37.8828 144.448 38.2865 143.75 38.625C143.052 38.9583 142.229 39.125 141.281 39.125ZM140.156 35.125C140.583 35.125 140.971 35.0807 141.32 34.9922C141.669 34.9036 141.961 34.7865 142.195 34.6406C142.435 34.4948 142.62 34.3307 142.75 34.1484C142.88 33.9661 142.945 33.7865 142.945 33.6094C142.945 33.2448 142.732 33.0625 142.305 33.0625C142.091 33.0625 141.867 33.1172 141.633 33.2266C141.398 33.3307 141.172 33.4766 140.953 33.6641C140.734 33.8516 140.529 34.0703 140.336 34.3203C140.143 34.5703 139.982 34.8385 139.852 35.125H140.156ZM152.766 39.125C152.542 39.125 152.328 39.0938 152.125 39.0312C151.922 38.9688 151.742 38.875 151.586 38.75C151.435 38.6198 151.31 38.4609 151.211 38.2734C151.117 38.0859 151.07 37.8646 151.07 37.6094C151.07 37.3646 151.099 37.112 151.156 36.8516C151.219 36.5859 151.281 36.3151 151.344 36.0391C151 36.263 150.664 36.4349 150.336 36.5547C150.122 36.9089 149.878 37.2396 149.602 37.5469C149.331 37.8542 149.026 38.1224 148.688 38.3516C148.354 38.5807 147.984 38.7656 147.578 38.9062C147.177 39.0417 146.747 39.1094 146.289 39.1094C145.711 39.1094 145.255 38.9453 144.922 38.6172C144.583 38.2839 144.414 37.8307 144.414 37.2578C144.414 37.0755 144.43 36.9193 144.461 36.7891C144.471 36.7161 144.487 36.6484 144.508 36.5859H145.695C145.685 36.638 145.674 36.6901 145.664 36.7422C145.654 36.7943 145.648 36.8516 145.648 36.9141C145.648 36.9714 145.648 37.0312 145.648 37.0938C145.648 37.3385 145.716 37.5339 145.852 37.6797C145.992 37.8255 146.19 37.8984 146.445 37.8984C146.956 37.8984 147.409 37.7708 147.805 37.5156C148.201 37.2552 148.547 36.9401 148.844 36.5703C148.214 36.5286 147.737 36.3542 147.414 36.0469C147.091 35.7344 146.93 35.3151 146.93 34.7891C146.93 34.4036 147.005 34.0365 147.156 33.6875C147.312 33.3333 147.518 33.026 147.773 32.7656C148.029 32.5052 148.32 32.2969 148.648 32.1406C148.982 31.9792 149.326 31.8984 149.68 31.8984C150.18 31.8984 150.568 32.0599 150.844 32.3828C151.125 32.7005 151.266 33.1615 151.266 33.7656C151.266 33.9792 151.232 34.2083 151.164 34.4531C151.102 34.6979 151.029 34.9453 150.945 35.1953C151.18 35.013 151.388 34.8073 151.57 34.5781C151.758 34.349 151.927 34.099 152.078 33.8281L153.219 34.3438C153.125 34.5781 153.021 34.8255 152.906 35.0859C152.792 35.3464 152.69 35.6042 152.602 35.8594C152.518 36.1094 152.448 36.3385 152.391 36.5469C152.333 36.7552 152.305 36.9219 152.305 37.0469C152.305 37.3229 152.375 37.5339 152.516 37.6797C152.661 37.8255 152.862 37.8984 153.117 37.8984C153.362 37.8984 153.628 37.8203 153.914 37.6641C154.206 37.5078 154.513 37.2891 154.836 37.0078C155.164 36.7266 155.5 36.3854 155.844 35.9844C156.193 35.5833 156.549 35.138 156.914 34.6484L157.773 35.4609C157.378 35.9818 156.982 36.4688 156.586 36.9219C156.195 37.3698 155.794 37.7578 155.383 38.0859C154.971 38.4089 154.549 38.6641 154.117 38.8516C153.685 39.0339 153.234 39.125 152.766 39.125ZM148.883 35.6406C149.044 35.6406 149.18 35.6354 149.289 35.625C149.398 35.6146 149.523 35.5938 149.664 35.5625C149.826 35.276 149.958 34.9844 150.062 34.6875C150.172 34.3854 150.227 34.1172 150.227 33.8828C150.227 33.6068 150.172 33.388 150.062 33.2266C149.958 33.0651 149.805 32.9844 149.602 32.9844C149.43 32.9844 149.258 33.0312 149.086 33.125C148.914 33.2135 148.755 33.3385 148.609 33.5C148.469 33.6562 148.352 33.8438 148.258 34.0625C148.169 34.2812 148.125 34.5182 148.125 34.7734C148.125 35.0495 148.198 35.263 148.344 35.4141C148.49 35.5651 148.669 35.6406 148.883 35.6406Z" fill="black"/>
<g clip-path="url(#clip0_3_1612)">
<path d="M213.606 27.4082C213.122 27.4082 212.658 27.6005 212.316 27.9424C211.974 28.2844 211.782 28.748 211.782 29.2316C211.782 29.7152 211.974 30.179 212.316 30.521C212.658 30.8629 213.122 31.0549 213.606 31.0549C213.84 31.0593 214.072 31.0164 214.289 30.9286C214.507 30.8409 214.704 30.7101 214.869 30.5443C215.034 30.3785 215.164 30.1809 215.252 29.9635C215.339 29.7461 215.381 29.5133 215.376 29.2792C215.391 29.0382 215.355 28.7969 215.273 28.57C215.19 28.3431 215.062 28.1357 214.896 27.9603C214.73 27.7849 214.53 27.6452 214.308 27.5503C214.086 27.4554 213.847 27.4071 213.606 27.4082Z" fill="#231F20"/>
<path d="M195.059 34.7402C193.856 34.7402 193.188 35.5087 193.188 36.9081V40.1785H196.898V36.6961C196.792 35.477 196.114 34.7402 195.059 34.7402Z" fill="#231F20"/>
<path d="M196.559 18.5352C195.409 18.5352 194.635 19.4095 194.635 20.7082V21.2382H198.584V20.7082C198.584 19.3671 197.805 18.5352 196.559 18.5352Z" fill="#231F20"/>
<path d="M203.837 15.801C204.267 15.7996 204.678 15.6281 204.982 15.3242C205.286 15.0203 205.457 14.6087 205.459 14.179C205.463 13.9648 205.424 13.7519 205.344 13.5531C205.264 13.3544 205.145 13.1738 204.993 13.0223C204.842 12.8708 204.661 12.7516 204.463 12.6716C204.264 12.5916 204.051 12.5526 203.837 12.557C203.407 12.557 202.994 12.728 202.69 13.0322C202.386 13.3363 202.215 13.7488 202.215 14.179C202.22 14.6074 202.393 15.0168 202.696 15.3198C202.999 15.6228 203.408 15.7955 203.837 15.801Z" fill="#231F20"/>
<path d="M196.405 11.8099C196.77 11.8204 197.13 11.7212 197.438 11.525C197.746 11.3287 197.988 11.0444 198.132 10.7092C198.277 10.3739 198.317 10.003 198.248 9.6444C198.18 9.28583 198.005 8.95633 197.747 8.69817C197.489 8.44002 197.159 8.26525 196.801 8.19659C196.442 8.12793 196.071 8.16853 195.736 8.31306C195.401 8.45759 195.116 8.69935 194.92 9.0072C194.724 9.31504 194.625 9.67468 194.635 10.0396C194.63 10.2735 194.672 10.5061 194.759 10.7231C194.847 10.9402 194.977 11.1372 195.142 11.3026C195.308 11.468 195.505 11.5985 195.722 11.6857C195.939 11.7729 196.172 11.815 196.405 11.8099Z" fill="#231F20"/>
<path d="M219.362 0H178.633C177.404 0.00140289 176.227 0.490032 175.358 1.35852C174.49 2.22701 174.001 3.40431 174 4.63254V45.3621C174.001 46.5908 174.49 47.7688 175.358 48.6382C176.226 49.5075 177.404 49.9972 178.633 50H219.362C220.592 49.9986 221.771 49.5094 222.64 48.64C223.51 47.7705 223.999 46.5917 224 45.3621V4.63254C223.999 3.40339 223.509 2.22509 222.64 1.35645C221.77 0.487809 220.591 -8.02709e-07 219.362 0ZM203.837 10.6011C204.598 10.5994 205.34 10.8388 205.957 11.2849V7.33069C205.942 7.19544 205.956 7.05842 205.998 6.92901C206.04 6.79959 206.109 6.68079 206.201 6.58038C206.293 6.47997 206.405 6.40036 206.531 6.34693C206.656 6.2935 206.791 6.26747 206.927 6.27058C207.062 6.27159 207.195 6.30039 207.318 6.35521C207.441 6.41003 207.552 6.48969 207.643 6.58918C207.734 6.68867 207.804 6.80582 207.847 6.93341C207.891 7.06099 207.908 7.19628 207.897 7.33069V22.3365C207.909 22.4674 207.895 22.5992 207.855 22.7243C207.815 22.8494 207.749 22.9652 207.663 23.0643C207.577 23.1635 207.471 23.244 207.353 23.3012C207.235 23.3583 207.106 23.3908 206.975 23.3967C206.838 23.396 206.702 23.3679 206.576 23.3138C206.45 23.2598 206.336 23.1808 206.241 23.0819C206.146 22.9831 206.072 22.8663 206.023 22.7382C205.975 22.6102 205.952 22.4735 205.957 22.3365V16.9881C205.34 17.4342 204.598 17.6736 203.837 17.6719C202.899 17.6719 202 17.2994 201.337 16.6364C200.674 15.9734 200.301 15.0742 200.301 14.1365C200.301 13.1988 200.674 12.2996 201.337 11.6366C202 10.9736 202.899 10.6011 203.837 10.6011ZM191.545 20.3913C191.541 21.0898 191.33 21.7713 190.939 22.3503C190.549 22.9293 189.995 23.3798 189.349 23.6451C188.703 23.9105 187.993 23.9789 187.308 23.8416C186.623 23.7043 185.994 23.3675 185.5 22.8736C185.006 22.3797 184.67 21.7506 184.532 21.0658C184.395 20.3809 184.463 19.6709 184.729 19.0247C184.994 18.3786 185.445 17.8255 186.024 17.4348C186.603 17.0442 187.284 16.8334 187.983 16.8292C188.453 16.8264 188.919 16.9171 189.353 17.0961C189.787 17.2751 190.182 17.5387 190.513 17.8717C190.845 18.2047 191.107 18.6006 191.284 19.0359C191.461 19.4711 191.55 19.9372 191.545 20.4071V20.3913ZM180.684 7.33069C180.669 7.19544 180.683 7.05842 180.725 6.92901C180.767 6.79959 180.836 6.68079 180.928 6.58038C181.02 6.47997 181.132 6.40036 181.258 6.34693C181.383 6.2935 181.518 6.26747 181.654 6.27058C181.789 6.27159 181.922 6.30039 182.045 6.35521C182.168 6.41003 182.279 6.48969 182.37 6.58918C182.461 6.68867 182.531 6.80582 182.574 6.93341C182.618 7.06099 182.635 7.19628 182.624 7.33069V10.3997H186.965V7.33069C186.95 7.19544 186.964 7.05842 187.006 6.92901C187.048 6.79959 187.117 6.68079 187.209 6.58038C187.301 6.47997 187.414 6.40036 187.539 6.34693C187.664 6.2935 187.799 6.26747 187.935 6.27058C188.07 6.27159 188.203 6.30039 188.326 6.35521C188.45 6.41003 188.56 6.48969 188.651 6.58918C188.742 6.68867 188.812 6.80582 188.855 6.93341C188.899 7.06099 188.916 7.19628 188.905 7.33069V14.6614C188.917 14.7922 188.903 14.924 188.863 15.0491C188.823 15.1742 188.757 15.29 188.671 15.3892C188.585 15.4883 188.479 15.5689 188.361 15.626C188.243 15.6831 188.114 15.7156 187.983 15.7215C187.846 15.7209 187.71 15.6927 187.584 15.6387C187.458 15.5846 187.344 15.5057 187.249 15.4068C187.155 15.3079 187.08 15.1911 187.032 15.0631C186.983 14.935 186.96 14.7984 186.965 14.6614V12.2389H182.624V22.3099C182.636 22.4407 182.622 22.5728 182.582 22.6979C182.542 22.823 182.476 22.9385 182.39 23.0377C182.304 23.1368 182.198 23.2174 182.08 23.2745C181.962 23.3316 181.833 23.3641 181.702 23.37C181.565 23.3694 181.429 23.3412 181.303 23.2872C181.177 23.2331 181.063 23.1544 180.968 23.0555C180.873 22.9567 180.799 22.8397 180.75 22.7116C180.702 22.5835 180.679 22.4469 180.684 22.3099V7.33069ZM188.905 41.5298C188.917 41.6606 188.903 41.7924 188.863 41.9175C188.823 42.0426 188.757 42.1584 188.671 42.2576C188.585 42.3567 188.479 42.4373 188.361 42.4944C188.243 42.5515 188.114 42.584 187.983 42.5899C187.846 42.5893 187.71 42.5611 187.584 42.5071C187.458 42.453 187.344 42.3741 187.249 42.2752C187.155 42.1763 187.08 42.0595 187.032 41.9315C186.983 41.8034 186.96 41.6668 186.965 41.5298V34.3898L182.624 38.7788V41.5298C182.636 41.6606 182.622 41.7924 182.582 41.9175C182.542 42.0426 182.476 42.1584 182.39 42.2576C182.304 42.3567 182.198 42.4373 182.08 42.4944C181.962 42.5515 181.833 42.584 181.702 42.5899C181.565 42.5893 181.429 42.5611 181.303 42.5071C181.177 42.453 181.063 42.3741 180.968 42.2752C180.873 42.1763 180.799 42.0595 180.75 41.9315C180.702 41.8034 180.679 41.6668 180.684 41.5298V26.5239C180.669 26.3887 180.683 26.2517 180.725 26.1222C180.767 25.9928 180.836 25.874 180.928 25.7736C181.02 25.6732 181.132 25.5936 181.258 25.5402C181.383 25.4867 181.518 25.4607 181.654 25.4638C181.789 25.4648 181.922 25.4936 182.045 25.5484C182.168 25.6033 182.279 25.6829 182.37 25.7824C182.461 25.8819 182.531 25.9991 182.574 26.1266C182.618 26.2542 182.635 26.3895 182.624 26.5239V36.2505L186.965 31.819V26.5185C186.95 26.3832 186.964 26.2465 187.006 26.1171C187.048 25.9877 187.117 25.8686 187.209 25.7682C187.301 25.6678 187.414 25.5882 187.539 25.5347C187.664 25.4813 187.799 25.4553 187.935 25.4584C188.07 25.4594 188.203 25.4882 188.326 25.543C188.45 25.5978 188.56 25.6775 188.651 25.777C188.742 25.8765 188.812 25.9939 188.855 26.1215C188.899 26.2491 188.916 26.3841 188.905 26.5185V41.5298ZM200.317 43.2737C200.319 43.4015 200.294 43.528 200.246 43.6464C200.198 43.7647 200.127 43.8723 200.036 43.9627C199.946 44.053 199.838 44.1243 199.72 44.1726C199.602 44.2208 199.475 44.2451 199.347 44.2437C199.218 44.2498 199.089 44.2287 198.969 44.1821C198.849 44.1355 198.739 44.0643 198.648 43.973C198.557 43.8817 198.485 43.7722 198.439 43.6518C198.392 43.5314 198.371 43.4027 198.377 43.2737V42.1023H190.723C190.467 42.0982 190.223 41.9945 190.042 41.8134C189.861 41.6324 189.757 41.3882 189.753 41.1322C189.766 40.8791 189.872 40.6398 190.052 40.4606C190.231 40.2814 190.47 40.175 190.723 40.1622H191.253V36.8918C191.253 34.2786 192.61 32.7839 194.964 32.7839C195.641 32.7698 196.308 32.954 196.882 33.3139V30.4144C196.882 28.432 196.146 27.3454 194.81 27.3454C193.665 27.3454 193.13 28.2359 192.881 28.9886C192.785 29.2386 192.594 29.4406 192.35 29.5505C192.227 29.6003 192.094 29.623 191.96 29.6175C191.827 29.6121 191.696 29.5784 191.577 29.5187C191.174 29.3385 190.782 28.9249 191.158 27.9867C191.431 27.2276 191.937 26.5741 192.603 26.1191C193.269 25.6642 194.062 25.4312 194.868 25.4532C197.275 25.4532 198.828 27.2448 198.828 30.0117V40.1622H199.358C199.487 40.1562 199.616 40.1772 199.736 40.2238C199.856 40.2704 199.966 40.3416 200.057 40.4329C200.148 40.5242 200.22 40.6334 200.266 40.7539C200.313 40.8743 200.334 41.0033 200.328 41.1322L200.317 43.2737ZM200.519 22.2887C200.526 22.4046 200.508 22.5209 200.467 22.6295C200.425 22.7381 200.362 22.8367 200.279 22.9189C200.197 23.001 200.099 23.0648 199.99 23.106C199.881 23.1472 199.765 23.165 199.649 23.158H193.416C193.32 23.1618 193.225 23.1456 193.136 23.1107C193.047 23.0758 192.966 23.0228 192.898 22.9551C192.83 22.8874 192.777 22.8064 192.742 22.7173C192.707 22.6281 192.691 22.5329 192.695 22.4372V10.0234C192.684 9.02659 193.068 8.06567 193.763 7.35139C194.459 6.63712 195.409 6.22771 196.405 6.21235C196.974 6.21767 197.534 6.35157 198.044 6.60445C198.553 6.85733 198.998 7.22255 199.347 7.67233C199.695 8.1221 199.936 8.64485 200.053 9.20141C200.17 9.75796 200.159 10.3337 200.022 10.8855C199.884 11.4374 199.623 11.9509 199.259 12.3874C198.894 12.824 198.436 13.1723 197.917 13.4061C197.399 13.6399 196.834 13.7532 196.266 13.7374C195.697 13.7216 195.14 13.5772 194.635 13.315V17.1419C195.235 16.7532 195.94 16.5571 196.655 16.58C199.077 16.58 200.519 18.1173 200.519 20.6933V22.2887ZM208.676 40.0667C208.416 40.8216 207.923 41.4744 207.267 41.9299C206.611 42.3855 205.828 42.6203 205.029 42.6005C202.623 42.6005 201.07 40.8087 201.07 38.0366V26.6246C201.068 26.5029 201.09 26.3821 201.136 26.2693C201.181 26.1564 201.249 26.0538 201.335 25.9677C201.421 25.8817 201.524 25.8138 201.637 25.7682C201.75 25.7226 201.87 25.7 201.992 25.7022H207.028C207.17 25.701 207.31 25.7303 207.44 25.7879C207.57 25.8454 207.686 25.9302 207.78 26.0363C207.862 26.1243 207.924 26.2292 207.96 26.3438C207.997 26.4583 208.008 26.5796 207.992 26.6989C207.992 26.9502 207.895 27.1916 207.723 27.3747C207.551 27.5577 207.316 27.6686 207.065 27.6847H203.026V33.2715H205.946C206.067 33.2715 206.187 33.2953 206.299 33.3416C206.411 33.388 206.513 33.4561 206.599 33.5417C206.684 33.6273 206.752 33.729 206.798 33.8409C206.845 33.9528 206.869 34.0725 206.869 34.1937C206.869 34.3148 206.845 34.4348 206.798 34.5467C206.752 34.6586 206.684 34.7602 206.599 34.8459C206.513 34.9315 206.411 34.9996 206.299 35.0459C206.187 35.0923 206.067 35.1161 205.946 35.1161H203.026V37.6815C203.026 39.9448 204.171 40.7505 205.146 40.7505C205.607 40.7231 206.048 40.5498 206.405 40.2554C206.761 39.9609 207.014 39.5607 207.128 39.1127C207.231 38.8747 207.42 38.685 207.658 38.5827C207.763 38.5357 207.875 38.5115 207.99 38.5115C208.104 38.5115 208.217 38.5357 208.321 38.5827C209.137 38.9272 208.803 39.7647 208.655 40.0827L208.676 40.0667ZM217.316 41.4291C217.316 42.1606 216.971 42.6005 216.399 42.6005C216.255 42.6038 216.112 42.576 215.98 42.5192C215.847 42.4625 215.729 42.3781 215.632 42.2715C215.535 42.165 215.462 42.0391 215.418 41.902C215.374 41.7648 215.359 41.6198 215.376 41.4767V39.2452C215.286 38.042 214.533 37.2627 213.457 37.2627C212.212 37.2627 211.432 38.0949 211.432 39.436V41.3812C211.432 42.118 211.072 42.6005 210.515 42.6005C210.049 42.6005 209.492 42.3883 209.492 41.3812V39.436C209.492 36.8599 210.939 35.3229 213.357 35.3229C214.071 35.3072 214.774 35.5046 215.376 35.8899V32.4976C214.841 32.8175 214.229 32.9844 213.606 32.9801C212.609 32.9914 211.648 32.6071 210.934 31.9117C210.22 31.2163 209.81 30.2665 209.795 29.2697C209.781 28.7654 209.87 28.2636 210.056 27.795C210.243 27.3263 210.523 26.9006 210.88 26.5439C211.237 26.1872 211.662 25.9069 212.131 25.7203C212.6 25.5337 213.101 25.4445 213.606 25.4584C214.602 25.4737 215.552 25.8834 216.248 26.5977C216.943 27.312 217.327 28.2729 217.316 29.2697V41.4291ZM217.316 22.1349C217.316 22.8717 216.971 23.3066 216.399 23.3066C216.256 23.3097 216.113 23.282 215.981 23.2256C215.849 23.1692 215.731 23.0854 215.634 22.9794C215.537 22.8735 215.464 22.7481 215.419 22.6117C215.375 22.4752 215.36 22.3306 215.376 22.188V20.1951C215.376 18.8965 214.607 18.0218 213.457 18.0218C212.212 18.0218 211.432 18.8541 211.432 20.1951V22.0873C211.432 22.8294 211.072 23.3066 210.515 23.3066C210.049 23.3066 209.492 23.0944 209.492 22.0873V20.1951C209.492 17.619 210.939 16.0818 213.357 16.0818C214.071 16.0661 214.774 16.2637 215.376 16.6491V13.2565C214.84 13.5723 214.228 13.7373 213.606 13.7338C212.857 13.7443 212.122 13.5311 211.495 13.1217C210.868 12.7122 210.378 12.125 210.086 11.4352C209.795 10.7455 209.716 9.98422 209.859 9.24929C210.003 8.51436 210.362 7.83895 210.892 7.30947C211.421 6.77998 212.097 6.42057 212.832 6.27705C213.567 6.13353 214.328 6.21264 215.017 6.50403C215.707 6.79542 216.294 7.28582 216.704 7.91276C217.113 8.53971 217.326 9.27467 217.316 10.0234V22.1349Z" fill="#231F20"/>
<path d="M186.361 20.4075C186.366 20.8359 186.539 21.2453 186.842 21.5483C187.145 21.8513 187.554 22.024 187.983 22.0295C188.196 22.0295 188.407 21.9875 188.604 21.906C188.8 21.8245 188.979 21.7049 189.13 21.5543C189.28 21.4037 189.4 21.2249 189.481 21.0281C189.563 20.8313 189.605 20.6205 189.605 20.4075C189.609 20.1933 189.57 19.9804 189.49 19.7817C189.41 19.5829 189.291 19.4023 189.139 19.2508C188.988 19.0993 188.807 18.9801 188.609 18.9001C188.41 18.8202 188.197 18.7812 187.983 18.7855C187.553 18.7855 187.14 18.9565 186.836 19.2607C186.532 19.5648 186.361 19.9773 186.361 20.4075Z" fill="#231F20"/>
<path d="M213.606 8.16867C213.358 8.15532 213.111 8.19242 212.878 8.27789C212.646 8.36336 212.433 8.49521 212.253 8.6656C212.074 8.83598 211.93 9.04132 211.832 9.26889C211.735 9.49647 211.684 9.74171 211.684 9.98944C211.684 10.2372 211.735 10.4821 211.832 10.7097C211.93 10.9373 212.074 11.1426 212.253 11.313C212.433 11.4834 212.646 11.6153 212.878 11.7007C213.111 11.7862 213.358 11.8233 213.606 11.8099C214.072 11.7848 214.51 11.5821 214.831 11.2434C215.152 10.9047 215.331 10.456 215.331 9.98944C215.331 9.52286 215.152 9.07391 214.831 8.73522C214.51 8.39652 214.072 8.19382 213.606 8.16867Z" fill="#231F20"/>
</g>
<defs>
<clipPath id="clip0_3_1612">
<rect width="50" height="50" fill="white" transform="translate(174)"/>
</clipPath>
</defs>
</svg>
