<svg width="40" height="34" viewBox="0 0 40 34" fill="none" xmlns="http://www.w3.org/2000/svg">
<path d="M37.2978 0.216251L1.86731 14.0567C-0.552664 15.038 -0.53388 16.4056 1.42336 17.0134L10.2654 19.8057L13.642 30.2967C14.0548 31.449 13.8546 31.9049 15.0427 31.9049C15.3988 31.9009 15.7493 31.8151 16.0677 31.6539C16.3862 31.4927 16.6643 31.2603 16.8811 30.9744L21.3022 26.6246L30.4943 33.5005C32.1826 34.4438 33.402 33.9563 33.8273 31.9049L39.8615 3.12228C40.4806 0.608701 38.9174 -0.505531 37.2978 0.216251ZM11.6598 19.1598L31.5823 6.44009C32.5766 5.80695 33.4583 6.15494 32.7392 6.83241L15.6806 22.4078L15.0177 29.5813L11.6598 19.1598Z" fill="black"/>
</svg>
