<svg width="72" height="48" viewBox="0 0 72 48" fill="none" xmlns="http://www.w3.org/2000/svg">
<path d="M70.0498 12.9965C66.2005 4.50615 56.263 -1.23199 46.5509 0.22928C36.5342 1.71827 26.4344 2.79935 16.4849 4.51802C-0.727813 8.23652 -5.84693 30.6069 7.87263 41.1883C24.0212 51.9042 47.5241 49.2985 62.3988 38.1152C74.0375 31.4663 73.0129 19.0158 70.0498 12.9965ZM48.1214 33.8106C46.9954 34.5704 45.677 34.9947 44.3197 35.0343C43.3692 35.1159 42.4196 34.8685 41.6296 34.3334C40.8858 33.8107 40.4744 32.983 40.4071 31.8425C40.3928 31.4762 40.4087 31.1093 40.4546 30.7456C39.4659 32.0522 38.304 33.2179 37.001 34.2106C35.9288 35.0131 34.6396 35.4727 33.3021 35.5293C32.8681 35.5792 32.4286 35.537 32.0121 35.4053C31.5956 35.2736 31.2115 35.0554 30.8849 34.765C30.4032 34.271 30.0925 33.6353 29.9988 32.9513C29.8128 33.1414 29.623 33.3473 29.4331 33.5017C28.6756 34.2116 27.8331 34.8248 26.9249 35.3273C26.0905 35.7682 25.1694 36.0197 24.2269 36.0639C23.6098 36.1244 22.9869 36.0571 22.3968 35.8664C21.8068 35.6756 21.2622 35.3655 20.797 34.9551C19.9109 34.1314 19.15 32.7427 18.5144 30.7891L17.0744 26.3736C16.2622 27.1137 15.4909 27.8977 14.7641 28.722C14.0173 29.5567 13.3186 30.4333 12.6713 31.3475C12.0502 32.2317 11.4911 33.1579 10.9979 34.1195C10.5517 34.9757 10.2141 35.8843 9.99306 36.8242L7.48493 35.6679C7.74002 34.6146 8.11847 33.5951 8.61241 32.6305C9.1626 31.5455 9.79615 30.5048 10.5074 29.5179C11.2951 28.4478 12.1458 27.4256 13.0551 26.4568C14.0121 25.4344 15.0321 24.4728 16.1091 23.5778L12.1887 11.8362L15.0212 11.6897L18.3047 21.6651C19.1486 20.9156 19.9527 20.1225 20.7139 19.289C21.5057 18.4361 22.243 17.5341 22.9214 16.5883C23.5676 15.672 24.153 14.7142 24.674 13.7212C25.1462 12.8216 25.4999 11.8645 25.7263 10.8739L28.2186 12.0619C27.9599 13.1465 27.5706 14.1957 27.0594 15.1864C26.4901 16.2961 25.8284 17.3559 25.0814 18.3545C24.2671 19.4543 23.3831 20.5006 22.4348 21.4869C21.4308 22.5382 20.3675 23.5311 19.2502 24.4609L20.9948 29.7832C21.1937 30.3849 21.4302 30.9735 21.703 31.5455C21.8818 31.9548 22.1205 32.3351 22.4111 32.6741C22.6449 32.941 22.9515 33.1337 23.2933 33.2285C23.64 33.3297 24.0005 33.3752 24.3614 33.3632C25.5008 33.3077 26.7258 32.6055 28.0366 31.2564C29.1444 30.0916 30.1627 28.8445 31.0827 27.526C31.237 27.2171 31.3992 26.9083 31.5812 26.6033C32.1545 25.6417 32.8167 24.7362 33.5592 23.8986C34.2815 23.0695 35.0759 22.3062 35.9328 21.6176C36.7218 20.994 37.5792 20.4626 38.4885 20.0335C39.286 19.6437 40.1538 19.4188 41.0401 19.3722C41.8247 19.3071 42.6122 19.4563 43.3188 19.8039C43.9806 20.1742 44.5511 20.6885 44.9882 21.3087L42.6463 22.7145C42.4465 22.493 42.2043 22.3139 41.9342 22.1878C41.6031 22.0433 41.2424 21.9796 40.8819 22.0017C40.2729 22.0518 39.6844 22.2459 39.1649 22.568C38.5045 22.9582 37.8855 23.4146 37.3175 23.9303C36.6877 24.5096 36.0969 25.13 35.5491 25.7875C34.9929 26.445 34.484 27.1411 34.026 27.8705C33.6088 28.512 33.2601 29.1956 32.9856 29.91C32.7535 30.4495 32.6428 31.0336 32.6612 31.6207C32.6617 31.9622 32.7758 32.2939 32.9856 32.5632C33.1003 32.6899 33.2444 32.7865 33.4051 32.8445C33.5658 32.9025 33.7383 32.9201 33.9074 32.8959C34.6014 32.789 35.2514 32.4884 35.7825 32.0286C36.6025 31.3941 37.3507 30.6717 38.0137 29.8744C38.8257 28.9309 39.5762 27.9362 40.2608 26.8964C40.9968 25.8131 41.6577 24.6804 42.2388 23.5065L44.8221 24.5401L44.1179 26.5201C43.8278 27.3122 43.5759 28.0672 43.3623 28.7853C43.1691 29.3576 43.0781 29.9595 43.0933 30.5634C43.1566 31.8069 43.7922 32.3969 45.0001 32.3335C45.7251 32.2595 46.4094 31.962 46.9583 31.4821C47.725 30.8433 48.3917 30.0931 48.9364 29.2566L50.9144 30.9713C50.1623 32.0788 49.2161 33.0408 48.1214 33.8106ZM54.5619 33.8661C54.3746 34.0836 54.1443 34.26 53.8856 34.3841C53.6269 34.5081 53.3453 34.5771 53.0586 34.5868C52.8863 34.6043 52.7123 34.5874 52.5466 34.5371C52.3809 34.4868 52.2268 34.4041 52.0933 34.2938C51.9698 34.1812 51.8709 34.0443 51.8028 33.8917C51.7347 33.739 51.6989 33.5739 51.6977 33.4067C51.6862 33.1354 51.7313 32.8646 51.83 32.6117C51.9288 32.3587 52.0791 32.1292 52.2713 31.9375C52.4587 31.7251 52.6871 31.5529 52.9427 31.4311C53.1983 31.3093 53.4759 31.2404 53.7588 31.2287C53.9317 31.2098 54.1067 31.2267 54.2727 31.2785C54.4388 31.3303 54.5925 31.4158 54.7241 31.5296C54.8458 31.6386 54.9437 31.7714 55.0118 31.92C55.0799 32.0685 55.1166 32.2296 55.1197 32.393C55.1323 32.6636 55.0894 32.934 54.9934 33.1874C54.8975 33.4408 54.7506 33.6718 54.5619 33.8661ZM56.2827 28.3893L53.3474 28.5398L59.8986 9.39284L62.8023 9.24632L56.2827 28.3893Z" fill="#1A1A1A"/>
</svg>
