<svg width="99" height="66" viewBox="0 0 99 66" fill="none" xmlns="http://www.w3.org/2000/svg">
<path d="M88.1853 9.33001C65.9689 -5.36568 33.6507 -1.75706 13.2132 13.6299C-2.80723 22.7848 -1.37645 39.897 2.70344 48.1702C8.0073 59.8288 21.6831 67.7046 35.0379 65.6799C48.8062 63.6225 62.6942 62.1202 76.3809 59.7471C100.044 54.6091 107.051 23.857 88.1853 9.33001ZM66.8284 47.7783C65.3169 48.8266 63.5318 49.4093 61.6932 49.4547C60.9931 49.5355 60.2839 49.472 59.6093 49.2679C58.9347 49.0638 58.3092 48.7236 57.7711 48.2682C57.2914 47.7993 56.9093 47.2399 56.6469 46.6224C56.3845 46.0048 56.2471 45.3415 56.2425 44.6705C56.2219 44.1579 56.2437 43.6445 56.3077 43.1355C54.8966 45.0879 53.2089 46.8243 51.2976 48.29C49.9065 49.3873 48.222 50.0482 46.4562 50.1895C45.8786 50.2512 45.2946 50.1951 44.7392 50.0249C44.1839 49.8546 43.6688 49.5737 43.2249 49.1989C42.3745 48.3437 41.8938 47.1885 41.8866 45.9821C41.4242 46.4774 40.962 46.951 40.4996 47.3864C39.4559 48.3581 38.2976 49.1988 37.0507 49.8901C35.9008 50.4954 34.6329 50.8428 33.3352 50.908C32.4866 50.991 31.6301 50.8986 30.8187 50.6365C30.0074 50.3743 29.2586 49.9479 28.6189 49.3839C27.4003 48.2518 26.3541 46.3432 25.4801 43.6581L23.5 37.5893C22.3845 38.6061 21.324 39.6816 20.3231 40.8114C19.3004 41.9623 18.3398 43.1669 17.4454 44.4201C16.5922 45.6349 15.8252 46.908 15.1498 48.23C14.533 49.4078 14.067 50.6587 13.7626 51.953L10.3138 50.3637C10.6653 48.9144 11.1855 47.5114 11.8641 46.1836C12.6231 44.6936 13.4942 43.2634 14.4698 41.9055C15.5547 40.4377 16.7244 39.0347 17.973 37.7036C19.289 36.2966 20.6916 34.9732 22.1726 33.7412L16.7817 17.6086L20.6766 17.4072L25.1917 31.1178C26.352 30.0875 27.4578 28.9975 28.5047 27.852C29.5947 26.6809 30.6086 25.441 31.5401 24.1401C32.4317 22.8846 33.2369 21.5697 33.95 20.2048C34.5985 18.968 35.0848 17.6527 35.3969 16.2914L38.8241 17.9243C38.4673 19.4147 37.9322 20.8566 37.2302 22.2187C36.4457 23.743 35.5359 25.1995 34.5103 26.573C33.389 28.0851 32.1734 29.5248 30.8709 30.8837C29.4871 32.3273 28.0234 33.692 26.4865 34.9713L28.8854 42.2865C29.1588 43.1135 29.4841 43.9224 29.8592 44.7085C30.1065 45.2703 30.4345 45.7929 30.8329 46.2597C31.1561 46.6247 31.5771 46.8891 32.046 47.0217C32.5227 47.1609 33.0185 47.2233 33.5147 47.2068C35.0814 47.1233 36.766 46.1582 38.5684 44.3112C40.5558 42.1951 42.3524 39.9075 43.9375 37.475L46.8805 28.7174L50.9168 28.5106L46.1896 42.3627C45.8857 43.1549 45.713 43.9913 45.6783 44.8392C45.6721 45.0813 45.7172 45.3221 45.811 45.5454C45.9048 45.7688 46.0451 45.9695 46.2223 46.1346C46.5535 46.3966 46.9708 46.5248 47.3918 46.4938C48.1262 46.4612 49.0727 45.9495 50.2314 44.9372C51.592 43.7329 52.8177 42.3842 53.887 40.9149C55.2754 39.0592 56.5281 37.1056 57.6351 35.0693C58.8741 32.8033 59.9187 30.4363 60.7576 27.9936L64.8375 27.7867L60.6053 40.1965C60.4079 40.7623 60.264 41.3454 60.1755 41.9381C60.1103 42.3758 60.0849 42.8185 60.0994 43.2607C60.1864 44.9698 60.986 45.7863 62.4874 45.7046C63.4944 45.606 64.4454 45.195 65.2074 44.5289C66.2427 43.6556 67.1348 42.6253 67.8512 41.4755L70.6037 43.8322C69.5711 45.3502 68.2913 46.6841 66.8175 47.7783H66.8284ZM75.6845 47.8545C75.4262 48.1525 75.1094 48.3942 74.7538 48.5646C74.3982 48.735 74.0114 48.8305 73.6174 48.8451C73.3805 48.8694 73.1411 48.8463 72.9132 48.7772C72.6853 48.708 72.4736 48.5942 72.2901 48.4423C72.1204 48.2864 71.9844 48.0973 71.8909 47.8866C71.7973 47.6759 71.748 47.4482 71.7461 47.2177C71.7337 46.8455 71.7978 46.4748 71.9344 46.1284C72.071 45.782 72.2772 45.4673 72.5403 45.2039C72.7985 44.9121 73.1125 44.6752 73.4638 44.5069C73.8151 44.3386 74.1966 44.2425 74.5857 44.2241C74.8233 44.201 75.0632 44.2257 75.2912 44.2967C75.5191 44.3678 75.7305 44.4837 75.913 44.6378C76.0803 44.7875 76.215 44.9701 76.3086 45.1743C76.4022 45.3785 76.4527 45.5998 76.457 45.8243C76.4695 46.1981 76.4066 46.5705 76.272 46.9193C76.1374 47.2681 75.9339 47.5862 75.6737 47.8545H75.6845ZM78.0509 40.3271L74.0145 40.5339L83.0229 14.2177L87.0104 14.0109L78.0509 40.3271Z" fill="#1A1A1A"/>
</svg>
